<svg xmlns="http://www.w3.org/2000/svg" viewBox="0 0 45 45" width="45" height="45" shape-rendering="crispEdges"><g transform="translate(2.0 2.0) scale(1.28125)"><svg xmlns="http://www.w3.org/2000/svg" viewBox="0 0 32 32" shape-rendering="crispEdges" fill="#000000"><rect x="14" y="2" width="1" height="1" /><rect x="17" y="2" width="1" height="1" /><rect x="13" y="3" width="1" height="1" /><rect x="15" y="3" width="2" height="1" /><rect x="18" y="3" width="1" height="1" /><rect x="12" y="4" width="3" height="1" /><rect x="17" y="4" width="3" height="1" /><rect x="13" y="6" width="6" height="1" /><rect x="8" y="8" width="16" height="1" /><rect x="8" y="9" width="1" height="1" /><rect x="10" y="9" width="1" height="1" /><rect x="12" y="9" width="1" height="1" /><rect x="14" y="9" width="1" height="1" /><rect x="23" y="9" width="1" height="1" /><rect x="8" y="10" width="1" height="1" /><rect x="10" y="10" width="1" height="1" /><rect x="12" y="10" width="1" height="1" /><rect x="14" y="10" width="1" height="1" /><rect x="23" y="10" width="1" height="1" /><rect x="8" y="11" width="1" height="1" /><rect x="10" y="11" width="1" height="1" /><rect x="12" y="11" width="1" height="1" /><rect x="14" y="11" width="1" height="1" /><rect x="23" y="11" width="1" height="1" /><rect x="8" y="12" width="1" height="1" /><rect x="10" y="12" width="1" height="1" /><rect x="12" y="12" width="1" height="1" /><rect x="14" y="12" width="1" height="1" /><rect x="23" y="12" width="1" height="1" /><rect x="8" y="13" width="1" height="1" /><rect x="10" y="13" width="1" height="1" /><rect x="12" y="13" width="1" height="1" /><rect x="14" y="13" width="1" height="1" /><rect x="16" y="13" width="3" height="1" /><rect x="23" y="13" width="1" height="1" /><rect x="8" y="14" width="1" height="1" /><rect x="10" y="14" width="1" height="1" /><rect x="12" y="14" width="1" height="1" /><rect x="14" y="14" width="1" height="1" /><rect x="16" y="14" width="4" height="1" /><rect x="23" y="14" width="1" height="1" /><rect x="8" y="15" width="1" height="1" /><rect x="10" y="15" width="1" height="1" /><rect x="12" y="15" width="1" height="1" /><rect x="14" y="15" width="1" height="1" /><rect x="16" y="15" width="5" height="1" /><rect x="23" y="15" width="1" height="1" /><rect x="8" y="16" width="1" height="1" /><rect x="10" y="16" width="1" height="1" /><rect x="12" y="16" width="1" height="1" /><rect x="14" y="16" width="1" height="1" /><rect x="16" y="16" width="6" height="1" /><rect x="23" y="16" width="1" height="1" /><rect x="8" y="17" width="1" height="1" /><rect x="10" y="17" width="1" height="1" /><rect x="12" y="17" width="1" height="1" /><rect x="14" y="17" width="1" height="1" /><rect x="16" y="17" width="8" height="1" /><rect x="8" y="18" width="1" height="1" /><rect x="10" y="18" width="1" height="1" /><rect x="12" y="18" width="1" height="1" /><rect x="14" y="18" width="1" height="1" /><rect x="16" y="18" width="8" height="1" /><rect x="8" y="19" width="1" height="1" /><rect x="10" y="19" width="1" height="1" /><rect x="12" y="19" width="1" height="1" /><rect x="14" y="19" width="1" height="1" /><rect x="16" y="19" width="8" height="1" /><rect x="8" y="20" width="1" height="1" /><rect x="10" y="20" width="1" height="1" /><rect x="12" y="20" width="1" height="1" /><rect x="14" y="20" width="1" height="1" /><rect x="16" y="20" width="8" height="1" /><rect x="8" y="21" width="1" height="1" /><rect x="10" y="21" width="1" height="1" /><rect x="12" y="21" width="1" height="1" /><rect x="14" y="21" width="1" height="1" /><rect x="16" y="21" width="8" height="1" /><rect x="8" y="22" width="1" height="1" /><rect x="10" y="22" width="1" height="1" /><rect x="12" y="22" width="1" height="1" /><rect x="14" y="22" width="1" height="1" /><rect x="16" y="22" width="8" height="1" /><rect x="9" y="23" width="2" height="1" /><rect x="12" y="23" width="1" height="1" /><rect x="14" y="23" width="1" height="1" /><rect x="16" y="23" width="7" height="1" /><rect x="10" y="24" width="1" height="1" /><rect x="12" y="24" width="1" height="1" /><rect x="14" y="24" width="1" height="1" /><rect x="16" y="24" width="6" height="1" /><rect x="8" y="25" width="1" height="1" /><rect x="11" y="25" width="2" height="1" /><rect x="14" y="25" width="1" height="1" /><rect x="16" y="25" width="5" height="1" /><rect x="23" y="25" width="1" height="1" /><rect x="9" y="26" width="1" height="1" /><rect x="12" y="26" width="1" height="1" /><rect x="14" y="26" width="1" height="1" /><rect x="16" y="26" width="4" height="1" /><rect x="22" y="26" width="1" height="1" /><rect x="8" y="27" width="1" height="1" /><rect x="10" y="27" width="1" height="1" /><rect x="13" y="27" width="6" height="1" /><rect x="21" y="27" width="1" height="1" /><rect x="23" y="27" width="1" height="1" /><rect x="9" y="28" width="1" height="1" /><rect x="11" y="28" width="1" height="1" /><rect x="20" y="28" width="1" height="1" /><rect x="22" y="28" width="1" height="1" /><rect x="10" y="29" width="1" height="1" /><rect x="12" y="29" width="1" height="1" /><rect x="14" y="29" width="4" height="1" /><rect x="19" y="29" width="1" height="1" /><rect x="21" y="29" width="1" height="1" /></svg></g></svg>