<svg xmlns="http://www.w3.org/2000/svg" viewBox="0 0 45 45" width="45" height="45" shape-rendering="crispEdges"><g transform="translate(2.0 2.0) scale(1.28125)"><svg xmlns="http://www.w3.org/2000/svg" viewBox="0 0 32 32" shape-rendering="crispEdges" fill="#000000"><rect x="15" y="2" width="2" height="1" /><rect x="11" y="3" width="1" height="1" /><rect x="15" y="3" width="2" height="1" /><rect x="20" y="3" width="1" height="1" /><rect x="11" y="4" width="2" height="1" /><rect x="14" y="4" width="4" height="1" /><rect x="19" y="4" width="2" height="1" /><rect x="11" y="5" width="10" height="1" /><rect x="5" y="6" width="1" height="1" /><rect x="11" y="6" width="10" height="1" /><rect x="26" y="6" width="1" height="1" /><rect x="3" y="7" width="4" height="1" /><rect x="11" y="7" width="10" height="1" /><rect x="25" y="7" width="4" height="1" /><rect x="3" y="8" width="5" height="1" /><rect x="11" y="8" width="10" height="1" /><rect x="24" y="8" width="5" height="1" /><rect x="3" y="9" width="6" height="1" /><rect x="11" y="9" width="10" height="1" /><rect x="23" y="9" width="6" height="1" /><rect x="2" y="10" width="8" height="1" /><rect x="11" y="10" width="10" height="1" /><rect x="22" y="10" width="8" height="1" /><rect x="2" y="11" width="28" height="1" /><rect x="3" y="12" width="26" height="1" /><rect x="4" y="13" width="24" height="1" /><rect x="3" y="15" width="4" height="1" /><rect x="9" y="15" width="1" height="1" /><rect x="12" y="15" width="1" height="1" /><rect x="15" y="15" width="1" height="1" /><rect x="18" y="15" width="1" height="1" /><rect x="21" y="15" width="3" height="1" /><rect x="27" y="15" width="1" height="1" /><rect x="3" y="16" width="1" height="1" /><rect x="8" y="16" width="1" height="1" /><rect x="10" y="16" width="1" height="1" /><rect x="12" y="16" width="2" height="1" /><rect x="15" y="16" width="1" height="1" /><rect x="17" y="16" width="1" height="1" /><rect x="19" y="16" width="1" height="1" /><rect x="21" y="16" width="1" height="1" /><rect x="24" y="16" width="1" height="1" /><rect x="26" y="16" width="1" height="1" /><rect x="28" y="16" width="1" height="1" /><rect x="3" y="17" width="1" height="1" /><rect x="8" y="17" width="3" height="1" /><rect x="12" y="17" width="1" height="1" /><rect x="14" y="17" width="2" height="1" /><rect x="17" y="17" width="3" height="1" /><rect x="21" y="17" width="1" height="1" /><rect x="24" y="17" width="1" height="1" /><rect x="26" y="17" width="3" height="1" /><rect x="3" y="18" width="4" height="1" /><rect x="8" y="18" width="1" height="1" /><rect x="10" y="18" width="1" height="1" /><rect x="12" y="18" width="1" height="1" /><rect x="15" y="18" width="1" height="1" /><rect x="17" y="18" width="1" height="1" /><rect x="19" y="18" width="1" height="1" /><rect x="21" y="18" width="3" height="1" /><rect x="26" y="18" width="1" height="1" /><rect x="28" y="18" width="1" height="1" /><rect x="3" y="20" width="2" height="1" /><rect x="7" y="20" width="4" height="1" /><rect x="21" y="20" width="4" height="1" /><rect x="27" y="20" width="2" height="1" /><rect x="3" y="21" width="3" height="1" /><rect x="8" y="21" width="4" height="1" /><rect x="20" y="21" width="4" height="1" /><rect x="26" y="21" width="3" height="1" /><rect x="4" y="22" width="3" height="1" /><rect x="9" y="22" width="2" height="1" /><rect x="13" y="22" width="6" height="1" /><rect x="21" y="22" width="2" height="1" /><rect x="25" y="22" width="3" height="1" /><rect x="4" y="23" width="4" height="1" /><rect x="12" y="23" width="8" height="1" /><rect x="24" y="23" width="4" height="1" /><rect x="5" y="24" width="3" height="1" /><rect x="11" y="24" width="10" height="1" /><rect x="24" y="24" width="3" height="1" /><rect x="6" y="25" width="3" height="1" /><rect x="12" y="25" width="8" height="1" /><rect x="23" y="25" width="3" height="1" /><rect x="7" y="26" width="2" height="1" /><rect x="13" y="26" width="6" height="1" /><rect x="23" y="26" width="2" height="1" /><rect x="14" y="28" width="4" height="1" /><rect x="13" y="29" width="6" height="1" /></svg></g></svg>