<svg xmlns="http://www.w3.org/2000/svg" viewBox="0 0 45 45" width="45" height="45" shape-rendering="crispEdges"><g transform="translate(2.0 2.0) scale(1.28125)"><svg xmlns="http://www.w3.org/2000/svg" viewBox="0 0 32 32" shape-rendering="crispEdges" fill="#000000"><rect x="12" y="2" width="8" height="1" /><rect x="10" y="3" width="12" height="1" /><rect x="8" y="4" width="4" height="1" /><rect x="20" y="4" width="4" height="1" /><rect x="7" y="5" width="3" height="1" /><rect x="22" y="5" width="3" height="1" /><rect x="6" y="6" width="2" height="1" /><rect x="24" y="6" width="2" height="1" /><rect x="5" y="7" width="2" height="1" /><rect x="9" y="7" width="14" height="1" /><rect x="25" y="7" width="2" height="1" /><rect x="4" y="8" width="2" height="1" /><rect x="9" y="8" width="1" height="1" /><rect x="22" y="8" width="1" height="1" /><rect x="26" y="8" width="2" height="1" /><rect x="4" y="9" width="2" height="1" /><rect x="9" y="9" width="1" height="1" /><rect x="22" y="9" width="1" height="1" /><rect x="26" y="9" width="2" height="1" /><rect x="3" y="10" width="2" height="1" /><rect x="9" y="10" width="1" height="1" /><rect x="22" y="10" width="1" height="1" /><rect x="27" y="10" width="2" height="1" /><rect x="3" y="11" width="2" height="1" /><rect x="9" y="11" width="14" height="1" /><rect x="27" y="11" width="2" height="1" /><rect x="2" y="12" width="2" height="1" /><rect x="9" y="12" width="1" height="1" /><rect x="21" y="12" width="2" height="1" /><rect x="28" y="12" width="2" height="1" /><rect x="2" y="13" width="2" height="1" /><rect x="9" y="13" width="1" height="1" /><rect x="20" y="13" width="1" height="1" /><rect x="22" y="13" width="1" height="1" /><rect x="28" y="13" width="2" height="1" /><rect x="9" y="14" width="1" height="1" /><rect x="19" y="14" width="1" height="1" /><rect x="22" y="14" width="1" height="1" /><rect x="2" y="15" width="2" height="1" /><rect x="9" y="15" width="1" height="1" /><rect x="18" y="15" width="1" height="1" /><rect x="22" y="15" width="1" height="1" /><rect x="28" y="15" width="2" height="1" /><rect x="2" y="16" width="2" height="1" /><rect x="9" y="16" width="1" height="1" /><rect x="17" y="16" width="1" height="1" /><rect x="22" y="16" width="1" height="1" /><rect x="28" y="16" width="2" height="1" /><rect x="9" y="17" width="1" height="1" /><rect x="16" y="17" width="1" height="1" /><rect x="22" y="17" width="1" height="1" /><rect x="2" y="18" width="2" height="1" /><rect x="9" y="18" width="1" height="1" /><rect x="15" y="18" width="1" height="1" /><rect x="22" y="18" width="1" height="1" /><rect x="28" y="18" width="2" height="1" /><rect x="2" y="19" width="2" height="1" /><rect x="9" y="19" width="1" height="1" /><rect x="14" y="19" width="1" height="1" /><rect x="22" y="19" width="1" height="1" /><rect x="28" y="19" width="2" height="1" /><rect x="3" y="20" width="2" height="1" /><rect x="9" y="20" width="1" height="1" /><rect x="13" y="20" width="1" height="1" /><rect x="22" y="20" width="1" height="1" /><rect x="27" y="20" width="2" height="1" /><rect x="3" y="21" width="2" height="1" /><rect x="10" y="21" width="1" height="1" /><rect x="12" y="21" width="1" height="1" /><rect x="21" y="21" width="1" height="1" /><rect x="27" y="21" width="2" height="1" /><rect x="4" y="22" width="2" height="1" /><rect x="11" y="22" width="1" height="1" /><rect x="20" y="22" width="1" height="1" /><rect x="26" y="22" width="2" height="1" /><rect x="4" y="23" width="2" height="1" /><rect x="12" y="23" width="1" height="1" /><rect x="19" y="23" width="1" height="1" /><rect x="26" y="23" width="2" height="1" /><rect x="5" y="24" width="2" height="1" /><rect x="13" y="24" width="1" height="1" /><rect x="18" y="24" width="1" height="1" /><rect x="25" y="24" width="2" height="1" /><rect x="6" y="25" width="2" height="1" /><rect x="14" y="25" width="4" height="1" /><rect x="24" y="25" width="2" height="1" /><rect x="7" y="26" width="3" height="1" /><rect x="22" y="26" width="3" height="1" /><rect x="8" y="27" width="4" height="1" /><rect x="20" y="27" width="4" height="1" /><rect x="10" y="28" width="12" height="1" /><rect x="12" y="29" width="8" height="1" /></svg></g></svg>