<svg xmlns="http://www.w3.org/2000/svg" viewBox="0 0 45 45" width="45" height="45" shape-rendering="crispEdges"><g transform="translate(2.0 2.0) scale(1.28125)"><svg xmlns="http://www.w3.org/2000/svg" viewBox="0 0 32 32" shape-rendering="crispEdges" fill="#000000"><rect x="15" y="2" width="2" height="1" /><rect x="13" y="3" width="6" height="1" /><rect x="11" y="4" width="10" height="1" /><rect x="9" y="5" width="14" height="1" /><rect x="7" y="6" width="18" height="1" /><rect x="5" y="7" width="22" height="1" /><rect x="3" y="8" width="6" height="1" /><rect x="10" y="8" width="2" height="1" /><rect x="13" y="8" width="1" height="1" /><rect x="18" y="8" width="1" height="1" /><rect x="23" y="8" width="6" height="1" /><rect x="2" y="9" width="7" height="1" /><rect x="10" y="9" width="2" height="1" /><rect x="13" y="9" width="1" height="1" /><rect x="15" y="9" width="4" height="1" /><rect x="20" y="9" width="2" height="1" /><rect x="23" y="9" width="7" height="1" /><rect x="2" y="10" width="7" height="1" /><rect x="10" y="10" width="2" height="1" /><rect x="13" y="10" width="1" height="1" /><rect x="15" y="10" width="4" height="1" /><rect x="20" y="10" width="2" height="1" /><rect x="23" y="10" width="7" height="1" /><rect x="2" y="11" width="7" height="1" /><rect x="10" y="11" width="2" height="1" /><rect x="13" y="11" width="1" height="1" /><rect x="17" y="11" width="2" height="1" /><rect x="23" y="11" width="7" height="1" /><rect x="2" y="12" width="7" height="1" /><rect x="10" y="12" width="2" height="1" /><rect x="13" y="12" width="1" height="1" /><rect x="15" y="12" width="4" height="1" /><rect x="20" y="12" width="2" height="1" /><rect x="23" y="12" width="7" height="1" /><rect x="3" y="13" width="6" height="1" /><rect x="10" y="13" width="2" height="1" /><rect x="13" y="13" width="1" height="1" /><rect x="15" y="13" width="4" height="1" /><rect x="20" y="13" width="2" height="1" /><rect x="23" y="13" width="6" height="1" /><rect x="3" y="14" width="6" height="1" /><rect x="13" y="14" width="1" height="1" /><rect x="15" y="14" width="4" height="1" /><rect x="20" y="14" width="2" height="1" /><rect x="23" y="14" width="6" height="1" /><rect x="3" y="15" width="26" height="1" /><rect x="4" y="16" width="24" height="1" /><rect x="4" y="17" width="10" height="1" /><rect x="18" y="17" width="10" height="1" /><rect x="5" y="18" width="8" height="1" /><rect x="14" y="18" width="4" height="1" /><rect x="19" y="18" width="8" height="1" /><rect x="5" y="19" width="7" height="1" /><rect x="13" y="19" width="2" height="1" /><rect x="17" y="19" width="2" height="1" /><rect x="20" y="19" width="7" height="1" /><rect x="6" y="20" width="5" height="1" /><rect x="12" y="20" width="2" height="1" /><rect x="15" y="20" width="2" height="1" /><rect x="18" y="20" width="2" height="1" /><rect x="21" y="20" width="5" height="1" /><rect x="6" y="21" width="5" height="1" /><rect x="12" y="21" width="1" height="1" /><rect x="14" y="21" width="1" height="1" /><rect x="17" y="21" width="1" height="1" /><rect x="19" y="21" width="1" height="1" /><rect x="21" y="21" width="5" height="1" /><rect x="7" y="22" width="4" height="1" /><rect x="12" y="22" width="1" height="1" /><rect x="14" y="22" width="1" height="1" /><rect x="17" y="22" width="1" height="1" /><rect x="19" y="22" width="1" height="1" /><rect x="21" y="22" width="4" height="1" /><rect x="8" y="23" width="3" height="1" /><rect x="12" y="23" width="2" height="1" /><rect x="15" y="23" width="2" height="1" /><rect x="18" y="23" width="2" height="1" /><rect x="21" y="23" width="3" height="1" /><rect x="9" y="24" width="3" height="1" /><rect x="13" y="24" width="2" height="1" /><rect x="17" y="24" width="2" height="1" /><rect x="20" y="24" width="3" height="1" /><rect x="10" y="25" width="3" height="1" /><rect x="14" y="25" width="4" height="1" /><rect x="19" y="25" width="3" height="1" /><rect x="11" y="26" width="3" height="1" /><rect x="18" y="26" width="3" height="1" /><rect x="12" y="27" width="8" height="1" /><rect x="13" y="28" width="6" height="1" /><rect x="15" y="29" width="2" height="1" /></svg></g></svg>