<svg xmlns="http://www.w3.org/2000/svg" viewBox="0 0 45 45" width="45" height="45"><defs><mask id="c" maskUnits="userSpaceOnUse" x="0" y="0" width="45" height="45"><rect width="45" height="45" fill="#ffffff"></rect><g fill="#000000"><circle cx="9.3214" cy="23.2321" r="0.7321"></circle><circle cx="10.7857" cy="23.2321" r="0.7321"></circle><circle cx="12.25" cy="23.2321" r="0.7321"></circle><circle cx="13.7143" cy="23.2321" r="0.7321"></circle><circle cx="15.1786" cy="23.2321" r="0.7321"></circle><circle cx="16.6429" cy="23.2321" r="0.7321"></circle><circle cx="18.1071" cy="23.2321" r="0.7321"></circle><circle cx="19.5714" cy="23.2321" r="0.7321"></circle><circle cx="21.0357" cy="23.2321" r="0.7321"></circle><circle cx="22.5" cy="23.2321" r="0.7321"></circle><circle cx="23.9643" cy="23.2321" r="0.7321"></circle><circle cx="25.4286" cy="23.2321" r="0.7321"></circle><circle cx="28.3571" cy="23.2321" r="0.7321"></circle><circle cx="29.8214" cy="23.2321" r="0.7321"></circle><circle cx="31.2857" cy="23.2321" r="0.7321"></circle><circle cx="34.2143" cy="23.2321" r="0.7321"></circle><circle cx="10.7857" cy="24.6964" r="0.7321"></circle><circle cx="12.25" cy="24.6964" r="0.7321"></circle><circle cx="13.7143" cy="24.6964" r="0.7321"></circle><circle cx="15.1786" cy="24.6964" r="0.7321"></circle><circle cx="16.6429" cy="24.6964" r="0.7321"></circle><circle cx="18.1071" cy="24.6964" r="0.7321"></circle><circle cx="19.5714" cy="24.6964" r="0.7321"></circle><circle cx="21.0357" cy="24.6964" r="0.7321"></circle><circle cx="22.5" cy="24.6964" r="0.7321"></circle><circle cx="23.9643" cy="24.6964" r="0.7321"></circle><circle cx="25.4286" cy="24.6964" r="0.7321"></circle><circle cx="26.8929" cy="24.6964" r="0.7321"></circle><circle cx="29.8214" cy="24.6964" r="0.7321"></circle><circle cx="31.2857" cy="24.6964" r="0.7321"></circle><circle cx="12.25" cy="26.1607" r="0.7321"></circle><circle cx="13.7143" cy="26.1607" r="0.7321"></circle><circle cx="15.1786" cy="26.1607" r="0.7321"></circle><circle cx="16.6429" cy="2.7321" r="0.7321"></circle><circle cx="16.6429" cy="26.1607" r="0.7321"></circle><circle cx="19.5714" cy="2.7321" r="0.7321"></circle><circle cx="18.1071" cy="26.1607" r="0.7321"></circle><circle cx="19.5714" cy="26.1607" r="0.7321"></circle><circle cx="23.9643" cy="2.7321" r="0.7321"></circle><circle cx="21.0357" cy="26.1607" r="0.7321"></circle><circle cx="26.8929" cy="2.7321" r="0.7321"></circle><circle cx="22.5" cy="26.1607" r="0.7321"></circle><circle cx="23.9643" cy="26.1607" r="0.7321"></circle><circle cx="25.4286" cy="26.1607" r="0.7321"></circle><circle cx="26.8929" cy="26.1607" r="0.7321"></circle><circle cx="28.3571" cy="26.1607" r="0.7321"></circle><circle cx="31.2857" cy="26.1607" r="0.7321"></circle><circle cx="13.7143" cy="27.625" r="0.7321"></circle><circle cx="15.1786" cy="27.625" r="0.7321"></circle><circle cx="16.6429" cy="27.625" r="0.7321"></circle><circle cx="18.1071" cy="4.1964" r="0.7321"></circle><circle cx="18.1071" cy="27.625" r="0.7321"></circle><circle cx="19.5714" cy="27.625" r="0.7321"></circle><circle cx="21.0357" cy="27.625" r="0.7321"></circle><circle cx="22.5" cy="27.625" r="0.7321"></circle><circle cx="25.4286" cy="4.1964" r="0.7321"></circle><circle cx="23.9643" cy="27.625" r="0.7321"></circle><circle cx="25.4286" cy="27.625" r="0.7321"></circle><circle cx="26.8929" cy="27.625" r="0.7321"></circle><circle cx="28.3571" cy="27.625" r="0.7321"></circle><circle cx="31.2857" cy="27.625" r="0.7321"></circle><circle cx="15.1786" cy="29.0893" r="0.7321"></circle><circle cx="16.6429" cy="5.6607" r="0.7321"></circle><circle cx="16.6429" cy="29.0893" r="0.7321"></circle><circle cx="19.5714" cy="5.6607" r="0.7321"></circle><circle cx="18.1071" cy="29.0893" r="0.7321"></circle><circle cx="19.5714" cy="29.0893" r="0.7321"></circle><circle cx="23.9643" cy="5.6607" r="0.7321"></circle><circle cx="21.0357" cy="29.0893" r="0.7321"></circle><circle cx="26.8929" cy="5.6607" r="0.7321"></circle><circle cx="22.5" cy="29.0893" r="0.7321"></circle><circle cx="23.9643" cy="29.0893" r="0.7321"></circle><circle cx="25.4286" cy="29.0893" r="0.7321"></circle><circle cx="26.8929" cy="29.0893" r="0.7321"></circle><circle cx="28.3571" cy="29.0893" r="0.7321"></circle><circle cx="16.6429" cy="30.5536" r="0.7321"></circle><circle cx="18.1071" cy="30.5536" r="0.7321"></circle><circle cx="19.5714" cy="30.5536" r="0.7321"></circle><circle cx="25.4286" cy="30.5536" r="0.7321"></circle><circle cx="26.8929" cy="30.5536" r="0.7321"></circle><circle cx="28.3571" cy="30.5536" r="0.7321"></circle><circle cx="13.7143" cy="8.5893" r="0.7321"></circle><circle cx="18.1071" cy="32.0179" r="0.7321"></circle><circle cx="26.8929" cy="32.0179" r="0.7321"></circle><circle cx="13.7143" cy="10.0536" r="0.7321"></circle><circle cx="15.1786" cy="10.0536" r="0.7321"></circle><circle cx="18.1071" cy="10.0536" r="0.7321"></circle><circle cx="18.1071" cy="33.4821" r="0.7321"></circle><circle cx="26.8929" cy="33.4821" r="0.7321"></circle><circle cx="10.7857" cy="11.5179" r="0.7321"></circle><circle cx="12.25" cy="11.5179" r="0.7321"></circle><circle cx="13.7143" cy="11.5179" r="0.7321"></circle><circle cx="15.1786" cy="11.5179" r="0.7321"></circle><circle cx="16.6429" cy="11.5179" r="0.7321"></circle><circle cx="18.1071" cy="11.5179" r="0.7321"></circle><circle cx="15.1786" cy="34.9464" r="0.7321"></circle><circle cx="16.6429" cy="34.9464" r="0.7321"></circle><circle cx="18.1071" cy="34.9464" r="0.7321"></circle><circle cx="23.9643" cy="34.9464" r="0.7321"></circle><circle cx="25.4286" cy="34.9464" r="0.7321"></circle><circle cx="26.8929" cy="34.9464" r="0.7321"></circle><circle cx="12.25" cy="12.9821" r="0.7321"></circle><circle cx="15.1786" cy="12.9821" r="0.7321"></circle><circle cx="16.6429" cy="12.9821" r="0.7321"></circle><circle cx="28.3571" cy="12.9821" r="0.7321"></circle><circle cx="29.8214" cy="12.9821" r="0.7321"></circle><circle cx="31.2857" cy="12.9821" r="0.7321"></circle><circle cx="32.75" cy="12.9821" r="0.7321"></circle><circle cx="34.2143" cy="12.9821" r="0.7321"></circle><circle cx="9.3214" cy="14.4464" r="0.7321"></circle><circle cx="10.7857" cy="14.4464" r="0.7321"></circle><circle cx="12.25" cy="14.4464" r="0.7321"></circle><circle cx="13.7143" cy="14.4464" r="0.7321"></circle><circle cx="15.1786" cy="14.4464" r="0.7321"></circle><circle cx="16.6429" cy="14.4464" r="0.7321"></circle><circle cx="18.1071" cy="14.4464" r="0.7321"></circle><circle cx="15.1786" cy="37.875" r="0.7321"></circle><circle cx="16.6429" cy="37.875" r="0.7321"></circle><circle cx="21.0357" cy="37.875" r="0.7321"></circle><circle cx="22.5" cy="37.875" r="0.7321"></circle><circle cx="26.8929" cy="14.4464" r="0.7321"></circle><circle cx="28.3571" cy="14.4464" r="0.7321"></circle><circle cx="26.8929" cy="37.875" r="0.7321"></circle><circle cx="28.3571" cy="37.875" r="0.7321"></circle><circle cx="32.75" cy="14.4464" r="0.7321"></circle><circle cx="34.2143" cy="14.4464" r="0.7321"></circle><circle cx="35.6786" cy="14.4464" r="0.7321"></circle><circle cx="10.7857" cy="15.9107" r="0.7321"></circle><circle cx="12.25" cy="15.9107" r="0.7321"></circle><circle cx="13.7143" cy="15.9107" r="0.7321"></circle><circle cx="15.1786" cy="15.9107" r="0.7321"></circle><circle cx="16.6429" cy="15.9107" r="0.7321"></circle><circle cx="18.1071" cy="15.9107" r="0.7321"></circle><circle cx="15.1786" cy="39.3393" r="0.7321"></circle><circle cx="21.0357" cy="39.3393" r="0.7321"></circle><circle cx="25.4286" cy="15.9107" r="0.7321"></circle><circle cx="26.8929" cy="15.9107" r="0.7321"></circle><circle cx="28.3571" cy="15.9107" r="0.7321"></circle><circle cx="29.8214" cy="15.9107" r="0.7321"></circle><circle cx="31.2857" cy="15.9107" r="0.7321"></circle><circle cx="26.8929" cy="39.3393" r="0.7321"></circle><circle cx="34.2143" cy="15.9107" r="0.7321"></circle><circle cx="35.6786" cy="15.9107" r="0.7321"></circle><circle cx="12.25" cy="17.375" r="0.7321"></circle><circle cx="13.7143" cy="17.375" r="0.7321"></circle><circle cx="15.1786" cy="17.375" r="0.7321"></circle><circle cx="16.6429" cy="17.375" r="0.7321"></circle><circle cx="18.1071" cy="17.375" r="0.7321"></circle><circle cx="15.1786" cy="40.8036" r="0.7321"></circle><circle cx="16.6429" cy="40.8036" r="0.7321"></circle><circle cx="21.0357" cy="40.8036" r="0.7321"></circle><circle cx="23.9643" cy="17.375" r="0.7321"></circle><circle cx="25.4286" cy="17.375" r="0.7321"></circle><circle cx="22.5" cy="40.8036" r="0.7321"></circle><circle cx="26.8929" cy="40.8036" r="0.7321"></circle><circle cx="29.8214" cy="17.375" r="0.7321"></circle><circle cx="31.2857" cy="17.375" r="0.7321"></circle><circle cx="32.75" cy="17.375" r="0.7321"></circle><circle cx="28.3571" cy="40.8036" r="0.7321"></circle><circle cx="35.6786" cy="17.375" r="0.7321"></circle><circle cx="10.7857" cy="18.8393" r="0.7321"></circle><circle cx="12.25" cy="18.8393" r="0.7321"></circle><circle cx="13.7143" cy="18.8393" r="0.7321"></circle><circle cx="15.1786" cy="18.8393" r="0.7321"></circle><circle cx="16.6429" cy="18.8393" r="0.7321"></circle><circle cx="18.1071" cy="18.8393" r="0.7321"></circle><circle cx="15.1786" cy="42.2679" r="0.7321"></circle><circle cx="21.0357" cy="42.2679" r="0.7321"></circle><circle cx="22.5" cy="18.8393" r="0.7321"></circle><circle cx="23.9643" cy="18.8393" r="0.7321"></circle><circle cx="25.4286" cy="18.8393" r="0.7321"></circle><circle cx="26.8929" cy="18.8393" r="0.7321"></circle><circle cx="28.3571" cy="18.8393" r="0.7321"></circle><circle cx="26.8929" cy="42.2679" r="0.7321"></circle><circle cx="31.2857" cy="18.8393" r="0.7321"></circle><circle cx="32.75" cy="18.8393" r="0.7321"></circle><circle cx="34.2143" cy="18.8393" r="0.7321"></circle><circle cx="9.3214" cy="20.3036" r="0.7321"></circle><circle cx="10.7857" cy="20.3036" r="0.7321"></circle><circle cx="12.25" cy="20.3036" r="0.7321"></circle><circle cx="13.7143" cy="20.3036" r="0.7321"></circle><circle cx="15.1786" cy="20.3036" r="0.7321"></circle><circle cx="16.6429" cy="20.3036" r="0.7321"></circle><circle cx="18.1071" cy="20.3036" r="0.7321"></circle><circle cx="19.5714" cy="20.3036" r="0.7321"></circle><circle cx="21.0357" cy="20.3036" r="0.7321"></circle><circle cx="22.5" cy="20.3036" r="0.7321"></circle><circle cx="23.9643" cy="20.3036" r="0.7321"></circle><circle cx="25.4286" cy="20.3036" r="0.7321"></circle><circle cx="26.8929" cy="20.3036" r="0.7321"></circle><circle cx="28.3571" cy="20.3036" r="0.7321"></circle><circle cx="29.8214" cy="20.3036" r="0.7321"></circle><circle cx="32.75" cy="20.3036" r="0.7321"></circle><circle cx="34.2143" cy="20.3036" r="0.7321"></circle><circle cx="9.3214" cy="21.7679" r="0.7321"></circle><circle cx="10.7857" cy="21.7679" r="0.7321"></circle><circle cx="12.25" cy="21.7679" r="0.7321"></circle><circle cx="13.7143" cy="21.7679" r="0.7321"></circle><circle cx="15.1786" cy="21.7679" r="0.7321"></circle><circle cx="16.6429" cy="21.7679" r="0.7321"></circle><circle cx="18.1071" cy="21.7679" r="0.7321"></circle><circle cx="19.5714" cy="21.7679" r="0.7321"></circle><circle cx="21.0357" cy="21.7679" r="0.7321"></circle><circle cx="22.5" cy="21.7679" r="0.7321"></circle><circle cx="26.8929" cy="21.7679" r="0.7321"></circle><circle cx="28.3571" cy="21.7679" r="0.7321"></circle><circle cx="29.8214" cy="21.7679" r="0.7321"></circle><circle cx="31.2857" cy="21.7679" r="0.7321"></circle><circle cx="34.2143" cy="21.7679" r="0.7321"></circle></g></mask></defs><rect width="45" height="45" fill="#ffffff" mask="url(#c)"></rect></svg>