<svg xmlns="http://www.w3.org/2000/svg" viewBox="0 0 45 45" width="45" height="45" shape-rendering="crispEdges" fill="#000000"><rect x="6.3929" y="2" width="32.2143" height="1.4643"></rect><rect x="6.3929" y="3.4643" width="1.4643" height="1.4643"></rect><rect x="10.7857" y="3.4643" width="2.9286" height="1.4643"></rect><rect x="16.6429" y="3.4643" width="2.9286" height="1.4643"></rect><rect x="25.4286" y="3.4643" width="4.3929" height="1.4643"></rect><rect x="37.1429" y="3.4643" width="1.4643" height="1.4643"></rect><rect x="6.3929" y="4.9286" width="1.4643" height="1.4643"></rect><rect x="10.7857" y="4.9286" width="2.9286" height="1.4643"></rect><rect x="16.6429" y="4.9286" width="1.4643" height="1.4643"></rect><rect x="26.8929" y="4.9286" width="1.4643" height="1.4643"></rect><rect x="31.2857" y="4.9286" width="2.9286" height="1.4643"></rect><rect x="37.1429" y="4.9286" width="1.4643" height="1.4643"></rect><rect x="6.3929" y="6.3929" width="1.4643" height="1.4643"></rect><rect x="10.7857" y="6.3929" width="2.9286" height="1.4643"></rect><rect x="16.6429" y="6.3929" width="1.4643" height="1.4643"></rect><rect x="21.0357" y="6.3929" width="2.9286" height="1.4643"></rect><rect x="26.8929" y="6.3929" width="1.4643" height="1.4643"></rect><rect x="31.2857" y="6.3929" width="2.9286" height="1.4643"></rect><rect x="37.1429" y="6.3929" width="1.4643" height="1.4643"></rect><rect x="6.3929" y="7.8571" width="1.4643" height="1.4643"></rect><rect x="10.7857" y="7.8571" width="2.9286" height="1.4643"></rect><rect x="16.6429" y="7.8571" width="1.4643" height="1.4643"></rect><rect x="21.0357" y="7.8571" width="2.9286" height="1.4643"></rect><rect x="26.8929" y="7.8571" width="1.4643" height="1.4643"></rect><rect x="31.2857" y="7.8571" width="1.4643" height="1.4643"></rect><rect x="37.1429" y="7.8571" width="1.4643" height="1.4643"></rect><rect x="6.3929" y="9.3214" width="1.4643" height="1.4643"></rect><rect x="10.7857" y="9.3214" width="2.9286" height="1.4643"></rect><rect x="16.6429" y="9.3214" width="1.4643" height="1.4643"></rect><rect x="21.0357" y="9.3214" width="7.3214" height="1.4643"></rect><rect x="37.1429" y="9.3214" width="1.4643" height="1.4643"></rect><rect x="6.3929" y="10.7857" width="1.4643" height="1.4643"></rect><rect x="12.25" y="10.7857" width="1.4643" height="1.4643"></rect><rect x="16.6429" y="10.7857" width="2.9286" height="1.4643"></rect><rect x="23.9643" y="10.7857" width="4.3929" height="1.4643"></rect><rect x="32.75" y="10.7857" width="1.4643" height="1.4643"></rect><rect x="37.1429" y="10.7857" width="1.4643" height="1.4643"></rect><rect x="6.3929" y="12.25" width="2.9286" height="1.4643"></rect><rect x="16.6429" y="12.25" width="4.3929" height="1.4643"></rect><rect x="25.4286" y="12.25" width="2.9286" height="1.4643"></rect><rect x="31.2857" y="12.25" width="2.9286" height="1.4643"></rect><rect x="37.1429" y="12.25" width="1.4643" height="1.4643"></rect><rect x="6.3929" y="13.7143" width="5.8571" height="1.4643"></rect><rect x="16.6429" y="13.7143" width="7.3214" height="1.4643"></rect><rect x="26.8929" y="13.7143" width="1.4643" height="1.4643"></rect><rect x="31.2857" y="13.7143" width="7.3214" height="1.4643"></rect><rect x="6.3929" y="15.1786" width="7.3214" height="1.4643"></rect><rect x="16.6429" y="15.1786" width="1.4643" height="1.4643"></rect><rect x="21.0357" y="15.1786" width="2.9286" height="1.4643"></rect><rect x="26.8929" y="15.1786" width="1.4643" height="1.4643"></rect><rect x="31.2857" y="15.1786" width="7.3214" height="1.4643"></rect><rect x="6.3929" y="16.6429" width="1.4643" height="1.4643"></rect><rect x="9.3214" y="16.6429" width="8.7857" height="1.4643"></rect><rect x="21.0357" y="16.6429" width="2.9286" height="1.4643"></rect><rect x="26.8929" y="16.6429" width="8.7857" height="1.4643"></rect><rect x="37.1429" y="16.6429" width="1.4643" height="1.4643"></rect><rect x="6.3929" y="18.1071" width="1.4643" height="1.4643"></rect><rect x="10.7857" y="18.1071" width="7.3214" height="1.4643"></rect><rect x="21.0357" y="18.1071" width="2.9286" height="1.4643"></rect><rect x="26.8929" y="18.1071" width="7.3214" height="1.4643"></rect><rect x="37.1429" y="18.1071" width="1.4643" height="1.4643"></rect><rect x="6.3929" y="19.5714" width="1.4643" height="1.4643"></rect><rect x="10.7857" y="19.5714" width="1.4643" height="1.4643"></rect><rect x="13.7143" y="19.5714" width="5.8571" height="1.4643"></rect><rect x="25.4286" y="19.5714" width="5.8571" height="1.4643"></rect><rect x="32.75" y="19.5714" width="1.4643" height="1.4643"></rect><rect x="37.1429" y="19.5714" width="1.4643" height="1.4643"></rect><rect x="6.3929" y="21.0357" width="1.4643" height="1.4643"></rect><rect x="10.7857" y="21.0357" width="1.4643" height="1.4643"></rect><rect x="15.1786" y="21.0357" width="5.8571" height="1.4643"></rect><rect x="23.9643" y="21.0357" width="5.8571" height="1.4643"></rect><rect x="32.75" y="21.0357" width="1.4643" height="1.4643"></rect><rect x="37.1429" y="21.0357" width="1.4643" height="1.4643"></rect><rect x="6.3929" y="22.5" width="1.4643" height="1.4643"></rect><rect x="10.7857" y="22.5" width="1.4643" height="1.4643"></rect><rect x="15.1786" y="22.5" width="1.4643" height="1.4643"></rect><rect x="18.1071" y="22.5" width="8.7857" height="1.4643"></rect><rect x="28.3571" y="22.5" width="1.4643" height="1.4643"></rect><rect x="32.75" y="22.5" width="1.4643" height="1.4643"></rect><rect x="37.1429" y="22.5" width="1.4643" height="1.4643"></rect><rect x="6.3929" y="23.9643" width="1.4643" height="1.4643"></rect><rect x="10.7857" y="23.9643" width="1.4643" height="1.4643"></rect><rect x="15.1786" y="23.9643" width="1.4643" height="1.4643"></rect><rect x="19.5714" y="23.9643" width="5.8571" height="1.4643"></rect><rect x="28.3571" y="23.9643" width="1.4643" height="1.4643"></rect><rect x="32.75" y="23.9643" width="1.4643" height="1.4643"></rect><rect x="37.1429" y="23.9643" width="1.4643" height="1.4643"></rect><rect x="6.3929" y="25.4286" width="1.4643" height="1.4643"></rect><rect x="10.7857" y="25.4286" width="1.4643" height="1.4643"></rect><rect x="15.1786" y="25.4286" width="1.4643" height="1.4643"></rect><rect x="19.5714" y="25.4286" width="1.4643" height="1.4643"></rect><rect x="23.9643" y="25.4286" width="1.4643" height="1.4643"></rect><rect x="28.3571" y="25.4286" width="1.4643" height="1.4643"></rect><rect x="32.75" y="25.4286" width="1.4643" height="1.4643"></rect><rect x="37.1429" y="25.4286" width="1.4643" height="1.4643"></rect><rect x="6.3929" y="26.8929" width="1.4643" height="1.4643"></rect><rect x="10.7857" y="26.8929" width="1.4643" height="1.4643"></rect><rect x="15.1786" y="26.8929" width="1.4643" height="1.4643"></rect><rect x="19.5714" y="26.8929" width="1.4643" height="1.4643"></rect><rect x="23.9643" y="26.8929" width="1.4643" height="1.4643"></rect><rect x="28.3571" y="26.8929" width="1.4643" height="1.4643"></rect><rect x="32.75" y="26.8929" width="1.4643" height="1.4643"></rect><rect x="37.1429" y="26.8929" width="1.4643" height="1.4643"></rect><rect x="6.3929" y="28.3571" width="2.9286" height="1.4643"></rect><rect x="10.7857" y="28.3571" width="1.4643" height="1.4643"></rect><rect x="15.1786" y="28.3571" width="1.4643" height="1.4643"></rect><rect x="19.5714" y="28.3571" width="1.4643" height="1.4643"></rect><rect x="23.9643" y="28.3571" width="1.4643" height="1.4643"></rect><rect x="28.3571" y="28.3571" width="1.4643" height="1.4643"></rect><rect x="32.75" y="28.3571" width="1.4643" height="1.4643"></rect><rect x="35.6786" y="28.3571" width="2.9286" height="1.4643"></rect><rect x="7.8571" y="29.8214" width="4.3929" height="1.4643"></rect><rect x="15.1786" y="29.8214" width="1.4643" height="1.4643"></rect><rect x="19.5714" y="29.8214" width="1.4643" height="1.4643"></rect><rect x="23.9643" y="29.8214" width="1.4643" height="1.4643"></rect><rect x="28.3571" y="29.8214" width="1.4643" height="1.4643"></rect><rect x="32.75" y="29.8214" width="4.3929" height="1.4643"></rect><rect x="9.3214" y="31.2857" width="2.9286" height="1.4643"></rect><rect x="15.1786" y="31.2857" width="1.4643" height="1.4643"></rect><rect x="19.5714" y="31.2857" width="1.4643" height="1.4643"></rect><rect x="23.9643" y="31.2857" width="1.4643" height="1.4643"></rect><rect x="28.3571" y="31.2857" width="1.4643" height="1.4643"></rect><rect x="32.75" y="31.2857" width="2.9286" height="1.4643"></rect><rect x="10.7857" y="32.75" width="2.9286" height="1.4643"></rect><rect x="15.1786" y="32.75" width="1.4643" height="1.4643"></rect><rect x="19.5714" y="32.75" width="1.4643" height="1.4643"></rect><rect x="23.9643" y="32.75" width="1.4643" height="1.4643"></rect><rect x="28.3571" y="32.75" width="1.4643" height="1.4643"></rect><rect x="31.2857" y="32.75" width="2.9286" height="1.4643"></rect><rect x="12.25" y="34.2143" width="4.3929" height="1.4643"></rect><rect x="19.5714" y="34.2143" width="1.4643" height="1.4643"></rect><rect x="23.9643" y="34.2143" width="1.4643" height="1.4643"></rect><rect x="28.3571" y="34.2143" width="4.3929" height="1.4643"></rect><rect x="13.7143" y="35.6786" width="2.9286" height="1.4643"></rect><rect x="19.5714" y="35.6786" width="1.4643" height="1.4643"></rect><rect x="23.9643" y="35.6786" width="1.4643" height="1.4643"></rect><rect x="28.3571" y="35.6786" width="2.9286" height="1.4643"></rect><rect x="15.1786" y="37.1429" width="2.9286" height="1.4643"></rect><rect x="19.5714" y="37.1429" width="1.4643" height="1.4643"></rect><rect x="23.9643" y="37.1429" width="1.4643" height="1.4643"></rect><rect x="26.8929" y="37.1429" width="2.9286" height="1.4643"></rect><rect x="16.6429" y="38.6071" width="4.3929" height="1.4643"></rect><rect x="23.9643" y="38.6071" width="4.3929" height="1.4643"></rect><rect x="18.1071" y="40.0714" width="2.9286" height="1.4643"></rect><rect x="23.9643" y="40.0714" width="2.9286" height="1.4643"></rect><rect x="19.5714" y="41.5357" width="5.8571" height="1.4643"></rect></svg>