<svg xmlns="http://www.w3.org/2000/svg" viewBox="0 0 45 45" width="45" height="45"><defs><mask id="c" maskUnits="userSpaceOnUse" x="0" y="0" width="45" height="45"><rect width="45" height="45" fill="#ffffff"></rect><g fill="#000000"><circle cx="20.3036" cy="2.7321" r="0.7321"></circle><circle cx="24.6964" cy="2.7321" r="0.7321"></circle><circle cx="21.7679" cy="4.1964" r="0.7321"></circle><circle cx="23.2321" cy="4.1964" r="0.7321"></circle><circle cx="21.7679" cy="5.6607" r="0.7321"></circle><circle cx="23.2321" cy="5.6607" r="0.7321"></circle><circle cx="20.3036" cy="7.125" r="0.7321"></circle><circle cx="24.6964" cy="7.125" r="0.7321"></circle><circle cx="10.0536" cy="10.0536" r="0.7321"></circle><circle cx="11.5179" cy="10.0536" r="0.7321"></circle><circle cx="12.9821" cy="10.0536" r="0.7321"></circle><circle cx="14.4464" cy="10.0536" r="0.7321"></circle><circle cx="15.9107" cy="10.0536" r="0.7321"></circle><circle cx="17.375" cy="10.0536" r="0.7321"></circle><circle cx="18.8393" cy="10.0536" r="0.7321"></circle><circle cx="20.3036" cy="10.0536" r="0.7321"></circle><circle cx="21.7679" cy="10.0536" r="0.7321"></circle><circle cx="23.2321" cy="10.0536" r="0.7321"></circle><circle cx="24.6964" cy="10.0536" r="0.7321"></circle><circle cx="26.1607" cy="10.0536" r="0.7321"></circle><circle cx="27.625" cy="10.0536" r="0.7321"></circle><circle cx="29.0893" cy="10.0536" r="0.7321"></circle><circle cx="30.5536" cy="10.0536" r="0.7321"></circle><circle cx="32.0179" cy="10.0536" r="0.7321"></circle><circle cx="33.4821" cy="10.0536" r="0.7321"></circle><circle cx="34.9464" cy="10.0536" r="0.7321"></circle><circle cx="8.5893" cy="11.5179" r="0.7321"></circle><circle cx="10.0536" cy="11.5179" r="0.7321"></circle><circle cx="11.5179" cy="11.5179" r="0.7321"></circle><circle cx="12.9821" cy="11.5179" r="0.7321"></circle><circle cx="14.4464" cy="11.5179" r="0.7321"></circle><circle cx="15.9107" cy="11.5179" r="0.7321"></circle><circle cx="17.375" cy="11.5179" r="0.7321"></circle><circle cx="20.3036" cy="11.5179" r="0.7321"></circle><circle cx="24.6964" cy="11.5179" r="0.7321"></circle><circle cx="27.625" cy="11.5179" r="0.7321"></circle><circle cx="29.0893" cy="11.5179" r="0.7321"></circle><circle cx="30.5536" cy="11.5179" r="0.7321"></circle><circle cx="32.0179" cy="11.5179" r="0.7321"></circle><circle cx="33.4821" cy="11.5179" r="0.7321"></circle><circle cx="34.9464" cy="11.5179" r="0.7321"></circle><circle cx="36.4107" cy="11.5179" r="0.7321"></circle><circle cx="8.5893" cy="12.9821" r="0.7321"></circle><circle cx="10.0536" cy="12.9821" r="0.7321"></circle><circle cx="11.5179" cy="12.9821" r="0.7321"></circle><circle cx="12.9821" cy="12.9821" r="0.7321"></circle><circle cx="14.4464" cy="12.9821" r="0.7321"></circle><circle cx="17.375" cy="12.9821" r="0.7321"></circle><circle cx="18.8393" cy="12.9821" r="0.7321"></circle><circle cx="26.1607" cy="12.9821" r="0.7321"></circle><circle cx="27.625" cy="12.9821" r="0.7321"></circle><circle cx="30.5536" cy="12.9821" r="0.7321"></circle><circle cx="32.0179" cy="12.9821" r="0.7321"></circle><circle cx="33.4821" cy="12.9821" r="0.7321"></circle><circle cx="34.9464" cy="12.9821" r="0.7321"></circle><circle cx="36.4107" cy="12.9821" r="0.7321"></circle><circle cx="8.5893" cy="14.4464" r="0.7321"></circle><circle cx="10.0536" cy="14.4464" r="0.7321"></circle><circle cx="12.9821" cy="14.4464" r="0.7321"></circle><circle cx="14.4464" cy="14.4464" r="0.7321"></circle><circle cx="15.9107" cy="14.4464" r="0.7321"></circle><circle cx="18.8393" cy="14.4464" r="0.7321"></circle><circle cx="26.1607" cy="14.4464" r="0.7321"></circle><circle cx="29.0893" cy="14.4464" r="0.7321"></circle><circle cx="30.5536" cy="14.4464" r="0.7321"></circle><circle cx="32.0179" cy="14.4464" r="0.7321"></circle><circle cx="34.9464" cy="14.4464" r="0.7321"></circle><circle cx="36.4107" cy="14.4464" r="0.7321"></circle><circle cx="8.5893" cy="15.9107" r="0.7321"></circle><circle cx="14.4464" cy="15.9107" r="0.7321"></circle><circle cx="15.9107" cy="15.9107" r="0.7321"></circle><circle cx="17.375" cy="15.9107" r="0.7321"></circle><circle cx="20.3036" cy="15.9107" r="0.7321"></circle><circle cx="24.6964" cy="15.9107" r="0.7321"></circle><circle cx="27.625" cy="15.9107" r="0.7321"></circle><circle cx="29.0893" cy="15.9107" r="0.7321"></circle><circle cx="30.5536" cy="15.9107" r="0.7321"></circle><circle cx="36.4107" cy="15.9107" r="0.7321"></circle><circle cx="8.5893" cy="17.375" r="0.7321"></circle><circle cx="10.0536" cy="17.375" r="0.7321"></circle><circle cx="12.9821" cy="17.375" r="0.7321"></circle><circle cx="14.4464" cy="17.375" r="0.7321"></circle><circle cx="15.9107" cy="17.375" r="0.7321"></circle><circle cx="17.375" cy="17.375" r="0.7321"></circle><circle cx="18.8393" cy="17.375" r="0.7321"></circle><circle cx="21.7679" cy="17.375" r="0.7321"></circle><circle cx="23.2321" cy="17.375" r="0.7321"></circle><circle cx="26.1607" cy="17.375" r="0.7321"></circle><circle cx="27.625" cy="17.375" r="0.7321"></circle><circle cx="29.0893" cy="17.375" r="0.7321"></circle><circle cx="30.5536" cy="17.375" r="0.7321"></circle><circle cx="32.0179" cy="17.375" r="0.7321"></circle><circle cx="34.9464" cy="17.375" r="0.7321"></circle><circle cx="36.4107" cy="17.375" r="0.7321"></circle><circle cx="8.5893" cy="18.8393" r="0.7321"></circle><circle cx="10.0536" cy="18.8393" r="0.7321"></circle><circle cx="12.9821" cy="18.8393" r="0.7321"></circle><circle cx="14.4464" cy="18.8393" r="0.7321"></circle><circle cx="20.3036" cy="18.8393" r="0.7321"></circle><circle cx="24.6964" cy="18.8393" r="0.7321"></circle><circle cx="30.5536" cy="18.8393" r="0.7321"></circle><circle cx="32.0179" cy="18.8393" r="0.7321"></circle><circle cx="34.9464" cy="18.8393" r="0.7321"></circle><circle cx="36.4107" cy="18.8393" r="0.7321"></circle><circle cx="8.5893" cy="20.3036" r="0.7321"></circle><circle cx="10.0536" cy="20.3036" r="0.7321"></circle><circle cx="12.9821" cy="20.3036" r="0.7321"></circle><circle cx="14.4464" cy="20.3036" r="0.7321"></circle><circle cx="17.375" cy="20.3036" r="0.7321"></circle><circle cx="18.8393" cy="20.3036" r="0.7321"></circle><circle cx="20.3036" cy="20.3036" r="0.7321"></circle><circle cx="21.7679" cy="20.3036" r="0.7321"></circle><circle cx="23.2321" cy="20.3036" r="0.7321"></circle><circle cx="24.6964" cy="20.3036" r="0.7321"></circle><circle cx="26.1607" cy="20.3036" r="0.7321"></circle><circle cx="27.625" cy="20.3036" r="0.7321"></circle><circle cx="30.5536" cy="20.3036" r="0.7321"></circle><circle cx="32.0179" cy="20.3036" r="0.7321"></circle><circle cx="34.9464" cy="20.3036" r="0.7321"></circle><circle cx="36.4107" cy="20.3036" r="0.7321"></circle><circle cx="8.5893" cy="21.7679" r="0.7321"></circle><circle cx="10.0536" cy="21.7679" r="0.7321"></circle><circle cx="12.9821" cy="21.7679" r="0.7321"></circle><circle cx="14.4464" cy="21.7679" r="0.7321"></circle><circle cx="17.375" cy="21.7679" r="0.7321"></circle><circle cx="20.3036" cy="21.7679" r="0.7321"></circle><circle cx="21.7679" cy="21.7679" r="0.7321"></circle><circle cx="23.2321" cy="21.7679" r="0.7321"></circle><circle cx="24.6964" cy="21.7679" r="0.7321"></circle><circle cx="27.625" cy="21.7679" r="0.7321"></circle><circle cx="30.5536" cy="21.7679" r="0.7321"></circle><circle cx="32.0179" cy="21.7679" r="0.7321"></circle><circle cx="34.9464" cy="21.7679" r="0.7321"></circle><circle cx="36.4107" cy="21.7679" r="0.7321"></circle><circle cx="8.5893" cy="23.2321" r="0.7321"></circle><circle cx="10.0536" cy="23.2321" r="0.7321"></circle><circle cx="12.9821" cy="23.2321" r="0.7321"></circle><circle cx="14.4464" cy="23.2321" r="0.7321"></circle><circle cx="17.375" cy="23.2321" r="0.7321"></circle><circle cx="18.8393" cy="23.2321" r="0.7321"></circle><circle cx="20.3036" cy="23.2321" r="0.7321"></circle><circle cx="24.6964" cy="23.2321" r="0.7321"></circle><circle cx="26.1607" cy="23.2321" r="0.7321"></circle><circle cx="27.625" cy="23.2321" r="0.7321"></circle><circle cx="30.5536" cy="23.2321" r="0.7321"></circle><circle cx="32.0179" cy="23.2321" r="0.7321"></circle><circle cx="34.9464" cy="23.2321" r="0.7321"></circle><circle cx="36.4107" cy="23.2321" r="0.7321"></circle><circle cx="8.5893" cy="24.6964" r="0.7321"></circle><circle cx="10.0536" cy="24.6964" r="0.7321"></circle><circle cx="12.9821" cy="24.6964" r="0.7321"></circle><circle cx="14.4464" cy="24.6964" r="0.7321"></circle><circle cx="17.375" cy="24.6964" r="0.7321"></circle><circle cx="18.8393" cy="24.6964" r="0.7321"></circle><circle cx="21.7679" cy="24.6964" r="0.7321"></circle><circle cx="23.2321" cy="24.6964" r="0.7321"></circle><circle cx="26.1607" cy="24.6964" r="0.7321"></circle><circle cx="27.625" cy="24.6964" r="0.7321"></circle><circle cx="30.5536" cy="24.6964" r="0.7321"></circle><circle cx="32.0179" cy="24.6964" r="0.7321"></circle><circle cx="34.9464" cy="24.6964" r="0.7321"></circle><circle cx="36.4107" cy="24.6964" r="0.7321"></circle><circle cx="8.5893" cy="26.1607" r="0.7321"></circle><circle cx="10.0536" cy="26.1607" r="0.7321"></circle><circle cx="12.9821" cy="26.1607" r="0.7321"></circle><circle cx="14.4464" cy="26.1607" r="0.7321"></circle><circle cx="17.375" cy="26.1607" r="0.7321"></circle><circle cx="18.8393" cy="26.1607" r="0.7321"></circle><circle cx="21.7679" cy="26.1607" r="0.7321"></circle><circle cx="23.2321" cy="26.1607" r="0.7321"></circle><circle cx="26.1607" cy="26.1607" r="0.7321"></circle><circle cx="27.625" cy="26.1607" r="0.7321"></circle><circle cx="30.5536" cy="26.1607" r="0.7321"></circle><circle cx="32.0179" cy="26.1607" r="0.7321"></circle><circle cx="34.9464" cy="26.1607" r="0.7321"></circle><circle cx="36.4107" cy="26.1607" r="0.7321"></circle><circle cx="8.5893" cy="27.625" r="0.7321"></circle><circle cx="10.0536" cy="27.625" r="0.7321"></circle><circle cx="12.9821" cy="27.625" r="0.7321"></circle><circle cx="14.4464" cy="27.625" r="0.7321"></circle><circle cx="17.375" cy="27.625" r="0.7321"></circle><circle cx="18.8393" cy="27.625" r="0.7321"></circle><circle cx="20.3036" cy="27.625" r="0.7321"></circle><circle cx="24.6964" cy="27.625" r="0.7321"></circle><circle cx="26.1607" cy="27.625" r="0.7321"></circle><circle cx="27.625" cy="27.625" r="0.7321"></circle><circle cx="30.5536" cy="27.625" r="0.7321"></circle><circle cx="32.0179" cy="27.625" r="0.7321"></circle><circle cx="34.9464" cy="27.625" r="0.7321"></circle><circle cx="36.4107" cy="27.625" r="0.7321"></circle><circle cx="8.5893" cy="29.0893" r="0.7321"></circle><circle cx="10.0536" cy="29.0893" r="0.7321"></circle><circle cx="12.9821" cy="29.0893" r="0.7321"></circle><circle cx="14.4464" cy="29.0893" r="0.7321"></circle><circle cx="17.375" cy="29.0893" r="0.7321"></circle><circle cx="18.8393" cy="29.0893" r="0.7321"></circle><circle cx="20.3036" cy="29.0893" r="0.7321"></circle><circle cx="21.7679" cy="29.0893" r="0.7321"></circle><circle cx="23.2321" cy="29.0893" r="0.7321"></circle><circle cx="24.6964" cy="29.0893" r="0.7321"></circle><circle cx="26.1607" cy="29.0893" r="0.7321"></circle><circle cx="27.625" cy="29.0893" r="0.7321"></circle><circle cx="30.5536" cy="29.0893" r="0.7321"></circle><circle cx="32.0179" cy="29.0893" r="0.7321"></circle><circle cx="34.9464" cy="29.0893" r="0.7321"></circle><circle cx="36.4107" cy="29.0893" r="0.7321"></circle><circle cx="8.5893" cy="30.5536" r="0.7321"></circle><circle cx="14.4464" cy="30.5536" r="0.7321"></circle><circle cx="15.9107" cy="30.5536" r="0.7321"></circle><circle cx="20.3036" cy="30.5536" r="0.7321"></circle><circle cx="21.7679" cy="30.5536" r="0.7321"></circle><circle cx="23.2321" cy="30.5536" r="0.7321"></circle><circle cx="24.6964" cy="30.5536" r="0.7321"></circle><circle cx="29.0893" cy="30.5536" r="0.7321"></circle><circle cx="30.5536" cy="30.5536" r="0.7321"></circle><circle cx="36.4107" cy="30.5536" r="0.7321"></circle><circle cx="8.5893" cy="32.0179" r="0.7321"></circle><circle cx="10.0536" cy="32.0179" r="0.7321"></circle><circle cx="11.5179" cy="32.0179" r="0.7321"></circle><circle cx="12.9821" cy="32.0179" r="0.7321"></circle><circle cx="14.4464" cy="32.0179" r="0.7321"></circle><circle cx="15.9107" cy="32.0179" r="0.7321"></circle><circle cx="17.375" cy="32.0179" r="0.7321"></circle><circle cx="18.8393" cy="32.0179" r="0.7321"></circle><circle cx="26.1607" cy="32.0179" r="0.7321"></circle><circle cx="27.625" cy="32.0179" r="0.7321"></circle><circle cx="29.0893" cy="32.0179" r="0.7321"></circle><circle cx="30.5536" cy="32.0179" r="0.7321"></circle><circle cx="32.0179" cy="32.0179" r="0.7321"></circle><circle cx="33.4821" cy="32.0179" r="0.7321"></circle><circle cx="34.9464" cy="32.0179" r="0.7321"></circle><circle cx="36.4107" cy="32.0179" r="0.7321"></circle><circle cx="8.5893" cy="33.4821" r="0.7321"></circle><circle cx="14.4464" cy="33.4821" r="0.7321"></circle><circle cx="15.9107" cy="33.4821" r="0.7321"></circle><circle cx="17.375" cy="33.4821" r="0.7321"></circle><circle cx="18.8393" cy="33.4821" r="0.7321"></circle><circle cx="20.3036" cy="33.4821" r="0.7321"></circle><circle cx="21.7679" cy="33.4821" r="0.7321"></circle><circle cx="23.2321" cy="33.4821" r="0.7321"></circle><circle cx="24.6964" cy="33.4821" r="0.7321"></circle><circle cx="26.1607" cy="33.4821" r="0.7321"></circle><circle cx="27.625" cy="33.4821" r="0.7321"></circle><circle cx="29.0893" cy="33.4821" r="0.7321"></circle><circle cx="30.5536" cy="33.4821" r="0.7321"></circle><circle cx="36.4107" cy="33.4821" r="0.7321"></circle><circle cx="8.5893" cy="34.9464" r="0.7321"></circle><circle cx="10.0536" cy="34.9464" r="0.7321"></circle><circle cx="11.5179" cy="34.9464" r="0.7321"></circle><circle cx="12.9821" cy="34.9464" r="0.7321"></circle><circle cx="14.4464" cy="34.9464" r="0.7321"></circle><circle cx="15.9107" cy="34.9464" r="0.7321"></circle><circle cx="17.375" cy="34.9464" r="0.7321"></circle><circle cx="18.8393" cy="34.9464" r="0.7321"></circle><circle cx="20.3036" cy="34.9464" r="0.7321"></circle><circle cx="24.6964" cy="34.9464" r="0.7321"></circle><circle cx="26.1607" cy="34.9464" r="0.7321"></circle><circle cx="27.625" cy="34.9464" r="0.7321"></circle><circle cx="29.0893" cy="34.9464" r="0.7321"></circle><circle cx="30.5536" cy="34.9464" r="0.7321"></circle><circle cx="32.0179" cy="34.9464" r="0.7321"></circle><circle cx="33.4821" cy="34.9464" r="0.7321"></circle><circle cx="34.9464" cy="34.9464" r="0.7321"></circle><circle cx="36.4107" cy="34.9464" r="0.7321"></circle><circle cx="10.0536" cy="36.4107" r="0.7321"></circle><circle cx="11.5179" cy="36.4107" r="0.7321"></circle><circle cx="12.9821" cy="36.4107" r="0.7321"></circle><circle cx="14.4464" cy="36.4107" r="0.7321"></circle><circle cx="15.9107" cy="36.4107" r="0.7321"></circle><circle cx="17.375" cy="36.4107" r="0.7321"></circle><circle cx="18.8393" cy="36.4107" r="0.7321"></circle><circle cx="21.7679" cy="36.4107" r="0.7321"></circle><circle cx="23.2321" cy="36.4107" r="0.7321"></circle><circle cx="26.1607" cy="36.4107" r="0.7321"></circle><circle cx="27.625" cy="36.4107" r="0.7321"></circle><circle cx="29.0893" cy="36.4107" r="0.7321"></circle><circle cx="30.5536" cy="36.4107" r="0.7321"></circle><circle cx="32.0179" cy="36.4107" r="0.7321"></circle><circle cx="33.4821" cy="36.4107" r="0.7321"></circle><circle cx="34.9464" cy="36.4107" r="0.7321"></circle><circle cx="10.0536" cy="37.875" r="0.7321"></circle><circle cx="11.5179" cy="37.875" r="0.7321"></circle><circle cx="12.9821" cy="37.875" r="0.7321"></circle><circle cx="14.4464" cy="37.875" r="0.7321"></circle><circle cx="15.9107" cy="37.875" r="0.7321"></circle><circle cx="17.375" cy="37.875" r="0.7321"></circle><circle cx="18.8393" cy="37.875" r="0.7321"></circle><circle cx="21.7679" cy="37.875" r="0.7321"></circle><circle cx="23.2321" cy="37.875" r="0.7321"></circle><circle cx="26.1607" cy="37.875" r="0.7321"></circle><circle cx="27.625" cy="37.875" r="0.7321"></circle><circle cx="29.0893" cy="37.875" r="0.7321"></circle><circle cx="30.5536" cy="37.875" r="0.7321"></circle><circle cx="32.0179" cy="37.875" r="0.7321"></circle><circle cx="33.4821" cy="37.875" r="0.7321"></circle><circle cx="34.9464" cy="37.875" r="0.7321"></circle><circle cx="12.9821" cy="39.3393" r="0.7321"></circle><circle cx="14.4464" cy="39.3393" r="0.7321"></circle><circle cx="15.9107" cy="39.3393" r="0.7321"></circle><circle cx="17.375" cy="39.3393" r="0.7321"></circle><circle cx="18.8393" cy="39.3393" r="0.7321"></circle><circle cx="20.3036" cy="39.3393" r="0.7321"></circle><circle cx="24.6964" cy="39.3393" r="0.7321"></circle><circle cx="26.1607" cy="39.3393" r="0.7321"></circle><circle cx="27.625" cy="39.3393" r="0.7321"></circle><circle cx="29.0893" cy="39.3393" r="0.7321"></circle><circle cx="30.5536" cy="39.3393" r="0.7321"></circle><circle cx="32.0179" cy="39.3393" r="0.7321"></circle><circle cx="17.375" cy="40.8036" r="0.7321"></circle><circle cx="18.8393" cy="40.8036" r="0.7321"></circle><circle cx="20.3036" cy="40.8036" r="0.7321"></circle><circle cx="21.7679" cy="40.8036" r="0.7321"></circle><circle cx="23.2321" cy="40.8036" r="0.7321"></circle><circle cx="24.6964" cy="40.8036" r="0.7321"></circle><circle cx="26.1607" cy="40.8036" r="0.7321"></circle><circle cx="27.625" cy="40.8036" r="0.7321"></circle><circle cx="21.7679" cy="42.2679" r="0.7321"></circle><circle cx="23.2321" cy="42.2679" r="0.7321"></circle></g></mask></defs><rect width="45" height="45" fill="#000000" mask="url(#c)"></rect></svg>