<svg xmlns="http://www.w3.org/2000/svg" viewBox="0 0 32 32" shape-rendering="crispEdges" fill="#ffffff"><rect x="12" y="2" width="8" height="1"></rect><rect x="10" y="3" width="12" height="1"></rect><rect x="8" y="4" width="4" height="1"></rect><rect x="20" y="4" width="4" height="1"></rect><rect x="7" y="5" width="3" height="1"></rect><rect x="14" y="5" width="4" height="1"></rect><rect x="22" y="5" width="3" height="1"></rect><rect x="6" y="6" width="2" height="1"></rect><rect x="12" y="6" width="8" height="1"></rect><rect x="24" y="6" width="2" height="1"></rect><rect x="5" y="7" width="2" height="1"></rect><rect x="11" y="7" width="10" height="1"></rect><rect x="25" y="7" width="2" height="1"></rect><rect x="4" y="8" width="2" height="1"></rect><rect x="11" y="8" width="10" height="1"></rect><rect x="26" y="8" width="2" height="1"></rect><rect x="4" y="9" width="2" height="1"></rect><rect x="8" y="9" width="2" height="1"></rect><rect x="14" y="9" width="4" height="1"></rect><rect x="22" y="9" width="2" height="1"></rect><rect x="26" y="9" width="2" height="1"></rect><rect x="3" y="10" width="2" height="1"></rect><rect x="7" y="10" width="3" height="1"></rect><rect x="21" y="10" width="4" height="1"></rect><rect x="27" y="10" width="2" height="1"></rect><rect x="3" y="11" width="2" height="1"></rect><rect x="7" y="11" width="2" height="1"></rect><rect x="10" y="11" width="10" height="1"></rect><rect x="22" y="11" width="3" height="1"></rect><rect x="27" y="11" width="2" height="1"></rect><rect x="2" y="12" width="3" height="1"></rect><rect x="6" y="12" width="2" height="1"></rect><rect x="9" y="12" width="13" height="1"></rect><rect x="23" y="12" width="3" height="1"></rect><rect x="28" y="12" width="2" height="1"></rect><rect x="2" y="13" width="2" height="1"></rect><rect x="6" y="13" width="2" height="1"></rect><rect x="9" y="13" width="13" height="1"></rect><rect x="23" y="13" width="3" height="1"></rect><rect x="28" y="13" width="2" height="1"></rect><rect x="2" y="14" width="2" height="1"></rect><rect x="6" y="14" width="2" height="1"></rect><rect x="9" y="14" width="13" height="1"></rect><rect x="23" y="14" width="3" height="1"></rect><rect x="28" y="14" width="2" height="1"></rect><rect x="2" y="15" width="2" height="1"></rect><rect x="5" y="15" width="4" height="1"></rect><rect x="11" y="15" width="12" height="1"></rect><rect x="24" y="15" width="3" height="1"></rect><rect x="28" y="15" width="2" height="1"></rect><rect x="2" y="16" width="2" height="1"></rect><rect x="5" y="16" width="4" height="1"></rect><rect x="11" y="16" width="12" height="1"></rect><rect x="24" y="16" width="3" height="1"></rect><rect x="28" y="16" width="2" height="1"></rect><rect x="2" y="17" width="2" height="1"></rect><rect x="6" y="17" width="2" height="1"></rect><rect x="11" y="17" width="11" height="1"></rect><rect x="23" y="17" width="3" height="1"></rect><rect x="28" y="17" width="2" height="1"></rect><rect x="2" y="18" width="2" height="1"></rect><rect x="13" y="18" width="10" height="1"></rect><rect x="28" y="18" width="2" height="1"></rect><rect x="2" y="19" width="2" height="1"></rect><rect x="14" y="19" width="10" height="1"></rect><rect x="28" y="19" width="2" height="1"></rect><rect x="3" y="20" width="2" height="1"></rect><rect x="8" y="20" width="2" height="1"></rect><rect x="15" y="20" width="7" height="1"></rect><rect x="27" y="20" width="2" height="1"></rect><rect x="3" y="21" width="2" height="1"></rect><rect x="7" y="21" width="5" height="1"></rect><rect x="16" y="21" width="5" height="1"></rect><rect x="22" y="21" width="3" height="1"></rect><rect x="27" y="21" width="2" height="1"></rect><rect x="4" y="22" width="2" height="1"></rect><rect x="7" y="22" width="6" height="1"></rect><rect x="18" y="22" width="2" height="1"></rect><rect x="21" y="22" width="4" height="1"></rect><rect x="26" y="22" width="2" height="1"></rect><rect x="4" y="23" width="2" height="1"></rect><rect x="8" y="23" width="5" height="1"></rect><rect x="17" y="23" width="2" height="1"></rect><rect x="20" y="23" width="4" height="1"></rect><rect x="26" y="23" width="2" height="1"></rect><rect x="5" y="24" width="2" height="1"></rect><rect x="9" y="24" width="5" height="1"></rect><rect x="19" y="24" width="4" height="1"></rect><rect x="25" y="24" width="2" height="1"></rect><rect x="6" y="25" width="2" height="1"></rect><rect x="11" y="25" width="3" height="1"></rect><rect x="18" y="25" width="3" height="1"></rect><rect x="24" y="25" width="2" height="1"></rect><rect x="7" y="26" width="3" height="1"></rect><rect x="22" y="26" width="3" height="1"></rect><rect x="8" y="27" width="5" height="1"></rect><rect x="19" y="27" width="5" height="1"></rect><rect x="10" y="28" width="12" height="1"></rect><rect x="12" y="29" width="8" height="1"></rect></svg>