<svg xmlns="http://www.w3.org/2000/svg" viewBox="0 0 32 32" shape-rendering="crispEdges" fill="#ffffff"><rect x="12" y="2" width="1" height="1"></rect><rect x="14" y="2" width="1" height="1"></rect><rect x="17" y="2" width="1" height="1"></rect><rect x="19" y="2" width="1" height="1"></rect><rect x="13" y="3" width="1" height="1"></rect><rect x="18" y="3" width="1" height="1"></rect><rect x="12" y="4" width="1" height="1"></rect><rect x="14" y="4" width="1" height="1"></rect><rect x="17" y="4" width="1" height="1"></rect><rect x="19" y="4" width="1" height="1"></rect><rect x="10" y="6" width="1" height="1"></rect><rect x="10" y="7" width="2" height="1"></rect><rect x="13" y="7" width="1" height="1"></rect><rect x="8" y="8" width="6" height="1"></rect><rect x="9" y="9" width="1" height="1"></rect><rect x="11" y="9" width="2" height="1"></rect><rect x="20" y="9" width="5" height="1"></rect><rect x="7" y="10" width="7" height="1"></rect><rect x="19" y="10" width="2" height="1"></rect><rect x="23" y="10" width="3" height="1"></rect><rect x="8" y="11" width="6" height="1"></rect><rect x="18" y="11" width="5" height="1"></rect><rect x="24" y="11" width="2" height="1"></rect><rect x="9" y="12" width="5" height="1"></rect><rect x="17" y="12" width="2" height="1"></rect><rect x="21" y="12" width="3" height="1"></rect><rect x="25" y="12" width="1" height="1"></rect><rect x="8" y="13" width="6" height="1"></rect><rect x="16" y="13" width="5" height="1"></rect><rect x="22" y="13" width="3" height="1"></rect><rect x="7" y="14" width="15" height="1"></rect><rect x="23" y="14" width="2" height="1"></rect><rect x="7" y="15" width="10" height="1"></rect><rect x="19" y="15" width="4" height="1"></rect><rect x="24" y="15" width="1" height="1"></rect><rect x="7" y="16" width="12" height="1"></rect><rect x="20" y="16" width="3" height="1"></rect><rect x="24" y="16" width="1" height="1"></rect><rect x="8" y="17" width="12" height="1"></rect><rect x="21" y="17" width="2" height="1"></rect><rect x="9" y="18" width="12" height="1"></rect><rect x="22" y="18" width="1" height="1"></rect><rect x="10" y="19" width="11" height="1"></rect><rect x="22" y="19" width="1" height="1"></rect><rect x="11" y="20" width="10" height="1"></rect><rect x="12" y="21" width="3" height="1"></rect><rect x="18" y="21" width="3" height="1"></rect><rect x="13" y="22" width="1" height="1"></rect><rect x="19" y="22" width="1" height="1"></rect><rect x="13" y="23" width="1" height="1"></rect><rect x="19" y="23" width="1" height="1"></rect><rect x="11" y="24" width="3" height="1"></rect><rect x="17" y="24" width="3" height="1"></rect><rect x="11" y="26" width="2" height="1"></rect><rect x="15" y="26" width="2" height="1"></rect><rect x="19" y="26" width="2" height="1"></rect><rect x="11" y="27" width="1" height="1"></rect><rect x="15" y="27" width="1" height="1"></rect><rect x="19" y="27" width="1" height="1"></rect><rect x="11" y="28" width="2" height="1"></rect><rect x="15" y="28" width="2" height="1"></rect><rect x="19" y="28" width="2" height="1"></rect><rect x="11" y="29" width="1" height="1"></rect><rect x="15" y="29" width="1" height="1"></rect><rect x="19" y="29" width="1" height="1"></rect></svg>