<svg xmlns="http://www.w3.org/2000/svg" viewBox="0 0 24 32" shape-rendering="crispEdges" fill="#ffffff"><rect x="13" y="0" width="1" height="1"/><rect x="14" y="0" width="1" height="1"/><rect x="15" y="0" width="1" height="1"/><rect x="16" y="0" width="1" height="1"/><rect x="17" y="0" width="1" height="1"/><rect x="18" y="0" width="1" height="1"/><rect x="19" y="0" width="1" height="1"/><rect x="20" y="0" width="1" height="1"/><rect x="21" y="0" width="1" height="1"/><rect x="22" y="0" width="1" height="1"/><rect x="23" y="0" width="1" height="1"/><rect x="13" y="1" width="1" height="1"/><rect x="16" y="1" width="1" height="1"/><rect x="23" y="1" width="1" height="1"/><rect x="13" y="2" width="1" height="1"/><rect x="16" y="2" width="1" height="1"/><rect x="23" y="2" width="1" height="1"/><rect x="13" y="3" width="1" height="1"/><rect x="16" y="3" width="1" height="1"/><rect x="23" y="3" width="1" height="1"/><rect x="13" y="4" width="1" height="1"/><rect x="16" y="4" width="1" height="1"/><rect x="23" y="4" width="1" height="1"/><rect x="13" y="5" width="1" height="1"/><rect x="16" y="5" width="1" height="1"/><rect x="20" y="5" width="1" height="1"/><rect x="21" y="5" width="1" height="1"/><rect x="22" y="5" width="1" height="1"/><rect x="23" y="5" width="1" height="1"/><rect x="13" y="6" width="1" height="1"/><rect x="16" y="6" width="1" height="1"/><rect x="23" y="6" width="1" height="1"/><rect x="11" y="7" width="1" height="1"/><rect x="12" y="7" width="1" height="1"/><rect x="15" y="7" width="1" height="1"/><rect x="18" y="7" width="1" height="1"/><rect x="22" y="7" width="1" height="1"/><rect x="10" y="8" width="1" height="1"/><rect x="14" y="8" width="1" height="1"/><rect x="17" y="8" width="1" height="1"/><rect x="21" y="8" width="1" height="1"/><rect x="9" y="9" width="1" height="1"/><rect x="13" y="9" width="1" height="1"/><rect x="16" y="9" width="1" height="1"/><rect x="20" y="9" width="1" height="1"/><rect x="7" y="10" width="1" height="1"/><rect x="8" y="10" width="1" height="1"/><rect x="12" y="10" width="1" height="1"/><rect x="15" y="10" width="1" height="1"/><rect x="19" y="10" width="1" height="1"/><rect x="5" y="11" width="1" height="1"/><rect x="6" y="11" width="1" height="1"/><rect x="11" y="11" width="1" height="1"/><rect x="14" y="11" width="1" height="1"/><rect x="17" y="11" width="1" height="1"/><rect x="4" y="12" width="1" height="1"/><rect x="5" y="12" width="1" height="1"/><rect x="13" y="12" width="1" height="1"/><rect x="14" y="12" width="1" height="1"/><rect x="17" y="12" width="1" height="1"/><rect x="18" y="12" width="1" height="1"/><rect x="3" y="13" width="1" height="1"/><rect x="8" y="13" width="1" height="1"/><rect x="9" y="13" width="1" height="1"/><rect x="12" y="13" width="1" height="1"/><rect x="13" y="13" width="1" height="1"/><rect x="18" y="13" width="1" height="1"/><rect x="19" y="13" width="1" height="1"/><rect x="2" y="14" width="1" height="1"/><rect x="6" y="14" width="1" height="1"/><rect x="7" y="14" width="1" height="1"/><rect x="10" y="14" width="1" height="1"/><rect x="11" y="14" width="1" height="1"/><rect x="15" y="14" width="1" height="1"/><rect x="16" y="14" width="1" height="1"/><rect x="19" y="14" width="1" height="1"/><rect x="20" y="14" width="1" height="1"/><rect x="2" y="15" width="1" height="1"/><rect x="5" y="15" width="1" height="1"/><rect x="8" y="15" width="1" height="1"/><rect x="14" y="15" width="1" height="1"/><rect x="17" y="15" width="1" height="1"/><rect x="19" y="15" width="1" height="1"/><rect x="20" y="15" width="1" height="1"/><rect x="1" y="16" width="1" height="1"/><rect x="3" y="16" width="1" height="1"/><rect x="4" y="16" width="1" height="1"/><rect x="7" y="16" width="1" height="1"/><rect x="8" y="16" width="1" height="1"/><rect x="14" y="16" width="1" height="1"/><rect x="15" y="16" width="1" height="1"/><rect x="18" y="16" width="1" height="1"/><rect x="21" y="16" width="1" height="1"/><rect x="1" y="17" width="1" height="1"/><rect x="3" y="17" width="1" height="1"/><rect x="4" y="17" width="1" height="1"/><rect x="6" y="17" width="1" height="1"/><rect x="7" y="17" width="1" height="1"/><rect x="8" y="17" width="1" height="1"/><rect x="14" y="17" width="1" height="1"/><rect x="15" y="17" width="1" height="1"/><rect x="16" y="17" width="1" height="1"/><rect x="18" y="17" width="1" height="1"/><rect x="21" y="17" width="1" height="1"/><rect x="0" y="18" width="1" height="1"/><rect x="2" y="18" width="1" height="1"/><rect x="3" y="18" width="1" height="1"/><rect x="11" y="18" width="1" height="1"/><rect x="19" y="18" width="1" height="1"/><rect x="22" y="18" width="1" height="1"/><rect x="0" y="19" width="1" height="1"/><rect x="2" y="19" width="1" height="1"/><rect x="10" y="19" width="1" height="1"/><rect x="11" y="19" width="1" height="1"/><rect x="12" y="19" width="1" height="1"/><rect x="19" y="19" width="1" height="1"/><rect x="20" y="19" width="1" height="1"/><rect x="22" y="19" width="1" height="1"/><rect x="0" y="20" width="1" height="1"/><rect x="2" y="20" width="1" height="1"/><rect x="5" y="20" width="1" height="1"/><rect x="9" y="20" width="1" height="1"/><rect x="10" y="20" width="1" height="1"/><rect x="11" y="20" width="1" height="1"/><rect x="12" y="20" width="1" height="1"/><rect x="13" y="20" width="1" height="1"/><rect x="17" y="20" width="1" height="1"/><rect x="19" y="20" width="1" height="1"/><rect x="20" y="20" width="1" height="1"/><rect x="22" y="20" width="1" height="1"/><rect x="0" y="21" width="1" height="1"/><rect x="2" y="21" width="1" height="1"/><rect x="5" y="21" width="1" height="1"/><rect x="9" y="21" width="1" height="1"/><rect x="10" y="21" width="1" height="1"/><rect x="11" y="21" width="1" height="1"/><rect x="12" y="21" width="1" height="1"/><rect x="13" y="21" width="1" height="1"/><rect x="17" y="21" width="1" height="1"/><rect x="19" y="21" width="1" height="1"/><rect x="20" y="21" width="1" height="1"/><rect x="22" y="21" width="1" height="1"/><rect x="0" y="22" width="1" height="1"/><rect x="2" y="22" width="1" height="1"/><rect x="10" y="22" width="1" height="1"/><rect x="11" y="22" width="1" height="1"/><rect x="19" y="22" width="1" height="1"/><rect x="20" y="22" width="1" height="1"/><rect x="22" y="22" width="1" height="1"/><rect x="1" y="23" width="1" height="1"/><rect x="3" y="23" width="1" height="1"/><rect x="4" y="23" width="1" height="1"/><rect x="6" y="23" width="1" height="1"/><rect x="7" y="23" width="1" height="1"/><rect x="8" y="23" width="1" height="1"/><rect x="14" y="23" width="1" height="1"/><rect x="15" y="23" width="1" height="1"/><rect x="16" y="23" width="1" height="1"/><rect x="18" y="23" width="1" height="1"/><rect x="21" y="23" width="1" height="1"/><rect x="1" y="24" width="1" height="1"/><rect x="3" y="24" width="1" height="1"/><rect x="4" y="24" width="1" height="1"/><rect x="7" y="24" width="1" height="1"/><rect x="8" y="24" width="1" height="1"/><rect x="14" y="24" width="1" height="1"/><rect x="15" y="24" width="1" height="1"/><rect x="18" y="24" width="1" height="1"/><rect x="21" y="24" width="1" height="1"/><rect x="2" y="25" width="1" height="1"/><rect x="5" y="25" width="1" height="1"/><rect x="8" y="25" width="1" height="1"/><rect x="14" y="25" width="1" height="1"/><rect x="17" y="25" width="1" height="1"/><rect x="19" y="25" width="1" height="1"/><rect x="20" y="25" width="1" height="1"/><rect x="2" y="26" width="1" height="1"/><rect x="5" y="26" width="1" height="1"/><rect x="6" y="26" width="1" height="1"/><rect x="11" y="26" width="1" height="1"/><rect x="16" y="26" width="1" height="1"/><rect x="19" y="26" width="1" height="1"/><rect x="20" y="26" width="1" height="1"/><rect x="3" y="27" width="1" height="1"/><rect x="7" y="27" width="1" height="1"/><rect x="8" y="27" width="1" height="1"/><rect x="14" y="27" width="1" height="1"/><rect x="15" y="27" width="1" height="1"/><rect x="19" y="27" width="1" height="1"/><rect x="4" y="28" width="1" height="1"/><rect x="7" y="28" width="1" height="1"/><rect x="8" y="28" width="1" height="1"/><rect x="14" y="28" width="1" height="1"/><rect x="15" y="28" width="1" height="1"/><rect x="18" y="28" width="1" height="1"/><rect x="5" y="29" width="1" height="1"/><rect x="6" y="29" width="1" height="1"/><rect x="9" y="29" width="1" height="1"/><rect x="10" y="29" width="1" height="1"/><rect x="11" y="29" width="1" height="1"/><rect x="12" y="29" width="1" height="1"/><rect x="13" y="29" width="1" height="1"/><rect x="16" y="29" width="1" height="1"/><rect x="17" y="29" width="1" height="1"/><rect x="7" y="30" width="1" height="1"/><rect x="8" y="30" width="1" height="1"/><rect x="14" y="30" width="1" height="1"/><rect x="15" y="30" width="1" height="1"/><rect x="9" y="31" width="1" height="1"/><rect x="10" y="31" width="1" height="1"/><rect x="11" y="31" width="1" height="1"/><rect x="12" y="31" width="1" height="1"/><rect x="13" y="31" width="1" height="1"/></svg>