<svg xmlns="http://www.w3.org/2000/svg" viewBox="0 0 28 24" shape-rendering="crispEdges" fill="#ffffff"><rect x="22" y="0" width="1" height="1"></rect><rect x="23" y="0" width="1" height="1"></rect><rect x="21" y="1" width="1" height="1"></rect><rect x="24" y="1" width="1" height="1"></rect><rect x="20" y="2" width="1" height="1"></rect><rect x="25" y="2" width="1" height="1"></rect><rect x="14" y="3" width="1" height="1"></rect><rect x="15" y="3" width="1" height="1"></rect><rect x="16" y="3" width="1" height="1"></rect><rect x="17" y="3" width="1" height="1"></rect><rect x="18" y="3" width="1" height="1"></rect><rect x="19" y="3" width="1" height="1"></rect><rect x="24" y="3" width="1" height="1"></rect><rect x="13" y="4" width="1" height="1"></rect><rect x="22" y="4" width="1" height="1"></rect><rect x="23" y="4" width="1" height="1"></rect><rect x="3" y="5" width="1" height="1"></rect><rect x="4" y="5" width="1" height="1"></rect><rect x="5" y="5" width="1" height="1"></rect><rect x="6" y="5" width="1" height="1"></rect><rect x="7" y="5" width="1" height="1"></rect><rect x="8" y="5" width="1" height="1"></rect><rect x="12" y="5" width="1" height="1"></rect><rect x="13" y="5" width="1" height="1"></rect><rect x="14" y="5" width="1" height="1"></rect><rect x="15" y="5" width="1" height="1"></rect><rect x="16" y="5" width="1" height="1"></rect><rect x="17" y="5" width="1" height="1"></rect><rect x="18" y="5" width="1" height="1"></rect><rect x="24" y="5" width="1" height="1"></rect><rect x="2" y="6" width="1" height="1"></rect><rect x="5" y="6" width="1" height="1"></rect><rect x="18" y="6" width="1" height="1"></rect><rect x="25" y="6" width="1" height="1"></rect><rect x="1" y="7" width="1" height="1"></rect><rect x="5" y="7" width="1" height="1"></rect><rect x="7" y="7" width="1" height="1"></rect><rect x="8" y="7" width="1" height="1"></rect><rect x="9" y="7" width="1" height="1"></rect><rect x="10" y="7" width="1" height="1"></rect><rect x="11" y="7" width="1" height="1"></rect><rect x="12" y="7" width="1" height="1"></rect><rect x="13" y="7" width="1" height="1"></rect><rect x="18" y="7" width="1" height="1"></rect><rect x="26" y="7" width="1" height="1"></rect><rect x="0" y="8" width="1" height="1"></rect><rect x="5" y="8" width="1" height="1"></rect><rect x="9" y="8" width="1" height="1"></rect><rect x="17" y="8" width="1" height="1"></rect><rect x="23" y="8" width="1" height="1"></rect><rect x="27" y="8" width="1" height="1"></rect><rect x="0" y="9" width="1" height="1"></rect><rect x="2" y="9" width="1" height="1"></rect><rect x="3" y="9" width="1" height="1"></rect><rect x="5" y="9" width="1" height="1"></rect><rect x="6" y="9" width="1" height="1"></rect><rect x="7" y="9" width="1" height="1"></rect><rect x="9" y="9" width="1" height="1"></rect><rect x="11" y="9" width="1" height="1"></rect><rect x="12" y="9" width="1" height="1"></rect><rect x="16" y="9" width="1" height="1"></rect><rect x="22" y="9" width="1" height="1"></rect><rect x="25" y="9" width="1" height="1"></rect><rect x="27" y="9" width="1" height="1"></rect><rect x="0" y="10" width="1" height="1"></rect><rect x="2" y="10" width="1" height="1"></rect><rect x="5" y="10" width="1" height="1"></rect><rect x="9" y="10" width="1" height="1"></rect><rect x="15" y="10" width="1" height="1"></rect><rect x="21" y="10" width="1" height="1"></rect><rect x="26" y="10" width="1" height="1"></rect><rect x="0" y="11" width="1" height="1"></rect><rect x="1" y="11" width="1" height="1"></rect><rect x="2" y="11" width="1" height="1"></rect><rect x="4" y="11" width="1" height="1"></rect><rect x="5" y="11" width="1" height="1"></rect><rect x="7" y="11" width="1" height="1"></rect><rect x="8" y="11" width="1" height="1"></rect><rect x="9" y="11" width="1" height="1"></rect><rect x="11" y="11" width="1" height="1"></rect><rect x="14" y="11" width="1" height="1"></rect><rect x="18" y="11" width="1" height="1"></rect><rect x="20" y="11" width="1" height="1"></rect><rect x="9" y="12" width="1" height="1"></rect><rect x="11" y="12" width="1" height="1"></rect><rect x="14" y="12" width="1" height="1"></rect><rect x="19" y="12" width="1" height="1"></rect><rect x="9" y="13" width="1" height="1"></rect><rect x="11" y="13" width="1" height="1"></rect><rect x="15" y="13" width="1" height="1"></rect><rect x="19" y="13" width="1" height="1"></rect><rect x="16" y="14" width="1" height="1"></rect><rect x="20" y="14" width="1" height="1"></rect><rect x="3" y="15" width="1" height="1"></rect><rect x="4" y="15" width="1" height="1"></rect><rect x="7" y="15" width="1" height="1"></rect><rect x="8" y="15" width="1" height="1"></rect><rect x="9" y="15" width="1" height="1"></rect><rect x="10" y="15" width="1" height="1"></rect><rect x="11" y="15" width="1" height="1"></rect><rect x="13" y="15" width="1" height="1"></rect><rect x="15" y="15" width="1" height="1"></rect><rect x="17" y="15" width="1" height="1"></rect><rect x="20" y="15" width="1" height="1"></rect><rect x="2" y="16" width="1" height="1"></rect><rect x="7" y="16" width="1" height="1"></rect><rect x="13" y="16" width="1" height="1"></rect><rect x="14" y="16" width="1" height="1"></rect><rect x="15" y="16" width="1" height="1"></rect><rect x="18" y="16" width="1" height="1"></rect><rect x="21" y="16" width="1" height="1"></rect><rect x="2" y="17" width="1" height="1"></rect><rect x="4" y="17" width="1" height="1"></rect><rect x="5" y="17" width="1" height="1"></rect><rect x="6" y="17" width="1" height="1"></rect><rect x="7" y="17" width="1" height="1"></rect><rect x="9" y="17" width="1" height="1"></rect><rect x="10" y="17" width="1" height="1"></rect><rect x="11" y="17" width="1" height="1"></rect><rect x="13" y="17" width="1" height="1"></rect><rect x="15" y="17" width="1" height="1"></rect><rect x="17" y="17" width="1" height="1"></rect><rect x="19" y="17" width="1" height="1"></rect><rect x="22" y="17" width="1" height="1"></rect><rect x="2" y="18" width="1" height="1"></rect><rect x="7" y="18" width="1" height="1"></rect><rect x="13" y="18" width="1" height="1"></rect><rect x="15" y="18" width="1" height="1"></rect><rect x="16" y="18" width="1" height="1"></rect><rect x="20" y="18" width="1" height="1"></rect><rect x="23" y="18" width="1" height="1"></rect><rect x="3" y="19" width="1" height="1"></rect><rect x="4" y="19" width="1" height="1"></rect><rect x="5" y="19" width="1" height="1"></rect><rect x="7" y="19" width="1" height="1"></rect><rect x="9" y="19" width="1" height="1"></rect><rect x="10" y="19" width="1" height="1"></rect><rect x="15" y="19" width="1" height="1"></rect><rect x="21" y="19" width="1" height="1"></rect><rect x="23" y="19" width="1" height="1"></rect><rect x="7" y="20" width="1" height="1"></rect><rect x="9" y="20" width="1" height="1"></rect><rect x="14" y="20" width="1" height="1"></rect><rect x="22" y="20" width="1" height="1"></rect><rect x="25" y="20" width="1" height="1"></rect><rect x="26" y="20" width="1" height="1"></rect><rect x="5" y="21" width="1" height="1"></rect><rect x="6" y="21" width="1" height="1"></rect><rect x="9" y="21" width="1" height="1"></rect><rect x="12" y="21" width="1" height="1"></rect><rect x="13" y="21" width="1" height="1"></rect><rect x="23" y="21" width="1" height="1"></rect><rect x="27" y="21" width="1" height="1"></rect><rect x="24" y="22" width="1" height="1"></rect><rect x="27" y="22" width="1" height="1"></rect><rect x="25" y="23" width="1" height="1"></rect><rect x="26" y="23" width="1" height="1"></rect></svg>