<svg xmlns="http://www.w3.org/2000/svg" viewBox="0 0 32 32" shape-rendering="crispEdges" fill="#ffffff"><rect x="9" y="2" width="14" height="1"></rect><rect x="11" y="3" width="2" height="1"></rect><rect x="19" y="3" width="2" height="1"></rect><rect x="12" y="4" width="1" height="1"></rect><rect x="15" y="4" width="2" height="1"></rect><rect x="19" y="4" width="1" height="1"></rect><rect x="12" y="5" width="1" height="1"></rect><rect x="15" y="5" width="2" height="1"></rect><rect x="19" y="5" width="1" height="1"></rect><rect x="12" y="6" width="8" height="1"></rect><rect x="9" y="7" width="4" height="1"></rect><rect x="19" y="7" width="4" height="1"></rect><rect x="3" y="8" width="1" height="1"></rect><rect x="8" y="8" width="1" height="1"></rect><rect x="14" y="8" width="1" height="1"></rect><rect x="17" y="8" width="1" height="1"></rect><rect x="23" y="8" width="1" height="1"></rect><rect x="28" y="8" width="1" height="1"></rect><rect x="3" y="9" width="1" height="1"></rect><rect x="7" y="9" width="1" height="1"></rect><rect x="10" y="9" width="4" height="1"></rect><rect x="15" y="9" width="2" height="1"></rect><rect x="18" y="9" width="3" height="1"></rect><rect x="24" y="9" width="1" height="1"></rect><rect x="28" y="9" width="1" height="1"></rect><rect x="3" y="10" width="2" height="1"></rect><rect x="7" y="10" width="1" height="1"></rect><rect x="9" y="10" width="2" height="1"></rect><rect x="21" y="10" width="2" height="1"></rect><rect x="24" y="10" width="1" height="1"></rect><rect x="27" y="10" width="2" height="1"></rect><rect x="3" y="11" width="4" height="1"></rect><rect x="9" y="11" width="1" height="1"></rect><rect x="15" y="11" width="2" height="1"></rect><rect x="22" y="11" width="1" height="1"></rect><rect x="25" y="11" width="4" height="1"></rect><rect x="3" y="12" width="1" height="1"></rect><rect x="6" y="12" width="2" height="1"></rect><rect x="9" y="12" width="1" height="1"></rect><rect x="15" y="12" width="2" height="1"></rect><rect x="22" y="12" width="1" height="1"></rect><rect x="24" y="12" width="2" height="1"></rect><rect x="28" y="12" width="1" height="1"></rect><rect x="3" y="13" width="1" height="1"></rect><rect x="7" y="13" width="1" height="1"></rect><rect x="10" y="13" width="1" height="1"></rect><rect x="15" y="13" width="2" height="1"></rect><rect x="21" y="13" width="1" height="1"></rect><rect x="24" y="13" width="1" height="1"></rect><rect x="28" y="13" width="1" height="1"></rect><rect x="3" y="14" width="1" height="1"></rect><rect x="7" y="14" width="2" height="1"></rect><rect x="10" y="14" width="1" height="1"></rect><rect x="21" y="14" width="1" height="1"></rect><rect x="23" y="14" width="2" height="1"></rect><rect x="28" y="14" width="1" height="1"></rect><rect x="3" y="15" width="1" height="1"></rect><rect x="8" y="15" width="1" height="1"></rect><rect x="10" y="15" width="1" height="1"></rect><rect x="12" y="15" width="2" height="1"></rect><rect x="15" y="15" width="2" height="1"></rect><rect x="18" y="15" width="2" height="1"></rect><rect x="21" y="15" width="1" height="1"></rect><rect x="23" y="15" width="1" height="1"></rect><rect x="28" y="15" width="1" height="1"></rect><rect x="3" y="16" width="1" height="1"></rect><rect x="8" y="16" width="1" height="1"></rect><rect x="10" y="16" width="1" height="1"></rect><rect x="12" y="16" width="2" height="1"></rect><rect x="15" y="16" width="2" height="1"></rect><rect x="18" y="16" width="2" height="1"></rect><rect x="21" y="16" width="1" height="1"></rect><rect x="23" y="16" width="1" height="1"></rect><rect x="28" y="16" width="1" height="1"></rect><rect x="3" y="17" width="1" height="1"></rect><rect x="5" y="17" width="4" height="1"></rect><rect x="10" y="17" width="1" height="1"></rect><rect x="12" y="17" width="2" height="1"></rect><rect x="15" y="17" width="2" height="1"></rect><rect x="18" y="17" width="2" height="1"></rect><rect x="21" y="17" width="1" height="1"></rect><rect x="23" y="17" width="4" height="1"></rect><rect x="28" y="17" width="1" height="1"></rect><rect x="3" y="18" width="3" height="1"></rect><rect x="8" y="18" width="1" height="1"></rect><rect x="10" y="18" width="1" height="1"></rect><rect x="21" y="18" width="1" height="1"></rect><rect x="23" y="18" width="1" height="1"></rect><rect x="26" y="18" width="3" height="1"></rect><rect x="3" y="19" width="2" height="1"></rect><rect x="8" y="19" width="1" height="1"></rect><rect x="10" y="19" width="1" height="1"></rect><rect x="15" y="19" width="2" height="1"></rect><rect x="21" y="19" width="1" height="1"></rect><rect x="23" y="19" width="1" height="1"></rect><rect x="27" y="19" width="2" height="1"></rect><rect x="3" y="20" width="1" height="1"></rect><rect x="8" y="20" width="1" height="1"></rect><rect x="10" y="20" width="1" height="1"></rect><rect x="15" y="20" width="2" height="1"></rect><rect x="21" y="20" width="1" height="1"></rect><rect x="23" y="20" width="1" height="1"></rect><rect x="28" y="20" width="1" height="1"></rect><rect x="3" y="21" width="1" height="1"></rect><rect x="8" y="21" width="1" height="1"></rect><rect x="10" y="21" width="2" height="1"></rect><rect x="15" y="21" width="2" height="1"></rect><rect x="20" y="21" width="2" height="1"></rect><rect x="23" y="21" width="1" height="1"></rect><rect x="28" y="21" width="1" height="1"></rect><rect x="8" y="22" width="1" height="1"></rect><rect x="12" y="22" width="1" height="1"></rect><rect x="19" y="22" width="1" height="1"></rect><rect x="23" y="22" width="1" height="1"></rect><rect x="9" y="23" width="2" height="1"></rect><rect x="13" y="23" width="6" height="1"></rect><rect x="21" y="23" width="2" height="1"></rect><rect x="11" y="24" width="1" height="1"></rect><rect x="20" y="24" width="1" height="1"></rect><rect x="12" y="25" width="8" height="1"></rect><rect x="12" y="26" width="1" height="1"></rect><rect x="15" y="26" width="2" height="1"></rect><rect x="19" y="26" width="1" height="1"></rect><rect x="12" y="27" width="1" height="1"></rect><rect x="15" y="27" width="2" height="1"></rect><rect x="19" y="27" width="1" height="1"></rect><rect x="11" y="28" width="2" height="1"></rect><rect x="19" y="28" width="2" height="1"></rect><rect x="9" y="29" width="14" height="1"></rect></svg>