<svg xmlns="http://www.w3.org/2000/svg" viewBox="0 0 20 32" shape-rendering="crispEdges" fill="#ffffff"><rect x="2" y="0" width="1" height="1"/><rect x="3" y="0" width="1" height="1"/><rect x="4" y="0" width="1" height="1"/><rect x="5" y="0" width="1" height="1"/><rect x="6" y="0" width="1" height="1"/><rect x="7" y="0" width="1" height="1"/><rect x="8" y="0" width="1" height="1"/><rect x="9" y="0" width="1" height="1"/><rect x="10" y="0" width="1" height="1"/><rect x="11" y="0" width="1" height="1"/><rect x="12" y="0" width="1" height="1"/><rect x="13" y="0" width="1" height="1"/><rect x="14" y="0" width="1" height="1"/><rect x="15" y="0" width="1" height="1"/><rect x="16" y="0" width="1" height="1"/><rect x="17" y="0" width="1" height="1"/><rect x="2" y="1" width="1" height="1"/><rect x="17" y="1" width="1" height="1"/><rect x="2" y="2" width="1" height="1"/><rect x="9" y="2" width="1" height="1"/><rect x="10" y="2" width="1" height="1"/><rect x="17" y="2" width="1" height="1"/><rect x="2" y="3" width="1" height="1"/><rect x="7" y="3" width="1" height="1"/><rect x="8" y="3" width="1" height="1"/><rect x="11" y="3" width="1" height="1"/><rect x="12" y="3" width="1" height="1"/><rect x="17" y="3" width="1" height="1"/><rect x="2" y="4" width="1" height="1"/><rect x="6" y="4" width="1" height="1"/><rect x="7" y="4" width="1" height="1"/><rect x="8" y="4" width="1" height="1"/><rect x="11" y="4" width="1" height="1"/><rect x="12" y="4" width="1" height="1"/><rect x="13" y="4" width="1" height="1"/><rect x="17" y="4" width="1" height="1"/><rect x="2" y="5" width="1" height="1"/><rect x="5" y="5" width="1" height="1"/><rect x="6" y="5" width="1" height="1"/><rect x="9" y="5" width="1" height="1"/><rect x="10" y="5" width="1" height="1"/><rect x="13" y="5" width="1" height="1"/><rect x="17" y="5" width="1" height="1"/><rect x="2" y="6" width="1" height="1"/><rect x="7" y="6" width="1" height="1"/><rect x="8" y="6" width="1" height="1"/><rect x="11" y="6" width="1" height="1"/><rect x="12" y="6" width="1" height="1"/><rect x="17" y="6" width="1" height="1"/><rect x="4" y="7" width="1" height="1"/><rect x="9" y="7" width="1" height="1"/><rect x="10" y="7" width="1" height="1"/><rect x="14" y="7" width="1" height="1"/><rect x="15" y="7" width="1" height="1"/><rect x="3" y="8" width="1" height="1"/><rect x="9" y="8" width="1" height="1"/><rect x="10" y="8" width="1" height="1"/><rect x="16" y="8" width="1" height="1"/><rect x="2" y="9" width="1" height="1"/><rect x="5" y="9" width="1" height="1"/><rect x="6" y="9" width="1" height="1"/><rect x="7" y="9" width="1" height="1"/><rect x="12" y="9" width="1" height="1"/><rect x="13" y="9" width="1" height="1"/><rect x="17" y="9" width="1" height="1"/><rect x="1" y="10" width="1" height="1"/><rect x="3" y="10" width="1" height="1"/><rect x="11" y="10" width="1" height="1"/><rect x="16" y="10" width="1" height="1"/><rect x="18" y="10" width="1" height="1"/><rect x="8" y="11" width="1" height="1"/><rect x="11" y="11" width="1" height="1"/><rect x="15" y="11" width="1" height="1"/><rect x="0" y="12" width="1" height="1"/><rect x="2" y="12" width="1" height="1"/><rect x="17" y="12" width="1" height="1"/><rect x="19" y="12" width="1" height="1"/><rect x="0" y="13" width="1" height="1"/><rect x="2" y="13" width="1" height="1"/><rect x="17" y="13" width="1" height="1"/><rect x="19" y="13" width="1" height="1"/><rect x="1" y="14" width="1" height="1"/><rect x="3" y="14" width="1" height="1"/><rect x="5" y="14" width="1" height="1"/><rect x="8" y="14" width="1" height="1"/><rect x="9" y="14" width="1" height="1"/><rect x="10" y="14" width="1" height="1"/><rect x="11" y="14" width="1" height="1"/><rect x="13" y="14" width="1" height="1"/><rect x="14" y="14" width="1" height="1"/><rect x="16" y="14" width="1" height="1"/><rect x="18" y="14" width="1" height="1"/><rect x="2" y="15" width="1" height="1"/><rect x="4" y="15" width="1" height="1"/><rect x="9" y="15" width="1" height="1"/><rect x="10" y="15" width="1" height="1"/><rect x="14" y="15" width="1" height="1"/><rect x="15" y="15" width="1" height="1"/><rect x="17" y="15" width="1" height="1"/><rect x="3" y="16" width="1" height="1"/><rect x="8" y="16" width="1" height="1"/><rect x="11" y="16" width="1" height="1"/><rect x="16" y="16" width="1" height="1"/><rect x="6" y="17" width="1" height="1"/><rect x="7" y="17" width="1" height="1"/><rect x="8" y="17" width="1" height="1"/><rect x="11" y="17" width="1" height="1"/><rect x="12" y="17" width="1" height="1"/><rect x="13" y="17" width="1" height="1"/><rect x="2" y="18" width="1" height="1"/><rect x="5" y="18" width="1" height="1"/><rect x="6" y="18" width="1" height="1"/><rect x="13" y="18" width="1" height="1"/><rect x="14" y="18" width="1" height="1"/><rect x="17" y="18" width="1" height="1"/><rect x="2" y="19" width="1" height="1"/><rect x="17" y="19" width="1" height="1"/><rect x="2" y="20" width="1" height="1"/><rect x="8" y="20" width="1" height="1"/><rect x="11" y="20" width="1" height="1"/><rect x="17" y="20" width="1" height="1"/><rect x="2" y="21" width="1" height="1"/><rect x="9" y="21" width="1" height="1"/><rect x="10" y="21" width="1" height="1"/><rect x="17" y="21" width="1" height="1"/><rect x="2" y="22" width="1" height="1"/><rect x="17" y="22" width="1" height="1"/><rect x="2" y="23" width="1" height="1"/><rect x="3" y="23" width="1" height="1"/><rect x="4" y="23" width="1" height="1"/><rect x="5" y="23" width="1" height="1"/><rect x="6" y="23" width="1" height="1"/><rect x="7" y="23" width="1" height="1"/><rect x="8" y="23" width="1" height="1"/><rect x="9" y="23" width="1" height="1"/><rect x="10" y="23" width="1" height="1"/><rect x="11" y="23" width="1" height="1"/><rect x="12" y="23" width="1" height="1"/><rect x="13" y="23" width="1" height="1"/><rect x="14" y="23" width="1" height="1"/><rect x="15" y="23" width="1" height="1"/><rect x="16" y="23" width="1" height="1"/><rect x="17" y="23" width="1" height="1"/><rect x="9" y="26" width="1" height="1"/><rect x="10" y="26" width="1" height="1"/><rect x="11" y="26" width="1" height="1"/><rect x="3" y="27" width="1" height="1"/><rect x="6" y="27" width="1" height="1"/><rect x="9" y="27" width="1" height="1"/><rect x="3" y="28" width="1" height="1"/><rect x="9" y="28" width="1" height="1"/><rect x="13" y="28" width="1" height="1"/><rect x="14" y="28" width="1" height="1"/><rect x="16" y="28" width="1" height="1"/><rect x="3" y="29" width="1" height="1"/><rect x="4" y="29" width="1" height="1"/><rect x="9" y="29" width="1" height="1"/><rect x="10" y="29" width="1" height="1"/><rect x="13" y="29" width="1" height="1"/><rect x="14" y="29" width="1" height="1"/><rect x="15" y="29" width="1" height="1"/><rect x="16" y="29" width="1" height="1"/><rect x="3" y="30" width="1" height="1"/><rect x="6" y="30" width="1" height="1"/><rect x="9" y="30" width="1" height="1"/><rect x="13" y="30" width="1" height="1"/><rect x="16" y="30" width="1" height="1"/><rect x="3" y="31" width="1" height="1"/><rect x="7" y="31" width="1" height="1"/><rect x="9" y="31" width="1" height="1"/><rect x="13" y="31" width="1" height="1"/><rect x="16" y="31" width="1" height="1"/></svg>