<svg xmlns="http://www.w3.org/2000/svg" viewBox="0 0 32 28" shape-rendering="crispEdges" fill="#ffffff"><rect x="25" y="0" width="1" height="1"></rect><rect x="26" y="0" width="1" height="1"></rect><rect x="24" y="1" width="1" height="1"></rect><rect x="27" y="1" width="1" height="1"></rect><rect x="23" y="3" width="1" height="1"></rect><rect x="16" y="4" width="1" height="1"></rect><rect x="17" y="4" width="1" height="1"></rect><rect x="18" y="4" width="1" height="1"></rect><rect x="19" y="4" width="1" height="1"></rect><rect x="20" y="4" width="1" height="1"></rect><rect x="21" y="4" width="1" height="1"></rect><rect x="22" y="4" width="1" height="1"></rect><rect x="27" y="4" width="1" height="1"></rect><rect x="15" y="5" width="1" height="1"></rect><rect x="25" y="5" width="1" height="1"></rect><rect x="26" y="5" width="1" height="1"></rect><rect x="4" y="6" width="1" height="1"></rect><rect x="5" y="6" width="1" height="1"></rect><rect x="6" y="6" width="1" height="1"></rect><rect x="7" y="6" width="1" height="1"></rect><rect x="8" y="6" width="1" height="1"></rect><rect x="9" y="6" width="1" height="1"></rect><rect x="14" y="6" width="1" height="1"></rect><rect x="15" y="6" width="1" height="1"></rect><rect x="16" y="6" width="1" height="1"></rect><rect x="17" y="6" width="1" height="1"></rect><rect x="18" y="6" width="1" height="1"></rect><rect x="19" y="6" width="1" height="1"></rect><rect x="20" y="6" width="1" height="1"></rect><rect x="21" y="6" width="1" height="1"></rect><rect x="28" y="6" width="1" height="1"></rect><rect x="2" y="7" width="1" height="1"></rect><rect x="6" y="7" width="1" height="1"></rect><rect x="21" y="7" width="1" height="1"></rect><rect x="29" y="7" width="1" height="1"></rect><rect x="1" y="8" width="1" height="1"></rect><rect x="6" y="8" width="1" height="1"></rect><rect x="8" y="8" width="1" height="1"></rect><rect x="9" y="8" width="1" height="1"></rect><rect x="10" y="8" width="1" height="1"></rect><rect x="11" y="8" width="1" height="1"></rect><rect x="12" y="8" width="1" height="1"></rect><rect x="13" y="8" width="1" height="1"></rect><rect x="14" y="8" width="1" height="1"></rect><rect x="15" y="8" width="1" height="1"></rect><rect x="21" y="8" width="1" height="1"></rect><rect x="30" y="8" width="1" height="1"></rect><rect x="0" y="9" width="1" height="1"></rect><rect x="6" y="9" width="1" height="1"></rect><rect x="10" y="9" width="1" height="1"></rect><rect x="11" y="9" width="1" height="1"></rect><rect x="20" y="9" width="1" height="1"></rect><rect x="0" y="10" width="1" height="1"></rect><rect x="3" y="10" width="1" height="1"></rect><rect x="6" y="10" width="1" height="1"></rect><rect x="10" y="10" width="1" height="1"></rect><rect x="19" y="10" width="1" height="1"></rect><rect x="26" y="10" width="1" height="1"></rect><rect x="31" y="10" width="1" height="1"></rect><rect x="0" y="11" width="1" height="1"></rect><rect x="2" y="11" width="1" height="1"></rect><rect x="3" y="11" width="1" height="1"></rect><rect x="6" y="11" width="1" height="1"></rect><rect x="7" y="11" width="1" height="1"></rect><rect x="8" y="11" width="1" height="1"></rect><rect x="10" y="11" width="1" height="1"></rect><rect x="13" y="11" width="1" height="1"></rect><rect x="14" y="11" width="1" height="1"></rect><rect x="18" y="11" width="1" height="1"></rect><rect x="25" y="11" width="1" height="1"></rect><rect x="29" y="11" width="1" height="1"></rect><rect x="31" y="11" width="1" height="1"></rect><rect x="0" y="12" width="1" height="1"></rect><rect x="2" y="12" width="1" height="1"></rect><rect x="6" y="12" width="1" height="1"></rect><rect x="10" y="12" width="1" height="1"></rect><rect x="17" y="12" width="1" height="1"></rect><rect x="24" y="12" width="1" height="1"></rect><rect x="30" y="12" width="1" height="1"></rect><rect x="0" y="13" width="1" height="1"></rect><rect x="1" y="13" width="1" height="1"></rect><rect x="2" y="13" width="1" height="1"></rect><rect x="5" y="13" width="1" height="1"></rect><rect x="6" y="13" width="1" height="1"></rect><rect x="8" y="13" width="1" height="1"></rect><rect x="9" y="13" width="1" height="1"></rect><rect x="10" y="13" width="1" height="1"></rect><rect x="13" y="13" width="1" height="1"></rect><rect x="16" y="13" width="1" height="1"></rect><rect x="21" y="13" width="1" height="1"></rect><rect x="23" y="13" width="1" height="1"></rect><rect x="10" y="14" width="1" height="1"></rect><rect x="13" y="14" width="1" height="1"></rect><rect x="16" y="14" width="1" height="1"></rect><rect x="22" y="14" width="1" height="1"></rect><rect x="10" y="15" width="1" height="1"></rect><rect x="13" y="15" width="1" height="1"></rect><rect x="17" y="15" width="1" height="1"></rect><rect x="22" y="15" width="1" height="1"></rect><rect x="18" y="16" width="1" height="1"></rect><rect x="23" y="16" width="1" height="1"></rect><rect x="4" y="17" width="1" height="1"></rect><rect x="9" y="17" width="1" height="1"></rect><rect x="11" y="17" width="1" height="1"></rect><rect x="12" y="17" width="1" height="1"></rect><rect x="23" y="17" width="1" height="1"></rect><rect x="8" y="18" width="1" height="1"></rect><rect x="9" y="18" width="1" height="1"></rect><rect x="15" y="18" width="1" height="1"></rect><rect x="17" y="18" width="1" height="1"></rect><rect x="2" y="19" width="1" height="1"></rect><rect x="8" y="19" width="1" height="1"></rect><rect x="15" y="19" width="1" height="1"></rect><rect x="16" y="19" width="1" height="1"></rect><rect x="17" y="19" width="1" height="1"></rect><rect x="21" y="19" width="1" height="1"></rect><rect x="24" y="19" width="1" height="1"></rect><rect x="2" y="20" width="1" height="1"></rect><rect x="5" y="20" width="1" height="1"></rect><rect x="6" y="20" width="1" height="1"></rect><rect x="7" y="20" width="1" height="1"></rect><rect x="8" y="20" width="1" height="1"></rect><rect x="11" y="20" width="1" height="1"></rect><rect x="12" y="20" width="1" height="1"></rect><rect x="13" y="20" width="1" height="1"></rect><rect x="15" y="20" width="1" height="1"></rect><rect x="17" y="20" width="1" height="1"></rect><rect x="22" y="20" width="1" height="1"></rect><rect x="25" y="20" width="1" height="1"></rect><rect x="2" y="21" width="1" height="1"></rect><rect x="8" y="21" width="1" height="1"></rect><rect x="15" y="21" width="1" height="1"></rect><rect x="17" y="21" width="1" height="1"></rect><rect x="18" y="21" width="1" height="1"></rect><rect x="23" y="21" width="1" height="1"></rect><rect x="26" y="21" width="1" height="1"></rect><rect x="3" y="22" width="1" height="1"></rect><rect x="4" y="22" width="1" height="1"></rect><rect x="5" y="22" width="1" height="1"></rect><rect x="6" y="22" width="1" height="1"></rect><rect x="8" y="22" width="1" height="1"></rect><rect x="11" y="22" width="1" height="1"></rect><rect x="17" y="22" width="1" height="1"></rect><rect x="24" y="22" width="1" height="1"></rect><rect x="26" y="22" width="1" height="1"></rect><rect x="8" y="23" width="1" height="1"></rect><rect x="10" y="23" width="1" height="1"></rect><rect x="16" y="23" width="1" height="1"></rect><rect x="25" y="23" width="1" height="1"></rect><rect x="29" y="23" width="1" height="1"></rect><rect x="30" y="23" width="1" height="1"></rect><rect x="6" y="24" width="1" height="1"></rect><rect x="7" y="24" width="1" height="1"></rect><rect x="10" y="24" width="1" height="1"></rect><rect x="14" y="24" width="1" height="1"></rect><rect x="15" y="24" width="1" height="1"></rect><rect x="26" y="24" width="1" height="1"></rect><rect x="31" y="24" width="1" height="1"></rect><rect x="27" y="25" width="1" height="1"></rect><rect x="31" y="25" width="1" height="1"></rect><rect x="28" y="26" width="1" height="1"></rect><rect x="29" y="27" width="1" height="1"></rect><rect x="30" y="27" width="1" height="1"></rect></svg>