<svg xmlns="http://www.w3.org/2000/svg" viewBox="0 0 32 32" shape-rendering="crispEdges" fill="#ffffff"><rect x="12" y="2" width="8" height="1"></rect><rect x="10" y="3" width="12" height="1"></rect><rect x="8" y="4" width="16" height="1"></rect><rect x="7" y="5" width="18" height="1"></rect><rect x="6" y="6" width="20" height="1"></rect><rect x="5" y="7" width="22" height="1"></rect><rect x="4" y="8" width="24" height="1"></rect><rect x="4" y="9" width="6" height="1"></rect><rect x="17" y="9" width="11" height="1"></rect><rect x="3" y="10" width="6" height="1"></rect><rect x="13" y="10" width="4" height="1"></rect><rect x="18" y="10" width="11" height="1"></rect><rect x="3" y="11" width="5" height="1"></rect><rect x="11" y="11" width="18" height="1"></rect><rect x="2" y="12" width="5" height="1"></rect><rect x="10" y="12" width="20" height="1"></rect><rect x="2" y="13" width="4" height="1"></rect><rect x="10" y="13" width="12" height="1"></rect><rect x="23" y="13" width="7" height="1"></rect><rect x="2" y="14" width="4" height="1"></rect><rect x="10" y="14" width="12" height="1"></rect><rect x="23" y="14" width="7" height="1"></rect><rect x="2" y="15" width="4" height="1"></rect><rect x="10" y="15" width="9" height="1"></rect><rect x="26" y="15" width="4" height="1"></rect><rect x="2" y="16" width="4" height="1"></rect><rect x="10" y="16" width="11" height="1"></rect><rect x="24" y="16" width="6" height="1"></rect><rect x="2" y="17" width="4" height="1"></rect><rect x="10" y="17" width="10" height="1"></rect><rect x="25" y="17" width="5" height="1"></rect><rect x="2" y="18" width="4" height="1"></rect><rect x="10" y="18" width="10" height="1"></rect><rect x="21" y="18" width="3" height="1"></rect><rect x="25" y="18" width="5" height="1"></rect><rect x="2" y="19" width="5" height="1"></rect><rect x="10" y="19" width="20" height="1"></rect><rect x="3" y="20" width="5" height="1"></rect><rect x="11" y="20" width="18" height="1"></rect><rect x="3" y="21" width="6" height="1"></rect><rect x="13" y="21" width="4" height="1"></rect><rect x="18" y="21" width="11" height="1"></rect><rect x="4" y="22" width="6" height="1"></rect><rect x="17" y="22" width="11" height="1"></rect><rect x="4" y="23" width="24" height="1"></rect><rect x="5" y="24" width="22" height="1"></rect><rect x="6" y="25" width="20" height="1"></rect><rect x="7" y="26" width="18" height="1"></rect><rect x="8" y="27" width="16" height="1"></rect><rect x="10" y="28" width="12" height="1"></rect><rect x="12" y="29" width="8" height="1"></rect></svg>