<svg xmlns="http://www.w3.org/2000/svg" viewBox="0 0 45 45" width="45" height="45" shape-rendering="crispEdges"><defs><mask id="cut" maskUnits="userSpaceOnUse" x="0" y="0" width="45" height="45"><rect width="45" height="45" fill="#ffffff"></rect><g fill="#000000"><rect x="23.2321" y="2" width="14.6429" height="1.4643"></rect><rect x="23.2321" y="3.4643" width="1.4643" height="1.4643"></rect><rect x="27.625" y="3.4643" width="1.4643" height="1.4643"></rect><rect x="36.4107" y="3.4643" width="1.4643" height="1.4643"></rect><rect x="23.2321" y="4.9286" width="1.4643" height="1.4643"></rect><rect x="27.625" y="4.9286" width="1.4643" height="1.4643"></rect><rect x="30.5536" y="4.9286" width="1.4643" height="1.4643"></rect><rect x="36.4107" y="4.9286" width="1.4643" height="1.4643"></rect><rect x="23.2321" y="6.3929" width="1.4643" height="1.4643"></rect><rect x="27.625" y="6.3929" width="1.4643" height="1.4643"></rect><rect x="36.4107" y="6.3929" width="1.4643" height="1.4643"></rect><rect x="23.2321" y="7.8571" width="1.4643" height="1.4643"></rect><rect x="27.625" y="7.8571" width="1.4643" height="1.4643"></rect><rect x="32.0179" y="7.8571" width="5.8571" height="1.4643"></rect><rect x="23.2321" y="9.3214" width="1.4643" height="1.4643"></rect><rect x="27.625" y="9.3214" width="1.4643" height="1.4643"></rect><rect x="32.0179" y="9.3214" width="1.4643" height="1.4643"></rect><rect x="36.4107" y="9.3214" width="1.4643" height="1.4643"></rect><rect x="21.7679" y="10.7857" width="1.4643" height="1.4643"></rect><rect x="26.1607" y="10.7857" width="1.4643" height="1.4643"></rect><rect x="30.5536" y="10.7857" width="1.4643" height="1.4643"></rect><rect x="34.9464" y="10.7857" width="1.4643" height="1.4643"></rect><rect x="20.3036" y="12.25" width="1.4643" height="1.4643"></rect><rect x="24.6964" y="12.25" width="1.4643" height="1.4643"></rect><rect x="29.0893" y="12.25" width="1.4643" height="1.4643"></rect><rect x="33.4821" y="12.25" width="1.4643" height="1.4643"></rect><rect x="18.8393" y="13.7143" width="1.4643" height="1.4643"></rect><rect x="23.2321" y="13.7143" width="1.4643" height="1.4643"></rect><rect x="27.625" y="13.7143" width="1.4643" height="1.4643"></rect><rect x="32.0179" y="13.7143" width="1.4643" height="1.4643"></rect><rect x="15.9107" y="15.1786" width="2.9286" height="1.4643"></rect><rect x="21.7679" y="15.1786" width="1.4643" height="1.4643"></rect><rect x="26.1607" y="15.1786" width="1.4643" height="1.4643"></rect><rect x="30.5536" y="15.1786" width="1.4643" height="1.4643"></rect><rect x="12.9821" y="16.6429" width="2.9286" height="1.4643"></rect><rect x="20.3036" y="16.6429" width="1.4643" height="1.4643"></rect><rect x="24.6964" y="16.6429" width="1.4643" height="1.4643"></rect><rect x="29.0893" y="16.6429" width="1.4643" height="1.4643"></rect><rect x="11.5179" y="18.1071" width="1.4643" height="1.4643"></rect><rect x="17.375" y="18.1071" width="2.9286" height="1.4643"></rect><rect x="23.2321" y="18.1071" width="1.4643" height="1.4643"></rect><rect x="30.5536" y="18.1071" width="1.4643" height="1.4643"></rect><rect x="10.0536" y="19.5714" width="1.4643" height="1.4643"></rect><rect x="14.4464" y="19.5714" width="2.9286" height="1.4643"></rect><rect x="20.3036" y="19.5714" width="2.9286" height="1.4643"></rect><rect x="26.1607" y="19.5714" width="2.9286" height="1.4643"></rect><rect x="32.0179" y="19.5714" width="1.4643" height="1.4643"></rect><rect x="10.0536" y="21.0357" width="1.4643" height="1.4643"></rect><rect x="12.9821" y="21.0357" width="1.4643" height="1.4643"></rect><rect x="17.375" y="21.0357" width="1.4643" height="1.4643"></rect><rect x="24.6964" y="21.0357" width="1.4643" height="1.4643"></rect><rect x="29.0893" y="21.0357" width="1.4643" height="1.4643"></rect><rect x="32.0179" y="21.0357" width="1.4643" height="1.4643"></rect><rect x="8.5893" y="22.5" width="1.4643" height="1.4643"></rect><rect x="11.5179" y="22.5" width="1.4643" height="1.4643"></rect><rect x="15.9107" y="22.5" width="2.9286" height="1.4643"></rect><rect x="24.6964" y="22.5" width="2.9286" height="1.4643"></rect><rect x="30.5536" y="22.5" width="1.4643" height="1.4643"></rect><rect x="33.4821" y="22.5" width="1.4643" height="1.4643"></rect><rect x="8.5893" y="23.9643" width="1.4643" height="1.4643"></rect><rect x="11.5179" y="23.9643" width="1.4643" height="1.4643"></rect><rect x="14.4464" y="23.9643" width="4.3929" height="1.4643"></rect><rect x="24.6964" y="23.9643" width="4.3929" height="1.4643"></rect><rect x="30.5536" y="23.9643" width="1.4643" height="1.4643"></rect><rect x="33.4821" y="23.9643" width="1.4643" height="1.4643"></rect><rect x="7.125" y="25.4286" width="1.4643" height="1.4643"></rect><rect x="10.0536" y="25.4286" width="1.4643" height="1.4643"></rect><rect x="20.3036" y="25.4286" width="2.9286" height="1.4643"></rect><rect x="32.0179" y="25.4286" width="1.4643" height="1.4643"></rect><rect x="34.9464" y="25.4286" width="1.4643" height="1.4643"></rect><rect x="7.125" y="26.8929" width="1.4643" height="1.4643"></rect><rect x="10.0536" y="26.8929" width="1.4643" height="1.4643"></rect><rect x="12.9821" y="26.8929" width="1.4643" height="1.4643"></rect><rect x="18.8393" y="26.8929" width="5.8571" height="1.4643"></rect><rect x="29.0893" y="26.8929" width="1.4643" height="1.4643"></rect><rect x="32.0179" y="26.8929" width="1.4643" height="1.4643"></rect><rect x="34.9464" y="26.8929" width="1.4643" height="1.4643"></rect><rect x="7.125" y="28.3571" width="1.4643" height="1.4643"></rect><rect x="10.0536" y="28.3571" width="1.4643" height="1.4643"></rect><rect x="12.9821" y="28.3571" width="1.4643" height="1.4643"></rect><rect x="18.8393" y="28.3571" width="5.8571" height="1.4643"></rect><rect x="29.0893" y="28.3571" width="1.4643" height="1.4643"></rect><rect x="32.0179" y="28.3571" width="1.4643" height="1.4643"></rect><rect x="34.9464" y="28.3571" width="1.4643" height="1.4643"></rect><rect x="7.125" y="29.8214" width="1.4643" height="1.4643"></rect><rect x="10.0536" y="29.8214" width="1.4643" height="1.4643"></rect><rect x="20.3036" y="29.8214" width="2.9286" height="1.4643"></rect><rect x="32.0179" y="29.8214" width="1.4643" height="1.4643"></rect><rect x="34.9464" y="29.8214" width="1.4643" height="1.4643"></rect><rect x="8.5893" y="31.2857" width="1.4643" height="1.4643"></rect><rect x="11.5179" y="31.2857" width="1.4643" height="1.4643"></rect><rect x="14.4464" y="31.2857" width="4.3929" height="1.4643"></rect><rect x="24.6964" y="31.2857" width="4.3929" height="1.4643"></rect><rect x="30.5536" y="31.2857" width="1.4643" height="1.4643"></rect><rect x="33.4821" y="31.2857" width="1.4643" height="1.4643"></rect><rect x="8.5893" y="32.75" width="1.4643" height="1.4643"></rect><rect x="11.5179" y="32.75" width="1.4643" height="1.4643"></rect><rect x="15.9107" y="32.75" width="2.9286" height="1.4643"></rect><rect x="24.6964" y="32.75" width="2.9286" height="1.4643"></rect><rect x="30.5536" y="32.75" width="1.4643" height="1.4643"></rect><rect x="33.4821" y="32.75" width="1.4643" height="1.4643"></rect><rect x="10.0536" y="34.2143" width="1.4643" height="1.4643"></rect><rect x="12.9821" y="34.2143" width="1.4643" height="1.4643"></rect><rect x="17.375" y="34.2143" width="1.4643" height="1.4643"></rect><rect x="24.6964" y="34.2143" width="1.4643" height="1.4643"></rect><rect x="29.0893" y="34.2143" width="1.4643" height="1.4643"></rect><rect x="32.0179" y="34.2143" width="1.4643" height="1.4643"></rect><rect x="10.0536" y="35.6786" width="1.4643" height="1.4643"></rect><rect x="14.4464" y="35.6786" width="1.4643" height="1.4643"></rect><rect x="20.3036" y="35.6786" width="2.9286" height="1.4643"></rect><rect x="27.625" y="35.6786" width="1.4643" height="1.4643"></rect><rect x="32.0179" y="35.6786" width="1.4643" height="1.4643"></rect><rect x="11.5179" y="37.1429" width="1.4643" height="1.4643"></rect><rect x="15.9107" y="37.1429" width="2.9286" height="1.4643"></rect><rect x="24.6964" y="37.1429" width="2.9286" height="1.4643"></rect><rect x="30.5536" y="37.1429" width="1.4643" height="1.4643"></rect><rect x="12.9821" y="38.6071" width="2.9286" height="1.4643"></rect><rect x="18.8393" y="38.6071" width="5.8571" height="1.4643"></rect><rect x="27.625" y="38.6071" width="2.9286" height="1.4643"></rect><rect x="15.9107" y="40.0714" width="2.9286" height="1.4643"></rect><rect x="24.6964" y="40.0714" width="2.9286" height="1.4643"></rect><rect x="18.8393" y="41.5357" width="5.8571" height="1.4643"></rect></g></mask></defs><rect width="45" height="45" fill="#000000" mask="url(#cut)"></rect></svg>