<svg xmlns="http://www.w3.org/2000/svg" viewBox="0 0 45 45" width="45" height="45" shape-rendering="crispEdges"><defs><mask id="cut" maskUnits="userSpaceOnUse" x="0" y="0" width="45" height="45"><rect width="45" height="45" fill="#ffffff"></rect><g fill="#000000"><rect x="4.9286" y="2" width="35.1429" height="1.4643"></rect><rect x="4.9286" y="3.4643" width="35.1429" height="1.4643"></rect><rect x="4.9286" y="4.9286" width="13.1786" height="1.4643"></rect><rect x="21.0357" y="4.9286" width="7.3214" height="1.4643"></rect><rect x="37.1429" y="4.9286" width="2.9286" height="1.4643"></rect><rect x="4.9286" y="6.3929" width="11.7143" height="1.4643"></rect><rect x="18.1071" y="6.3929" width="1.4643" height="1.4643"></rect><rect x="23.9643" y="6.3929" width="2.9286" height="1.4643"></rect><rect x="28.3571" y="6.3929" width="11.7143" height="1.4643"></rect><rect x="4.9286" y="7.8571" width="11.7143" height="1.4643"></rect><rect x="18.1071" y="7.8571" width="1.4643" height="1.4643"></rect><rect x="21.0357" y="7.8571" width="4.3929" height="1.4643"></rect><rect x="26.8929" y="7.8571" width="2.9286" height="1.4643"></rect><rect x="35.6786" y="7.8571" width="4.3929" height="1.4643"></rect><rect x="4.9286" y="9.3214" width="10.25" height="1.4643"></rect><rect x="16.6429" y="9.3214" width="2.9286" height="1.4643"></rect><rect x="21.0357" y="9.3214" width="2.9286" height="1.4643"></rect><rect x="25.4286" y="9.3214" width="14.6429" height="1.4643"></rect><rect x="4.9286" y="10.7857" width="8.7857" height="1.4643"></rect><rect x="15.1786" y="10.7857" width="4.3929" height="1.4643"></rect><rect x="21.0357" y="10.7857" width="1.4643" height="1.4643"></rect><rect x="23.9643" y="10.7857" width="2.9286" height="1.4643"></rect><rect x="34.2143" y="10.7857" width="5.8571" height="1.4643"></rect><rect x="4.9286" y="12.25" width="8.7857" height="1.4643"></rect><rect x="15.1786" y="12.25" width="5.8571" height="1.4643"></rect><rect x="22.5" y="12.25" width="17.5714" height="1.4643"></rect><rect x="4.9286" y="13.7143" width="8.7857" height="1.4643"></rect><rect x="15.1786" y="13.7143" width="8.7857" height="1.4643"></rect><rect x="32.75" y="13.7143" width="7.3214" height="1.4643"></rect><rect x="4.9286" y="15.1786" width="8.7857" height="1.4643"></rect><rect x="15.1786" y="15.1786" width="24.8929" height="1.4643"></rect><rect x="4.9286" y="16.6429" width="10.25" height="1.4643"></rect><rect x="16.6429" y="16.6429" width="5.8571" height="1.4643"></rect><rect x="23.9643" y="16.6429" width="1.4643" height="1.4643"></rect><rect x="26.8929" y="16.6429" width="1.4643" height="1.4643"></rect><rect x="29.8214" y="16.6429" width="10.25" height="1.4643"></rect><rect x="4.9286" y="18.1071" width="5.8571" height="1.4643"></rect><rect x="18.1071" y="18.1071" width="4.3929" height="1.4643"></rect><rect x="25.4286" y="18.1071" width="1.4643" height="1.4643"></rect><rect x="28.3571" y="18.1071" width="1.4643" height="1.4643"></rect><rect x="31.2857" y="18.1071" width="8.7857" height="1.4643"></rect><rect x="4.9286" y="19.5714" width="8.7857" height="1.4643"></rect><rect x="15.1786" y="19.5714" width="1.4643" height="1.4643"></rect><rect x="18.1071" y="19.5714" width="1.4643" height="1.4643"></rect><rect x="21.0357" y="19.5714" width="1.4643" height="1.4643"></rect><rect x="23.9643" y="19.5714" width="1.4643" height="1.4643"></rect><rect x="26.8929" y="19.5714" width="1.4643" height="1.4643"></rect><rect x="29.8214" y="19.5714" width="1.4643" height="1.4643"></rect><rect x="32.75" y="19.5714" width="7.3214" height="1.4643"></rect><rect x="4.9286" y="21.0357" width="2.9286" height="1.4643"></rect><rect x="12.25" y="21.0357" width="4.3929" height="1.4643"></rect><rect x="19.5714" y="21.0357" width="1.4643" height="1.4643"></rect><rect x="23.9643" y="21.0357" width="2.9286" height="1.4643"></rect><rect x="28.3571" y="21.0357" width="1.4643" height="1.4643"></rect><rect x="31.2857" y="21.0357" width="1.4643" height="1.4643"></rect><rect x="34.2143" y="21.0357" width="5.8571" height="1.4643"></rect><rect x="4.9286" y="22.5" width="2.9286" height="1.4643"></rect><rect x="12.25" y="22.5" width="4.3929" height="1.4643"></rect><rect x="18.1071" y="22.5" width="4.3929" height="1.4643"></rect><rect x="23.9643" y="22.5" width="16.1071" height="1.4643"></rect><rect x="4.9286" y="23.9643" width="2.9286" height="1.4643"></rect><rect x="12.25" y="23.9643" width="1.4643" height="1.4643"></rect><rect x="18.1071" y="23.9643" width="4.3929" height="1.4643"></rect><rect x="26.8929" y="23.9643" width="13.1786" height="1.4643"></rect><rect x="4.9286" y="25.4286" width="35.1429" height="1.4643"></rect><rect x="4.9286" y="26.8929" width="10.25" height="1.4643"></rect><rect x="18.1071" y="26.8929" width="1.4643" height="1.4643"></rect><rect x="25.4286" y="26.8929" width="2.9286" height="1.4643"></rect><rect x="31.2857" y="26.8929" width="8.7857" height="1.4643"></rect><rect x="4.9286" y="28.3571" width="11.7143" height="1.4643"></rect><rect x="18.1071" y="28.3571" width="1.4643" height="1.4643"></rect><rect x="21.0357" y="28.3571" width="5.8571" height="1.4643"></rect><rect x="28.3571" y="28.3571" width="2.9286" height="1.4643"></rect><rect x="32.75" y="28.3571" width="7.3214" height="1.4643"></rect><rect x="4.9286" y="29.8214" width="11.7143" height="1.4643"></rect><rect x="18.1071" y="29.8214" width="1.4643" height="1.4643"></rect><rect x="23.9643" y="29.8214" width="2.9286" height="1.4643"></rect><rect x="32.75" y="29.8214" width="7.3214" height="1.4643"></rect><rect x="4.9286" y="31.2857" width="7.3214" height="1.4643"></rect><rect x="13.7143" y="31.2857" width="2.9286" height="1.4643"></rect><rect x="18.1071" y="31.2857" width="1.4643" height="1.4643"></rect><rect x="21.0357" y="31.2857" width="5.8571" height="1.4643"></rect><rect x="28.3571" y="31.2857" width="2.9286" height="1.4643"></rect><rect x="32.75" y="31.2857" width="7.3214" height="1.4643"></rect><rect x="6.3929" y="32.75" width="5.8571" height="1.4643"></rect><rect x="18.1071" y="32.75" width="1.4643" height="1.4643"></rect><rect x="21.0357" y="32.75" width="5.8571" height="1.4643"></rect><rect x="28.3571" y="32.75" width="2.9286" height="1.4643"></rect><rect x="32.75" y="32.75" width="5.8571" height="1.4643"></rect><rect x="6.3929" y="34.2143" width="32.2143" height="1.4643"></rect><rect x="9.3214" y="35.6786" width="26.3571" height="1.4643"></rect><rect x="9.3214" y="37.1429" width="26.3571" height="1.4643"></rect><rect x="12.25" y="38.6071" width="20.5" height="1.4643"></rect><rect x="16.6429" y="40.0714" width="11.7143" height="1.4643"></rect><rect x="21.0357" y="41.5357" width="2.9286" height="1.4643"></rect></g></mask></defs><rect width="45" height="45" fill="#000000" mask="url(#cut)"></rect></svg>