<svg xmlns="http://www.w3.org/2000/svg" viewBox="0 0 32 32" shape-rendering="crispEdges" fill="#000000"><rect x="9" y="2" width="4" height="1"></rect><rect x="14" y="2" width="4" height="1"></rect><rect x="19" y="2" width="4" height="1"></rect><rect x="9" y="3" width="1" height="1"></rect><rect x="12" y="3" width="1" height="1"></rect><rect x="14" y="3" width="1" height="1"></rect><rect x="19" y="3" width="1" height="1"></rect><rect x="22" y="3" width="1" height="1"></rect><rect x="9" y="4" width="1" height="1"></rect><rect x="12" y="4" width="1" height="1"></rect><rect x="14" y="4" width="3" height="1"></rect><rect x="19" y="4" width="4" height="1"></rect><rect x="9" y="5" width="1" height="1"></rect><rect x="12" y="5" width="1" height="1"></rect><rect x="14" y="5" width="1" height="1"></rect><rect x="19" y="5" width="1" height="1"></rect><rect x="22" y="5" width="1" height="1"></rect><rect x="9" y="6" width="4" height="1"></rect><rect x="14" y="6" width="1" height="1"></rect><rect x="19" y="6" width="4" height="1"></rect><rect x="6" y="9" width="5" height="1"></rect><rect x="21" y="9" width="5" height="1"></rect><rect x="6" y="10" width="6" height="1"></rect><rect x="15" y="10" width="2" height="1"></rect><rect x="20" y="10" width="6" height="1"></rect><rect x="6" y="11" width="7" height="1"></rect><rect x="14" y="11" width="3" height="1"></rect><rect x="19" y="11" width="7" height="1"></rect><rect x="11" y="12" width="2" height="1"></rect><rect x="15" y="12" width="2" height="1"></rect><rect x="19" y="12" width="2" height="1"></rect><rect x="6" y="13" width="8" height="1"></rect><rect x="15" y="13" width="2" height="1"></rect><rect x="18" y="13" width="8" height="1"></rect><rect x="6" y="14" width="20" height="1"></rect><rect x="11" y="15" width="2" height="1"></rect><rect x="19" y="15" width="2" height="1"></rect><rect x="6" y="16" width="7" height="1"></rect><rect x="14" y="16" width="4" height="1"></rect><rect x="19" y="16" width="7" height="1"></rect><rect x="6" y="17" width="7" height="1"></rect><rect x="14" y="17" width="4" height="1"></rect><rect x="19" y="17" width="7" height="1"></rect><rect x="11" y="18" width="2" height="1"></rect><rect x="19" y="18" width="2" height="1"></rect><rect x="6" y="19" width="7" height="1"></rect><rect x="14" y="19" width="4" height="1"></rect><rect x="19" y="19" width="7" height="1"></rect><rect x="6" y="20" width="8" height="1"></rect><rect x="15" y="20" width="2" height="1"></rect><rect x="18" y="20" width="8" height="1"></rect><rect x="6" y="21" width="4" height="1"></rect><rect x="11" y="21" width="4" height="1"></rect><rect x="17" y="21" width="4" height="1"></rect><rect x="22" y="21" width="4" height="1"></rect><rect x="6" y="22" width="3" height="1"></rect><rect x="10" y="22" width="12" height="1"></rect><rect x="23" y="22" width="3" height="1"></rect><rect x="6" y="23" width="2" height="1"></rect><rect x="9" y="23" width="3" height="1"></rect><rect x="13" y="23" width="2" height="1"></rect><rect x="17" y="23" width="2" height="1"></rect><rect x="20" y="23" width="3" height="1"></rect><rect x="24" y="23" width="2" height="1"></rect><rect x="6" y="24" width="1" height="1"></rect><rect x="8" y="24" width="3" height="1"></rect><rect x="12" y="24" width="2" height="1"></rect><rect x="15" y="24" width="2" height="1"></rect><rect x="18" y="24" width="2" height="1"></rect><rect x="21" y="24" width="3" height="1"></rect><rect x="25" y="24" width="1" height="1"></rect><rect x="6" y="25" width="1" height="1"></rect><rect x="8" y="25" width="2" height="1"></rect><rect x="11" y="25" width="2" height="1"></rect><rect x="14" y="25" width="4" height="1"></rect><rect x="19" y="25" width="2" height="1"></rect><rect x="22" y="25" width="2" height="1"></rect><rect x="25" y="25" width="1" height="1"></rect><rect x="8" y="26" width="2" height="1"></rect><rect x="11" y="26" width="2" height="1"></rect><rect x="14" y="26" width="4" height="1"></rect><rect x="19" y="26" width="2" height="1"></rect><rect x="22" y="26" width="2" height="1"></rect><rect x="9" y="27" width="1" height="1"></rect><rect x="11" y="27" width="3" height="1"></rect><rect x="15" y="27" width="2" height="1"></rect><rect x="18" y="27" width="3" height="1"></rect><rect x="22" y="27" width="1" height="1"></rect><rect x="12" y="28" width="3" height="1"></rect><rect x="17" y="28" width="3" height="1"></rect><rect x="14" y="29" width="4" height="1"></rect></svg>