<svg xmlns="http://www.w3.org/2000/svg" viewBox="0 0 32 32" shape-rendering="crispEdges" fill="#000000"><rect x="16" y="2" width="4" height="1"></rect><rect x="10" y="3" width="3" height="1"></rect><rect x="16" y="3" width="5" height="1"></rect><rect x="8" y="4" width="6" height="1"></rect><rect x="16" y="4" width="5" height="1"></rect><rect x="23" y="4" width="1" height="1"></rect><rect x="7" y="5" width="8" height="1"></rect><rect x="17" y="5" width="4" height="1"></rect><rect x="23" y="5" width="2" height="1"></rect><rect x="6" y="6" width="9" height="1"></rect><rect x="17" y="6" width="4" height="1"></rect><rect x="24" y="6" width="2" height="1"></rect><rect x="5" y="7" width="10" height="1"></rect><rect x="17" y="7" width="5" height="1"></rect><rect x="24" y="7" width="3" height="1"></rect><rect x="4" y="8" width="5" height="1"></rect><rect x="11" y="8" width="4" height="1"></rect><rect x="17" y="8" width="5" height="1"></rect><rect x="25" y="8" width="3" height="1"></rect><rect x="4" y="9" width="3" height="1"></rect><rect x="11" y="9" width="4" height="1"></rect><rect x="18" y="9" width="4" height="1"></rect><rect x="26" y="9" width="2" height="1"></rect><rect x="3" y="10" width="3" height="1"></rect><rect x="10" y="10" width="5" height="1"></rect><rect x="18" y="10" width="5" height="1"></rect><rect x="26" y="10" width="3" height="1"></rect><rect x="3" y="11" width="2" height="1"></rect><rect x="10" y="11" width="4" height="1"></rect><rect x="18" y="11" width="5" height="1"></rect><rect x="26" y="11" width="3" height="1"></rect><rect x="2" y="12" width="2" height="1"></rect><rect x="9" y="12" width="5" height="1"></rect><rect x="19" y="12" width="5" height="1"></rect><rect x="26" y="12" width="4" height="1"></rect><rect x="2" y="13" width="2" height="1"></rect><rect x="8" y="13" width="5" height="1"></rect><rect x="19" y="13" width="5" height="1"></rect><rect x="26" y="13" width="4" height="1"></rect><rect x="2" y="14" width="1" height="1"></rect><rect x="7" y="14" width="6" height="1"></rect><rect x="20" y="14" width="10" height="1"></rect><rect x="6" y="15" width="6" height="1"></rect><rect x="21" y="15" width="9" height="1"></rect><rect x="5" y="16" width="6" height="1"></rect><rect x="22" y="16" width="8" height="1"></rect><rect x="4" y="17" width="6" height="1"></rect><rect x="23" y="17" width="7" height="1"></rect><rect x="2" y="18" width="7" height="1"></rect><rect x="24" y="18" width="5" height="1"></rect><rect x="2" y="19" width="6" height="1"></rect><rect x="12" y="19" width="7" height="1"></rect><rect x="3" y="20" width="4" height="1"></rect><rect x="10" y="20" width="11" height="1"></rect><rect x="3" y="21" width="3" height="1"></rect><rect x="9" y="21" width="16" height="1"></rect><rect x="8" y="22" width="20" height="1"></rect><rect x="7" y="23" width="21" height="1"></rect><rect x="7" y="24" width="5" height="1"></rect><rect x="20" y="24" width="7" height="1"></rect><rect x="7" y="25" width="6" height="1"></rect><rect x="23" y="25" width="3" height="1"></rect><rect x="7" y="26" width="9" height="1"></rect><rect x="8" y="27" width="15" height="1"></rect><rect x="10" y="28" width="12" height="1"></rect><rect x="12" y="29" width="8" height="1"></rect></svg>