<svg xmlns="http://www.w3.org/2000/svg" viewBox="0 0 32 32" shape-rendering="crispEdges" fill="#000000"><rect x="11" y="2" width="1" height="1"></rect><rect x="13" y="2" width="6" height="1"></rect><rect x="20" y="2" width="1" height="1"></rect><rect x="11" y="3" width="10" height="1"></rect><rect x="8" y="4" width="1" height="1"></rect><rect x="11" y="4" width="2" height="1"></rect><rect x="15" y="4" width="2" height="1"></rect><rect x="19" y="4" width="2" height="1"></rect><rect x="23" y="4" width="1" height="1"></rect><rect x="7" y="5" width="3" height="1"></rect><rect x="11" y="5" width="10" height="1"></rect><rect x="22" y="5" width="3" height="1"></rect><rect x="6" y="6" width="5" height="1"></rect><rect x="12" y="6" width="3" height="1"></rect><rect x="17" y="6" width="3" height="1"></rect><rect x="21" y="6" width="5" height="1"></rect><rect x="7" y="7" width="4" height="1"></rect><rect x="12" y="7" width="8" height="1"></rect><rect x="21" y="7" width="4" height="1"></rect><rect x="7" y="8" width="5" height="1"></rect><rect x="13" y="8" width="1" height="1"></rect><rect x="18" y="8" width="1" height="1"></rect><rect x="20" y="8" width="5" height="1"></rect><rect x="7" y="9" width="6" height="1"></rect><rect x="14" y="9" width="1" height="1"></rect><rect x="17" y="9" width="1" height="1"></rect><rect x="19" y="9" width="6" height="1"></rect><rect x="7" y="10" width="4" height="1"></rect><rect x="12" y="10" width="1" height="1"></rect><rect x="14" y="10" width="1" height="1"></rect><rect x="17" y="10" width="1" height="1"></rect><rect x="19" y="10" width="1" height="1"></rect><rect x="21" y="10" width="4" height="1"></rect><rect x="7" y="11" width="3" height="1"></rect><rect x="11" y="11" width="3" height="1"></rect><rect x="15" y="11" width="2" height="1"></rect><rect x="18" y="11" width="3" height="1"></rect><rect x="22" y="11" width="3" height="1"></rect><rect x="7" y="12" width="2" height="1"></rect><rect x="10" y="12" width="5" height="1"></rect><rect x="17" y="12" width="5" height="1"></rect><rect x="23" y="12" width="2" height="1"></rect><rect x="6" y="13" width="2" height="1"></rect><rect x="9" y="13" width="4" height="1"></rect><rect x="15" y="13" width="2" height="1"></rect><rect x="19" y="13" width="4" height="1"></rect><rect x="24" y="13" width="2" height="1"></rect><rect x="6" y="14" width="1" height="1"></rect><rect x="8" y="14" width="4" height="1"></rect><rect x="13" y="14" width="6" height="1"></rect><rect x="20" y="14" width="4" height="1"></rect><rect x="25" y="14" width="1" height="1"></rect><rect x="5" y="15" width="2" height="1"></rect><rect x="8" y="15" width="3" height="1"></rect><rect x="12" y="15" width="3" height="1"></rect><rect x="17" y="15" width="3" height="1"></rect><rect x="21" y="15" width="3" height="1"></rect><rect x="25" y="15" width="2" height="1"></rect><rect x="5" y="16" width="2" height="1"></rect><rect x="8" y="16" width="2" height="1"></rect><rect x="11" y="16" width="2" height="1"></rect><rect x="14" y="16" width="4" height="1"></rect><rect x="19" y="16" width="2" height="1"></rect><rect x="22" y="16" width="2" height="1"></rect><rect x="25" y="16" width="2" height="1"></rect><rect x="5" y="17" width="2" height="1"></rect><rect x="8" y="17" width="2" height="1"></rect><rect x="11" y="17" width="1" height="1"></rect><rect x="13" y="17" width="2" height="1"></rect><rect x="17" y="17" width="2" height="1"></rect><rect x="20" y="17" width="1" height="1"></rect><rect x="22" y="17" width="2" height="1"></rect><rect x="25" y="17" width="2" height="1"></rect><rect x="5" y="18" width="2" height="1"></rect><rect x="8" y="18" width="2" height="1"></rect><rect x="11" y="18" width="1" height="1"></rect><rect x="13" y="18" width="2" height="1"></rect><rect x="17" y="18" width="2" height="1"></rect><rect x="20" y="18" width="1" height="1"></rect><rect x="22" y="18" width="2" height="1"></rect><rect x="25" y="18" width="2" height="1"></rect><rect x="5" y="19" width="2" height="1"></rect><rect x="8" y="19" width="2" height="1"></rect><rect x="11" y="19" width="2" height="1"></rect><rect x="14" y="19" width="4" height="1"></rect><rect x="19" y="19" width="2" height="1"></rect><rect x="22" y="19" width="2" height="1"></rect><rect x="25" y="19" width="2" height="1"></rect><rect x="5" y="20" width="2" height="1"></rect><rect x="8" y="20" width="3" height="1"></rect><rect x="12" y="20" width="3" height="1"></rect><rect x="17" y="20" width="3" height="1"></rect><rect x="21" y="20" width="3" height="1"></rect><rect x="25" y="20" width="2" height="1"></rect><rect x="5" y="21" width="3" height="1"></rect><rect x="9" y="21" width="3" height="1"></rect><rect x="13" y="21" width="6" height="1"></rect><rect x="20" y="21" width="3" height="1"></rect><rect x="24" y="21" width="3" height="1"></rect><rect x="6" y="22" width="3" height="1"></rect><rect x="10" y="22" width="3" height="1"></rect><rect x="15" y="22" width="2" height="1"></rect><rect x="19" y="22" width="3" height="1"></rect><rect x="23" y="22" width="3" height="1"></rect><rect x="6" y="23" width="9" height="1"></rect><rect x="17" y="23" width="9" height="1"></rect><rect x="7" y="24" width="18" height="1"></rect><rect x="8" y="25" width="16" height="1"></rect><rect x="10" y="26" width="12" height="1"></rect><rect x="12" y="27" width="8" height="1"></rect><rect x="14" y="28" width="4" height="1"></rect><rect x="15" y="29" width="2" height="1"></rect></svg>