<svg xmlns="http://www.w3.org/2000/svg" viewBox="0 0 32 32" shape-rendering="crispEdges" fill="#000000"><rect x="7" y="2" width="18" height="1"></rect><rect x="7" y="3" width="1" height="1"></rect><rect x="24" y="3" width="1" height="1"></rect><rect x="7" y="4" width="1" height="1"></rect><rect x="24" y="4" width="1" height="1"></rect><rect x="7" y="5" width="18" height="1"></rect><rect x="7" y="6" width="7" height="1"></rect><rect x="15" y="6" width="2" height="1"></rect><rect x="18" y="6" width="7" height="1"></rect><rect x="7" y="7" width="8" height="1"></rect><rect x="17" y="7" width="8" height="1"></rect><rect x="7" y="8" width="18" height="1"></rect><rect x="7" y="9" width="1" height="1"></rect><rect x="24" y="9" width="1" height="1"></rect><rect x="7" y="10" width="1" height="1"></rect><rect x="24" y="10" width="1" height="1"></rect><rect x="7" y="11" width="18" height="1"></rect><rect x="7" y="12" width="1" height="1"></rect><rect x="24" y="12" width="1" height="1"></rect><rect x="7" y="13" width="1" height="1"></rect><rect x="24" y="13" width="1" height="1"></rect><rect x="7" y="14" width="1" height="1"></rect><rect x="14" y="14" width="4" height="1"></rect><rect x="24" y="14" width="1" height="1"></rect><rect x="7" y="15" width="1" height="1"></rect><rect x="12" y="15" width="1" height="1"></rect><rect x="15" y="15" width="2" height="1"></rect><rect x="19" y="15" width="1" height="1"></rect><rect x="24" y="15" width="1" height="1"></rect><rect x="7" y="16" width="1" height="1"></rect><rect x="11" y="16" width="2" height="1"></rect><rect x="19" y="16" width="2" height="1"></rect><rect x="24" y="16" width="1" height="1"></rect><rect x="7" y="17" width="1" height="1"></rect><rect x="10" y="17" width="3" height="1"></rect><rect x="19" y="17" width="3" height="1"></rect><rect x="24" y="17" width="1" height="1"></rect><rect x="7" y="18" width="1" height="1"></rect><rect x="24" y="18" width="1" height="1"></rect><rect x="7" y="19" width="1" height="1"></rect><rect x="9" y="19" width="1" height="1"></rect><rect x="15" y="19" width="2" height="1"></rect><rect x="22" y="19" width="1" height="1"></rect><rect x="24" y="19" width="1" height="1"></rect><rect x="7" y="20" width="1" height="1"></rect><rect x="9" y="20" width="2" height="1"></rect><rect x="14" y="20" width="4" height="1"></rect><rect x="21" y="20" width="2" height="1"></rect><rect x="24" y="20" width="1" height="1"></rect><rect x="7" y="21" width="1" height="1"></rect><rect x="9" y="21" width="2" height="1"></rect><rect x="14" y="21" width="4" height="1"></rect><rect x="21" y="21" width="2" height="1"></rect><rect x="24" y="21" width="1" height="1"></rect><rect x="7" y="22" width="1" height="1"></rect><rect x="9" y="22" width="1" height="1"></rect><rect x="15" y="22" width="2" height="1"></rect><rect x="22" y="22" width="1" height="1"></rect><rect x="24" y="22" width="1" height="1"></rect><rect x="7" y="23" width="1" height="1"></rect><rect x="24" y="23" width="1" height="1"></rect><rect x="7" y="24" width="1" height="1"></rect><rect x="10" y="24" width="3" height="1"></rect><rect x="19" y="24" width="3" height="1"></rect><rect x="24" y="24" width="1" height="1"></rect><rect x="8" y="25" width="1" height="1"></rect><rect x="11" y="25" width="2" height="1"></rect><rect x="19" y="25" width="2" height="1"></rect><rect x="23" y="25" width="1" height="1"></rect><rect x="9" y="26" width="1" height="1"></rect><rect x="12" y="26" width="1" height="1"></rect><rect x="15" y="26" width="2" height="1"></rect><rect x="19" y="26" width="1" height="1"></rect><rect x="22" y="26" width="1" height="1"></rect><rect x="10" y="27" width="1" height="1"></rect><rect x="14" y="27" width="4" height="1"></rect><rect x="21" y="27" width="1" height="1"></rect><rect x="11" y="28" width="2" height="1"></rect><rect x="19" y="28" width="2" height="1"></rect><rect x="13" y="29" width="6" height="1"></rect></svg>