<svg xmlns="http://www.w3.org/2000/svg" viewBox="0 0 20 32" shape-rendering="crispEdges" fill="#000000"><rect x="0" y="0" width="1" height="1"></rect><rect x="1" y="0" width="1" height="1"></rect><rect x="2" y="0" width="1" height="1"></rect><rect x="3" y="0" width="1" height="1"></rect><rect x="4" y="0" width="1" height="1"></rect><rect x="5" y="0" width="1" height="1"></rect><rect x="6" y="0" width="1" height="1"></rect><rect x="7" y="0" width="1" height="1"></rect><rect x="8" y="0" width="1" height="1"></rect><rect x="9" y="0" width="1" height="1"></rect><rect x="10" y="0" width="1" height="1"></rect><rect x="11" y="0" width="1" height="1"></rect><rect x="12" y="0" width="1" height="1"></rect><rect x="13" y="0" width="1" height="1"></rect><rect x="14" y="0" width="1" height="1"></rect><rect x="15" y="0" width="1" height="1"></rect><rect x="16" y="0" width="1" height="1"></rect><rect x="17" y="0" width="1" height="1"></rect><rect x="18" y="0" width="1" height="1"></rect><rect x="19" y="0" width="1" height="1"></rect><rect x="0" y="1" width="1" height="1"></rect><rect x="19" y="1" width="1" height="1"></rect><rect x="0" y="2" width="1" height="1"></rect><rect x="19" y="2" width="1" height="1"></rect><rect x="0" y="3" width="1" height="1"></rect><rect x="2" y="3" width="1" height="1"></rect><rect x="3" y="3" width="1" height="1"></rect><rect x="4" y="3" width="1" height="1"></rect><rect x="5" y="3" width="1" height="1"></rect><rect x="7" y="3" width="1" height="1"></rect><rect x="8" y="3" width="1" height="1"></rect><rect x="10" y="3" width="1" height="1"></rect><rect x="11" y="3" width="1" height="1"></rect><rect x="12" y="3" width="1" height="1"></rect><rect x="13" y="3" width="1" height="1"></rect><rect x="14" y="3" width="1" height="1"></rect><rect x="15" y="3" width="1" height="1"></rect><rect x="16" y="3" width="1" height="1"></rect><rect x="17" y="3" width="1" height="1"></rect><rect x="19" y="3" width="1" height="1"></rect><rect x="0" y="4" width="1" height="1"></rect><rect x="1" y="4" width="1" height="1"></rect><rect x="2" y="4" width="1" height="1"></rect><rect x="3" y="4" width="1" height="1"></rect><rect x="4" y="4" width="1" height="1"></rect><rect x="5" y="4" width="1" height="1"></rect><rect x="6" y="4" width="1" height="1"></rect><rect x="7" y="4" width="1" height="1"></rect><rect x="9" y="4" width="1" height="1"></rect><rect x="10" y="4" width="1" height="1"></rect><rect x="12" y="4" width="1" height="1"></rect><rect x="13" y="4" width="1" height="1"></rect><rect x="14" y="4" width="1" height="1"></rect><rect x="15" y="4" width="1" height="1"></rect><rect x="16" y="4" width="1" height="1"></rect><rect x="17" y="4" width="1" height="1"></rect><rect x="18" y="4" width="1" height="1"></rect><rect x="19" y="4" width="1" height="1"></rect><rect x="0" y="5" width="1" height="1"></rect><rect x="1" y="5" width="1" height="1"></rect><rect x="2" y="5" width="1" height="1"></rect><rect x="3" y="5" width="1" height="1"></rect><rect x="4" y="5" width="1" height="1"></rect><rect x="5" y="5" width="1" height="1"></rect><rect x="6" y="5" width="1" height="1"></rect><rect x="7" y="5" width="1" height="1"></rect><rect x="9" y="5" width="1" height="1"></rect><rect x="10" y="5" width="1" height="1"></rect><rect x="12" y="5" width="1" height="1"></rect><rect x="13" y="5" width="1" height="1"></rect><rect x="14" y="5" width="1" height="1"></rect><rect x="15" y="5" width="1" height="1"></rect><rect x="16" y="5" width="1" height="1"></rect><rect x="17" y="5" width="1" height="1"></rect><rect x="18" y="5" width="1" height="1"></rect><rect x="19" y="5" width="1" height="1"></rect><rect x="0" y="6" width="1" height="1"></rect><rect x="1" y="6" width="1" height="1"></rect><rect x="2" y="6" width="1" height="1"></rect><rect x="3" y="6" width="1" height="1"></rect><rect x="4" y="6" width="1" height="1"></rect><rect x="5" y="6" width="1" height="1"></rect><rect x="6" y="6" width="1" height="1"></rect><rect x="7" y="6" width="1" height="1"></rect><rect x="8" y="6" width="1" height="1"></rect><rect x="11" y="6" width="1" height="1"></rect><rect x="12" y="6" width="1" height="1"></rect><rect x="13" y="6" width="1" height="1"></rect><rect x="14" y="6" width="1" height="1"></rect><rect x="15" y="6" width="1" height="1"></rect><rect x="16" y="6" width="1" height="1"></rect><rect x="17" y="6" width="1" height="1"></rect><rect x="18" y="6" width="1" height="1"></rect><rect x="19" y="6" width="1" height="1"></rect><rect x="0" y="7" width="1" height="1"></rect><rect x="1" y="7" width="1" height="1"></rect><rect x="2" y="7" width="1" height="1"></rect><rect x="3" y="7" width="1" height="1"></rect><rect x="4" y="7" width="1" height="1"></rect><rect x="5" y="7" width="1" height="1"></rect><rect x="6" y="7" width="1" height="1"></rect><rect x="7" y="7" width="1" height="1"></rect><rect x="8" y="7" width="1" height="1"></rect><rect x="9" y="7" width="1" height="1"></rect><rect x="10" y="7" width="1" height="1"></rect><rect x="11" y="7" width="1" height="1"></rect><rect x="12" y="7" width="1" height="1"></rect><rect x="13" y="7" width="1" height="1"></rect><rect x="14" y="7" width="1" height="1"></rect><rect x="15" y="7" width="1" height="1"></rect><rect x="16" y="7" width="1" height="1"></rect><rect x="17" y="7" width="1" height="1"></rect><rect x="18" y="7" width="1" height="1"></rect><rect x="19" y="7" width="1" height="1"></rect><rect x="0" y="8" width="1" height="1"></rect><rect x="19" y="8" width="1" height="1"></rect><rect x="0" y="9" width="1" height="1"></rect><rect x="19" y="9" width="1" height="1"></rect><rect x="0" y="10" width="1" height="1"></rect><rect x="1" y="10" width="1" height="1"></rect><rect x="2" y="10" width="1" height="1"></rect><rect x="3" y="10" width="1" height="1"></rect><rect x="4" y="10" width="1" height="1"></rect><rect x="5" y="10" width="1" height="1"></rect><rect x="6" y="10" width="1" height="1"></rect><rect x="7" y="10" width="1" height="1"></rect><rect x="8" y="10" width="1" height="1"></rect><rect x="9" y="10" width="1" height="1"></rect><rect x="10" y="10" width="1" height="1"></rect><rect x="11" y="10" width="1" height="1"></rect><rect x="12" y="10" width="1" height="1"></rect><rect x="13" y="10" width="1" height="1"></rect><rect x="14" y="10" width="1" height="1"></rect><rect x="15" y="10" width="1" height="1"></rect><rect x="16" y="10" width="1" height="1"></rect><rect x="17" y="10" width="1" height="1"></rect><rect x="18" y="10" width="1" height="1"></rect><rect x="19" y="10" width="1" height="1"></rect><rect x="0" y="11" width="1" height="1"></rect><rect x="19" y="11" width="1" height="1"></rect><rect x="0" y="12" width="1" height="1"></rect><rect x="19" y="12" width="1" height="1"></rect><rect x="0" y="13" width="1" height="1"></rect><rect x="19" y="13" width="1" height="1"></rect><rect x="0" y="14" width="1" height="1"></rect><rect x="8" y="14" width="1" height="1"></rect><rect x="9" y="14" width="1" height="1"></rect><rect x="10" y="14" width="1" height="1"></rect><rect x="11" y="14" width="1" height="1"></rect><rect x="19" y="14" width="1" height="1"></rect><rect x="0" y="15" width="1" height="1"></rect><rect x="5" y="15" width="1" height="1"></rect><rect x="9" y="15" width="1" height="1"></rect><rect x="10" y="15" width="1" height="1"></rect><rect x="13" y="15" width="1" height="1"></rect><rect x="19" y="15" width="1" height="1"></rect><rect x="0" y="16" width="1" height="1"></rect><rect x="4" y="16" width="1" height="1"></rect><rect x="5" y="16" width="1" height="1"></rect><rect x="13" y="16" width="1" height="1"></rect><rect x="14" y="16" width="1" height="1"></rect><rect x="19" y="16" width="1" height="1"></rect><rect x="0" y="17" width="1" height="1"></rect><rect x="3" y="17" width="1" height="1"></rect><rect x="4" y="17" width="1" height="1"></rect><rect x="5" y="17" width="1" height="1"></rect><rect x="13" y="17" width="1" height="1"></rect><rect x="14" y="17" width="1" height="1"></rect><rect x="15" y="17" width="1" height="1"></rect><rect x="16" y="17" width="1" height="1"></rect><rect x="19" y="17" width="1" height="1"></rect><rect x="0" y="18" width="1" height="1"></rect><rect x="19" y="18" width="1" height="1"></rect><rect x="0" y="19" width="1" height="1"></rect><rect x="19" y="19" width="1" height="1"></rect><rect x="0" y="20" width="1" height="1"></rect><rect x="2" y="20" width="1" height="1"></rect><rect x="9" y="20" width="1" height="1"></rect><rect x="10" y="20" width="1" height="1"></rect><rect x="17" y="20" width="1" height="1"></rect><rect x="19" y="20" width="1" height="1"></rect><rect x="0" y="21" width="1" height="1"></rect><rect x="2" y="21" width="1" height="1"></rect><rect x="3" y="21" width="1" height="1"></rect><rect x="8" y="21" width="1" height="1"></rect><rect x="9" y="21" width="1" height="1"></rect><rect x="10" y="21" width="1" height="1"></rect><rect x="11" y="21" width="1" height="1"></rect><rect x="16" y="21" width="1" height="1"></rect><rect x="17" y="21" width="1" height="1"></rect><rect x="19" y="21" width="1" height="1"></rect><rect x="0" y="22" width="1" height="1"></rect><rect x="2" y="22" width="1" height="1"></rect><rect x="3" y="22" width="1" height="1"></rect><rect x="8" y="22" width="1" height="1"></rect><rect x="9" y="22" width="1" height="1"></rect><rect x="10" y="22" width="1" height="1"></rect><rect x="11" y="22" width="1" height="1"></rect><rect x="16" y="22" width="1" height="1"></rect><rect x="17" y="22" width="1" height="1"></rect><rect x="19" y="22" width="1" height="1"></rect><rect x="0" y="23" width="1" height="1"></rect><rect x="2" y="23" width="1" height="1"></rect><rect x="9" y="23" width="1" height="1"></rect><rect x="10" y="23" width="1" height="1"></rect><rect x="17" y="23" width="1" height="1"></rect><rect x="19" y="23" width="1" height="1"></rect><rect x="0" y="24" width="1" height="1"></rect><rect x="19" y="24" width="1" height="1"></rect><rect x="0" y="25" width="1" height="1"></rect><rect x="3" y="25" width="1" height="1"></rect><rect x="4" y="25" width="1" height="1"></rect><rect x="5" y="25" width="1" height="1"></rect><rect x="14" y="25" width="1" height="1"></rect><rect x="15" y="25" width="1" height="1"></rect><rect x="16" y="25" width="1" height="1"></rect><rect x="19" y="25" width="1" height="1"></rect><rect x="1" y="26" width="1" height="1"></rect><rect x="4" y="26" width="1" height="1"></rect><rect x="5" y="26" width="1" height="1"></rect><rect x="13" y="26" width="1" height="1"></rect><rect x="14" y="26" width="1" height="1"></rect><rect x="15" y="26" width="1" height="1"></rect><rect x="18" y="26" width="1" height="1"></rect><rect x="5" y="27" width="1" height="1"></rect><rect x="13" y="27" width="1" height="1"></rect><rect x="14" y="27" width="1" height="1"></rect><rect x="17" y="27" width="1" height="1"></rect><rect x="2" y="28" width="1" height="1"></rect><rect x="8" y="28" width="1" height="1"></rect><rect x="9" y="28" width="1" height="1"></rect><rect x="10" y="28" width="1" height="1"></rect><rect x="17" y="28" width="1" height="1"></rect><rect x="3" y="29" width="1" height="1"></rect><rect x="8" y="29" width="1" height="1"></rect><rect x="9" y="29" width="1" height="1"></rect><rect x="10" y="29" width="1" height="1"></rect><rect x="11" y="29" width="1" height="1"></rect><rect x="16" y="29" width="1" height="1"></rect><rect x="4" y="30" width="1" height="1"></rect><rect x="5" y="30" width="1" height="1"></rect><rect x="13" y="30" width="1" height="1"></rect><rect x="14" y="30" width="1" height="1"></rect><rect x="7" y="31" width="1" height="1"></rect><rect x="8" y="31" width="1" height="1"></rect><rect x="9" y="31" width="1" height="1"></rect><rect x="10" y="31" width="1" height="1"></rect><rect x="11" y="31" width="1" height="1"></rect><rect x="12" y="31" width="1" height="1"></rect></svg>