<svg xmlns="http://www.w3.org/2000/svg" viewBox="0 0 32 32" shape-rendering="crispEdges" fill="#000000"><rect x="4" y="2" width="24" height="1"></rect><rect x="4" y="3" width="2" height="1"></rect><rect x="7" y="3" width="1" height="1"></rect><rect x="11" y="3" width="1" height="1"></rect><rect x="15" y="3" width="1" height="1"></rect><rect x="18" y="3" width="3" height="1"></rect><rect x="22" y="3" width="2" height="1"></rect><rect x="27" y="3" width="1" height="1"></rect><rect x="4" y="4" width="2" height="1"></rect><rect x="7" y="4" width="1" height="1"></rect><rect x="9" y="4" width="1" height="1"></rect><rect x="11" y="4" width="1" height="1"></rect><rect x="13" y="4" width="1" height="1"></rect><rect x="15" y="4" width="1" height="1"></rect><rect x="17" y="4" width="1" height="1"></rect><rect x="19" y="4" width="1" height="1"></rect><rect x="21" y="4" width="1" height="1"></rect><rect x="23" y="4" width="1" height="1"></rect><rect x="25" y="4" width="1" height="1"></rect><rect x="27" y="4" width="1" height="1"></rect><rect x="4" y="5" width="2" height="1"></rect><rect x="7" y="5" width="1" height="1"></rect><rect x="9" y="5" width="1" height="1"></rect><rect x="11" y="5" width="1" height="1"></rect><rect x="14" y="5" width="2" height="1"></rect><rect x="17" y="5" width="1" height="1"></rect><rect x="19" y="5" width="1" height="1"></rect><rect x="23" y="5" width="1" height="1"></rect><rect x="25" y="5" width="1" height="1"></rect><rect x="27" y="5" width="1" height="1"></rect><rect x="4" y="6" width="1" height="1"></rect><rect x="7" y="6" width="1" height="1"></rect><rect x="11" y="6" width="1" height="1"></rect><rect x="13" y="6" width="1" height="1"></rect><rect x="15" y="6" width="1" height="1"></rect><rect x="18" y="6" width="2" height="1"></rect><rect x="21" y="6" width="1" height="1"></rect><rect x="23" y="6" width="1" height="1"></rect><rect x="25" y="6" width="1" height="1"></rect><rect x="27" y="6" width="1" height="1"></rect><rect x="4" y="7" width="24" height="1"></rect><rect x="4" y="9" width="1" height="1"></rect><rect x="6" y="9" width="1" height="1"></rect><rect x="8" y="9" width="16" height="1"></rect><rect x="25" y="9" width="1" height="1"></rect><rect x="27" y="9" width="1" height="1"></rect><rect x="4" y="10" width="1" height="1"></rect><rect x="6" y="10" width="1" height="1"></rect><rect x="8" y="10" width="16" height="1"></rect><rect x="25" y="10" width="1" height="1"></rect><rect x="27" y="10" width="1" height="1"></rect><rect x="4" y="11" width="1" height="1"></rect><rect x="6" y="11" width="1" height="1"></rect><rect x="8" y="11" width="16" height="1"></rect><rect x="25" y="11" width="1" height="1"></rect><rect x="27" y="11" width="1" height="1"></rect><rect x="4" y="12" width="1" height="1"></rect><rect x="6" y="12" width="1" height="1"></rect><rect x="8" y="12" width="16" height="1"></rect><rect x="25" y="12" width="1" height="1"></rect><rect x="27" y="12" width="1" height="1"></rect><rect x="4" y="13" width="1" height="1"></rect><rect x="6" y="13" width="1" height="1"></rect><rect x="8" y="13" width="16" height="1"></rect><rect x="25" y="13" width="1" height="1"></rect><rect x="27" y="13" width="1" height="1"></rect><rect x="4" y="14" width="1" height="1"></rect><rect x="6" y="14" width="1" height="1"></rect><rect x="8" y="14" width="7" height="1"></rect><rect x="17" y="14" width="7" height="1"></rect><rect x="25" y="14" width="1" height="1"></rect><rect x="27" y="14" width="1" height="1"></rect><rect x="4" y="15" width="1" height="1"></rect><rect x="6" y="15" width="1" height="1"></rect><rect x="8" y="15" width="4" height="1"></rect><rect x="14" y="15" width="1" height="1"></rect><rect x="17" y="15" width="1" height="1"></rect><rect x="20" y="15" width="4" height="1"></rect><rect x="25" y="15" width="1" height="1"></rect><rect x="27" y="15" width="1" height="1"></rect><rect x="4" y="16" width="1" height="1"></rect><rect x="6" y="16" width="1" height="1"></rect><rect x="8" y="16" width="5" height="1"></rect><rect x="19" y="16" width="5" height="1"></rect><rect x="25" y="16" width="1" height="1"></rect><rect x="27" y="16" width="1" height="1"></rect><rect x="4" y="17" width="1" height="1"></rect><rect x="6" y="17" width="1" height="1"></rect><rect x="8" y="17" width="5" height="1"></rect><rect x="19" y="17" width="5" height="1"></rect><rect x="25" y="17" width="1" height="1"></rect><rect x="27" y="17" width="1" height="1"></rect><rect x="4" y="18" width="1" height="1"></rect><rect x="6" y="18" width="1" height="1"></rect><rect x="8" y="18" width="4" height="1"></rect><rect x="20" y="18" width="4" height="1"></rect><rect x="25" y="18" width="1" height="1"></rect><rect x="27" y="18" width="1" height="1"></rect><rect x="4" y="19" width="1" height="1"></rect><rect x="6" y="19" width="1" height="1"></rect><rect x="8" y="19" width="6" height="1"></rect><rect x="18" y="19" width="6" height="1"></rect><rect x="25" y="19" width="1" height="1"></rect><rect x="27" y="19" width="1" height="1"></rect><rect x="4" y="20" width="1" height="1"></rect><rect x="6" y="20" width="1" height="1"></rect><rect x="8" y="20" width="6" height="1"></rect><rect x="15" y="20" width="2" height="1"></rect><rect x="18" y="20" width="6" height="1"></rect><rect x="25" y="20" width="1" height="1"></rect><rect x="27" y="20" width="1" height="1"></rect><rect x="4" y="21" width="1" height="1"></rect><rect x="6" y="21" width="2" height="1"></rect><rect x="9" y="21" width="14" height="1"></rect><rect x="24" y="21" width="2" height="1"></rect><rect x="27" y="21" width="1" height="1"></rect><rect x="4" y="22" width="2" height="1"></rect><rect x="7" y="22" width="2" height="1"></rect><rect x="10" y="22" width="12" height="1"></rect><rect x="23" y="22" width="2" height="1"></rect><rect x="26" y="22" width="2" height="1"></rect><rect x="5" y="23" width="2" height="1"></rect><rect x="8" y="23" width="2" height="1"></rect><rect x="12" y="23" width="8" height="1"></rect><rect x="22" y="23" width="2" height="1"></rect><rect x="25" y="23" width="2" height="1"></rect><rect x="6" y="24" width="2" height="1"></rect><rect x="9" y="24" width="3" height="1"></rect><rect x="14" y="24" width="4" height="1"></rect><rect x="20" y="24" width="3" height="1"></rect><rect x="24" y="24" width="2" height="1"></rect><rect x="7" y="25" width="2" height="1"></rect><rect x="11" y="25" width="3" height="1"></rect><rect x="15" y="25" width="2" height="1"></rect><rect x="18" y="25" width="3" height="1"></rect><rect x="23" y="25" width="2" height="1"></rect><rect x="8" y="26" width="3" height="1"></rect><rect x="13" y="26" width="2" height="1"></rect><rect x="17" y="26" width="2" height="1"></rect><rect x="21" y="26" width="3" height="1"></rect><rect x="10" y="27" width="3" height="1"></rect><rect x="19" y="27" width="3" height="1"></rect><rect x="12" y="28" width="3" height="1"></rect><rect x="17" y="28" width="3" height="1"></rect><rect x="15" y="29" width="2" height="1"></rect></svg>