<svg xmlns="http://www.w3.org/2000/svg" viewBox="0 0 32 32" shape-rendering="crispEdges" fill="#000000"><rect x="12" y="2" width="8" height="1"></rect><rect x="10" y="3" width="12" height="1"></rect><rect x="8" y="4" width="4" height="1"></rect><rect x="20" y="4" width="4" height="1"></rect><rect x="7" y="5" width="3" height="1"></rect><rect x="22" y="5" width="3" height="1"></rect><rect x="6" y="6" width="2" height="1"></rect><rect x="12" y="6" width="8" height="1"></rect><rect x="24" y="6" width="2" height="1"></rect><rect x="5" y="7" width="2" height="1"></rect><rect x="11" y="7" width="10" height="1"></rect><rect x="25" y="7" width="2" height="1"></rect><rect x="4" y="8" width="2" height="1"></rect><rect x="8" y="8" width="16" height="1"></rect><rect x="26" y="8" width="2" height="1"></rect><rect x="4" y="9" width="2" height="1"></rect><rect x="8" y="9" width="1" height="1"></rect><rect x="23" y="9" width="1" height="1"></rect><rect x="26" y="9" width="2" height="1"></rect><rect x="3" y="10" width="2" height="1"></rect><rect x="8" y="10" width="1" height="1"></rect><rect x="10" y="10" width="1" height="1"></rect><rect x="12" y="10" width="1" height="1"></rect><rect x="19" y="10" width="1" height="1"></rect><rect x="21" y="10" width="1" height="1"></rect><rect x="23" y="10" width="1" height="1"></rect><rect x="27" y="10" width="2" height="1"></rect><rect x="2" y="11" width="2" height="1"></rect><rect x="6" y="11" width="1" height="1"></rect><rect x="8" y="11" width="1" height="1"></rect><rect x="15" y="11" width="2" height="1"></rect><rect x="23" y="11" width="1" height="1"></rect><rect x="25" y="11" width="1" height="1"></rect><rect x="28" y="11" width="1" height="1"></rect><rect x="2" y="12" width="2" height="1"></rect><rect x="5" y="12" width="2" height="1"></rect><rect x="8" y="12" width="1" height="1"></rect><rect x="10" y="12" width="1" height="1"></rect><rect x="14" y="12" width="1" height="1"></rect><rect x="16" y="12" width="2" height="1"></rect><rect x="21" y="12" width="1" height="1"></rect><rect x="23" y="12" width="1" height="1"></rect><rect x="25" y="12" width="2" height="1"></rect><rect x="28" y="12" width="2" height="1"></rect><rect x="2" y="13" width="2" height="1"></rect><rect x="5" y="13" width="2" height="1"></rect><rect x="8" y="13" width="1" height="1"></rect><rect x="15" y="13" width="3" height="1"></rect><rect x="23" y="13" width="1" height="1"></rect><rect x="25" y="13" width="2" height="1"></rect><rect x="28" y="13" width="2" height="1"></rect><rect x="2" y="14" width="2" height="1"></rect><rect x="5" y="14" width="2" height="1"></rect><rect x="8" y="14" width="1" height="1"></rect><rect x="13" y="14" width="5" height="1"></rect><rect x="19" y="14" width="2" height="1"></rect><rect x="23" y="14" width="1" height="1"></rect><rect x="25" y="14" width="2" height="1"></rect><rect x="28" y="14" width="2" height="1"></rect><rect x="2" y="15" width="2" height="1"></rect><rect x="5" y="15" width="2" height="1"></rect><rect x="8" y="15" width="1" height="1"></rect><rect x="15" y="15" width="3" height="1"></rect><rect x="19" y="15" width="1" height="1"></rect><rect x="23" y="15" width="1" height="1"></rect><rect x="25" y="15" width="2" height="1"></rect><rect x="28" y="15" width="2" height="1"></rect><rect x="2" y="16" width="2" height="1"></rect><rect x="5" y="16" width="2" height="1"></rect><rect x="8" y="16" width="1" height="1"></rect><rect x="13" y="16" width="5" height="1"></rect><rect x="19" y="16" width="1" height="1"></rect><rect x="23" y="16" width="1" height="1"></rect><rect x="25" y="16" width="2" height="1"></rect><rect x="28" y="16" width="2" height="1"></rect><rect x="2" y="17" width="2" height="1"></rect><rect x="5" y="17" width="2" height="1"></rect><rect x="8" y="17" width="1" height="1"></rect><rect x="10" y="17" width="1" height="1"></rect><rect x="15" y="17" width="4" height="1"></rect><rect x="21" y="17" width="1" height="1"></rect><rect x="23" y="17" width="1" height="1"></rect><rect x="25" y="17" width="2" height="1"></rect><rect x="28" y="17" width="2" height="1"></rect><rect x="2" y="18" width="2" height="1"></rect><rect x="5" y="18" width="2" height="1"></rect><rect x="8" y="18" width="1" height="1"></rect><rect x="15" y="18" width="3" height="1"></rect><rect x="23" y="18" width="1" height="1"></rect><rect x="25" y="18" width="2" height="1"></rect><rect x="28" y="18" width="2" height="1"></rect><rect x="2" y="19" width="2" height="1"></rect><rect x="5" y="19" width="2" height="1"></rect><rect x="8" y="19" width="1" height="1"></rect><rect x="15" y="19" width="1" height="1"></rect><rect x="17" y="19" width="1" height="1"></rect><rect x="23" y="19" width="1" height="1"></rect><rect x="25" y="19" width="2" height="1"></rect><rect x="28" y="19" width="2" height="1"></rect><rect x="2" y="20" width="2" height="1"></rect><rect x="5" y="20" width="2" height="1"></rect><rect x="9" y="20" width="1" height="1"></rect><rect x="12" y="20" width="1" height="1"></rect><rect x="14" y="20" width="2" height="1"></rect><rect x="17" y="20" width="1" height="1"></rect><rect x="19" y="20" width="1" height="1"></rect><rect x="22" y="20" width="1" height="1"></rect><rect x="25" y="20" width="2" height="1"></rect><rect x="28" y="20" width="2" height="1"></rect><rect x="3" y="21" width="1" height="1"></rect><rect x="6" y="21" width="2" height="1"></rect><rect x="10" y="21" width="1" height="1"></rect><rect x="16" y="21" width="2" height="1"></rect><rect x="21" y="21" width="1" height="1"></rect><rect x="24" y="21" width="2" height="1"></rect><rect x="28" y="21" width="1" height="1"></rect><rect x="3" y="22" width="2" height="1"></rect><rect x="7" y="22" width="2" height="1"></rect><rect x="11" y="22" width="1" height="1"></rect><rect x="20" y="22" width="1" height="1"></rect><rect x="23" y="22" width="2" height="1"></rect><rect x="27" y="22" width="2" height="1"></rect><rect x="4" y="23" width="2" height="1"></rect><rect x="8" y="23" width="2" height="1"></rect><rect x="12" y="23" width="1" height="1"></rect><rect x="16" y="23" width="1" height="1"></rect><rect x="19" y="23" width="1" height="1"></rect><rect x="22" y="23" width="2" height="1"></rect><rect x="26" y="23" width="2" height="1"></rect><rect x="5" y="24" width="2" height="1"></rect><rect x="9" y="24" width="2" height="1"></rect><rect x="13" y="24" width="1" height="1"></rect><rect x="18" y="24" width="1" height="1"></rect><rect x="21" y="24" width="2" height="1"></rect><rect x="25" y="24" width="2" height="1"></rect><rect x="6" y="25" width="2" height="1"></rect><rect x="10" y="25" width="2" height="1"></rect><rect x="14" y="25" width="4" height="1"></rect><rect x="20" y="25" width="2" height="1"></rect><rect x="24" y="25" width="2" height="1"></rect><rect x="7" y="26" width="2" height="1"></rect><rect x="12" y="26" width="1" height="1"></rect><rect x="19" y="26" width="1" height="1"></rect><rect x="23" y="26" width="2" height="1"></rect><rect x="8" y="27" width="3" height="1"></rect><rect x="14" y="27" width="4" height="1"></rect><rect x="21" y="27" width="3" height="1"></rect><rect x="10" y="28" width="3" height="1"></rect><rect x="19" y="28" width="3" height="1"></rect><rect x="12" y="29" width="8" height="1"></rect></svg>