<svg xmlns="http://www.w3.org/2000/svg" viewBox="0 0 45 45" width="45" height="45" shape-rendering="crispEdges"><g transform="translate(2.0 2.0) scale(1.28125)"><svg xmlns="http://www.w3.org/2000/svg" viewBox="0 0 32 32" shape-rendering="crispEdges" fill="#FFFFFF"><rect x="7" y="2" width="1" height="1" /><rect x="2" y="3" width="13" height="1" /><rect x="5" y="4" width="2" height="1" /><rect x="15" y="4" width="1" height="1" /><rect x="2" y="5" width="12" height="1" /><rect x="16" y="5" width="1" height="1" /><rect x="4" y="6" width="2" height="1" /><rect x="14" y="6" width="1" height="1" /><rect x="17" y="6" width="1" height="1" /><rect x="2" y="7" width="11" height="1" /><rect x="15" y="7" width="1" height="1" /><rect x="18" y="7" width="2" height="1" /><rect x="21" y="7" width="2" height="1" /><rect x="25" y="7" width="1" height="1" /><rect x="28" y="7" width="2" height="1" /><rect x="3" y="8" width="3" height="1" /><rect x="13" y="8" width="1" height="1" /><rect x="16" y="8" width="1" height="1" /><rect x="24" y="8" width="1" height="1" /><rect x="26" y="8" width="1" height="1" /><rect x="3" y="9" width="3" height="1" /><rect x="14" y="9" width="1" height="1" /><rect x="17" y="9" width="3" height="1" /><rect x="21" y="9" width="2" height="1" /><rect x="24" y="9" width="3" height="1" /><rect x="28" y="9" width="2" height="1" /><rect x="3" y="10" width="4" height="1" /><rect x="12" y="10" width="1" height="1" /><rect x="15" y="10" width="1" height="1" /><rect x="21" y="10" width="1" height="1" /><rect x="24" y="10" width="1" height="1" /><rect x="26" y="10" width="1" height="1" /><rect x="28" y="10" width="1" height="1" /><rect x="4" y="11" width="3" height="1" /><rect x="12" y="11" width="2" height="1" /><rect x="16" y="11" width="4" height="1" /><rect x="21" y="11" width="1" height="1" /><rect x="24" y="11" width="1" height="1" /><rect x="26" y="11" width="1" height="1" /><rect x="28" y="11" width="1" height="1" /><rect x="4" y="12" width="2" height="1" /><rect x="8" y="12" width="3" height="1" /><rect x="13" y="12" width="2" height="1" /><rect x="7" y="13" width="5" height="1" /><rect x="6" y="14" width="7" height="1" /><rect x="19" y="14" width="1" height="1" /><rect x="21" y="14" width="1" height="1" /><rect x="6" y="15" width="7" height="1" /><rect x="20" y="15" width="1" height="1" /><rect x="2" y="16" width="1" height="1" /><rect x="6" y="16" width="7" height="1" /><rect x="16" y="16" width="1" height="1" /><rect x="19" y="16" width="1" height="1" /><rect x="21" y="16" width="1" height="1" /><rect x="25" y="16" width="1" height="1" /><rect x="2" y="17" width="2" height="1" /><rect x="7" y="17" width="5" height="1" /><rect x="15" y="17" width="2" height="1" /><rect x="24" y="17" width="1" height="1" /><rect x="2" y="18" width="2" height="1" /><rect x="8" y="18" width="3" height="1" /><rect x="15" y="18" width="2" height="1" /><rect x="22" y="18" width="3" height="1" /><rect x="3" y="19" width="2" height="1" /><rect x="14" y="19" width="2" height="1" /><rect x="20" y="19" width="4" height="1" /><rect x="19" y="20" width="4" height="1" /><rect x="8" y="21" width="3" height="1" /><rect x="14" y="21" width="8" height="1" /><rect x="7" y="22" width="5" height="1" /><rect x="13" y="22" width="8" height="1" /><rect x="13" y="23" width="7" height="1" /><rect x="9" y="25" width="1" height="1" /><rect x="11" y="25" width="1" height="1" /><rect x="14" y="25" width="1" height="1" /><rect x="19" y="25" width="1" height="1" /><rect x="21" y="25" width="1" height="1" /><rect x="11" y="26" width="1" height="1" /><rect x="16" y="26" width="1" height="1" /><rect x="19" y="26" width="1" height="1" /><rect x="21" y="26" width="1" height="1" /><rect x="6" y="27" width="1" height="1" /><rect x="9" y="27" width="1" height="1" /><rect x="11" y="27" width="1" height="1" /><rect x="14" y="27" width="1" height="1" /><rect x="17" y="27" width="1" height="1" /><rect x="19" y="27" width="1" height="1" /><rect x="21" y="27" width="1" height="1" /><rect x="6" y="28" width="4" height="1" /><rect x="11" y="28" width="1" height="1" /><rect x="14" y="28" width="3" height="1" /><rect x="18" y="28" width="2" height="1" /><rect x="21" y="28" width="1" height="1" /><rect x="5" y="29" width="2" height="1" /><rect x="13" y="29" width="2" height="1" /><rect x="17" y="29" width="1" height="1" /></svg></g></svg>