<svg xmlns="http://www.w3.org/2000/svg" viewBox="0 0 45 45" width="45" height="45" shape-rendering="crispEdges"><g transform="translate(2.0 2.0) scale(1.28125)"><svg xmlns="http://www.w3.org/2000/svg" viewBox="0 0 32 32" shape-rendering="crispEdges" fill="#FFFFFF"><rect x="14" y="2" width="1" height="1" /><rect x="17" y="2" width="1" height="1" /><rect x="8" y="3" width="1" height="1" /><rect x="11" y="3" width="1" height="1" /><rect x="15" y="3" width="2" height="1" /><rect x="20" y="3" width="1" height="1" /><rect x="23" y="3" width="1" height="1" /><rect x="9" y="4" width="2" height="1" /><rect x="15" y="4" width="2" height="1" /><rect x="21" y="4" width="2" height="1" /><rect x="2" y="5" width="1" height="1" /><rect x="5" y="5" width="1" height="1" /><rect x="9" y="5" width="2" height="1" /><rect x="14" y="5" width="1" height="1" /><rect x="17" y="5" width="1" height="1" /><rect x="21" y="5" width="2" height="1" /><rect x="26" y="5" width="1" height="1" /><rect x="29" y="5" width="1" height="1" /><rect x="3" y="6" width="2" height="1" /><rect x="8" y="6" width="1" height="1" /><rect x="11" y="6" width="1" height="1" /><rect x="20" y="6" width="1" height="1" /><rect x="23" y="6" width="1" height="1" /><rect x="27" y="6" width="2" height="1" /><rect x="3" y="7" width="2" height="1" /><rect x="13" y="7" width="6" height="1" /><rect x="27" y="7" width="2" height="1" /><rect x="2" y="8" width="1" height="1" /><rect x="5" y="8" width="1" height="1" /><rect x="11" y="8" width="4" height="1" /><rect x="17" y="8" width="4" height="1" /><rect x="26" y="8" width="1" height="1" /><rect x="29" y="8" width="1" height="1" /><rect x="9" y="9" width="6" height="1" /><rect x="17" y="9" width="6" height="1" /><rect x="7" y="10" width="4" height="1" /><rect x="21" y="10" width="4" height="1" /><rect x="5" y="11" width="7" height="1" /><rect x="20" y="11" width="7" height="1" /><rect x="6" y="12" width="3" height="1" /><rect x="10" y="12" width="3" height="1" /><rect x="19" y="12" width="3" height="1" /><rect x="23" y="12" width="3" height="1" /><rect x="7" y="13" width="2" height="1" /><rect x="11" y="13" width="2" height="1" /><rect x="19" y="13" width="2" height="1" /><rect x="23" y="13" width="2" height="1" /><rect x="7" y="14" width="2" height="1" /><rect x="23" y="14" width="2" height="1" /><rect x="7" y="15" width="2" height="1" /><rect x="10" y="15" width="3" height="1" /><rect x="14" y="15" width="4" height="1" /><rect x="19" y="15" width="3" height="1" /><rect x="23" y="15" width="2" height="1" /><rect x="10" y="16" width="1" height="1" /><rect x="14" y="16" width="1" height="1" /><rect x="17" y="16" width="1" height="1" /><rect x="19" y="16" width="1" height="1" /><rect x="10" y="17" width="1" height="1" /><rect x="14" y="17" width="4" height="1" /><rect x="19" y="17" width="3" height="1" /><rect x="7" y="18" width="2" height="1" /><rect x="10" y="18" width="1" height="1" /><rect x="14" y="18" width="1" height="1" /><rect x="17" y="18" width="1" height="1" /><rect x="19" y="18" width="1" height="1" /><rect x="23" y="18" width="2" height="1" /><rect x="7" y="19" width="2" height="1" /><rect x="10" y="19" width="3" height="1" /><rect x="14" y="19" width="4" height="1" /><rect x="19" y="19" width="1" height="1" /><rect x="23" y="19" width="2" height="1" /><rect x="7" y="20" width="2" height="1" /><rect x="23" y="20" width="2" height="1" /><rect x="7" y="21" width="2" height="1" /><rect x="11" y="21" width="2" height="1" /><rect x="19" y="21" width="2" height="1" /><rect x="23" y="21" width="2" height="1" /><rect x="7" y="22" width="2" height="1" /><rect x="10" y="22" width="3" height="1" /><rect x="19" y="22" width="3" height="1" /><rect x="23" y="22" width="2" height="1" /><rect x="7" y="23" width="5" height="1" /><rect x="20" y="23" width="5" height="1" /><rect x="8" y="24" width="3" height="1" /><rect x="21" y="24" width="3" height="1" /><rect x="9" y="25" width="6" height="1" /><rect x="17" y="25" width="6" height="1" /><rect x="10" y="26" width="5" height="1" /><rect x="17" y="26" width="5" height="1" /><rect x="12" y="27" width="3" height="1" /><rect x="17" y="27" width="3" height="1" /><rect x="14" y="28" width="4" height="1" /><rect x="15" y="29" width="2" height="1" /></svg></g></svg>