<svg xmlns="http://www.w3.org/2000/svg" viewBox="0 0 45 45" width="45" height="45" shape-rendering="crispEdges"><g transform="translate(2.0 2.0) scale(1.28125)"><svg xmlns="http://www.w3.org/2000/svg" viewBox="0 0 32 32" shape-rendering="crispEdges" fill="#FFFFFF"><rect x="8" y="2" width="16" height="1" /><rect x="8" y="3" width="1" height="1" /><rect x="23" y="3" width="1" height="1" /><rect x="7" y="4" width="2" height="1" /><rect x="10" y="4" width="1" height="1" /><rect x="12" y="4" width="2" height="1" /><rect x="16" y="4" width="1" height="1" /><rect x="19" y="4" width="3" height="1" /><rect x="23" y="4" width="2" height="1" /><rect x="6" y="5" width="2" height="1" /><rect x="10" y="5" width="1" height="1" /><rect x="12" y="5" width="1" height="1" /><rect x="15" y="5" width="3" height="1" /><rect x="19" y="5" width="1" height="1" /><rect x="21" y="5" width="1" height="1" /><rect x="24" y="5" width="2" height="1" /><rect x="6" y="6" width="1" height="1" /><rect x="10" y="6" width="1" height="1" /><rect x="12" y="6" width="1" height="1" /><rect x="15" y="6" width="1" height="1" /><rect x="17" y="6" width="1" height="1" /><rect x="19" y="6" width="4" height="1" /><rect x="25" y="6" width="1" height="1" /><rect x="6" y="7" width="1" height="1" /><rect x="25" y="7" width="1" height="1" /><rect x="6" y="8" width="1" height="1" /><rect x="8" y="8" width="16" height="1" /><rect x="25" y="8" width="1" height="1" /><rect x="6" y="9" width="1" height="1" /><rect x="8" y="9" width="16" height="1" /><rect x="25" y="9" width="1" height="1" /><rect x="6" y="10" width="1" height="1" /><rect x="8" y="10" width="16" height="1" /><rect x="25" y="10" width="1" height="1" /><rect x="6" y="11" width="1" height="1" /><rect x="8" y="11" width="16" height="1" /><rect x="25" y="11" width="1" height="1" /><rect x="6" y="12" width="1" height="1" /><rect x="8" y="12" width="16" height="1" /><rect x="25" y="12" width="1" height="1" /><rect x="6" y="13" width="1" height="1" /><rect x="8" y="13" width="16" height="1" /><rect x="25" y="13" width="1" height="1" /><rect x="6" y="14" width="1" height="1" /><rect x="25" y="14" width="1" height="1" /><rect x="6" y="15" width="1" height="1" /><rect x="15" y="15" width="1" height="1" /><rect x="21" y="15" width="1" height="1" /><rect x="25" y="15" width="1" height="1" /><rect x="6" y="16" width="2" height="1" /><rect x="11" y="16" width="1" height="1" /><rect x="13" y="16" width="1" height="1" /><rect x="15" y="16" width="1" height="1" /><rect x="18" y="16" width="2" height="1" /><rect x="21" y="16" width="1" height="1" /><rect x="24" y="16" width="2" height="1" /><rect x="7" y="17" width="1" height="1" /><rect x="10" y="17" width="6" height="1" /><rect x="17" y="17" width="3" height="1" /><rect x="21" y="17" width="1" height="1" /><rect x="24" y="17" width="1" height="1" /><rect x="7" y="18" width="2" height="1" /><rect x="10" y="18" width="1" height="1" /><rect x="23" y="18" width="2" height="1" /><rect x="8" y="19" width="1" height="1" /><rect x="23" y="19" width="1" height="1" /><rect x="8" y="20" width="2" height="1" /><rect x="11" y="20" width="10" height="1" /><rect x="22" y="20" width="2" height="1" /><rect x="9" y="21" width="1" height="1" /><rect x="11" y="21" width="10" height="1" /><rect x="22" y="21" width="1" height="1" /><rect x="9" y="22" width="2" height="1" /><rect x="12" y="22" width="8" height="1" /><rect x="21" y="22" width="2" height="1" /><rect x="10" y="23" width="1" height="1" /><rect x="12" y="23" width="8" height="1" /><rect x="21" y="23" width="1" height="1" /><rect x="10" y="24" width="2" height="1" /><rect x="13" y="24" width="6" height="1" /><rect x="20" y="24" width="2" height="1" /><rect x="11" y="25" width="2" height="1" /><rect x="14" y="25" width="4" height="1" /><rect x="19" y="25" width="2" height="1" /><rect x="12" y="26" width="2" height="1" /><rect x="15" y="26" width="2" height="1" /><rect x="18" y="26" width="2" height="1" /><rect x="13" y="27" width="2" height="1" /><rect x="17" y="27" width="2" height="1" /><rect x="14" y="28" width="4" height="1" /><rect x="15" y="29" width="2" height="1" /></svg></g></svg>