<svg xmlns="http://www.w3.org/2000/svg" viewBox="0 0 45 45" width="45" height="45" shape-rendering="crispEdges"><g transform="translate(2.0 2.0) scale(1.28125)"><svg xmlns="http://www.w3.org/2000/svg" viewBox="0 0 32 32" shape-rendering="crispEdges" fill="#FFFFFF"><rect x="21" y="2" width="1" height="1" /><rect x="21" y="3" width="2" height="1" /><rect x="20" y="4" width="4" height="1" /><rect x="13" y="5" width="6" height="1" /><rect x="20" y="5" width="4" height="1" /><rect x="11" y="6" width="2" height="1" /><rect x="19" y="6" width="5" height="1" /><rect x="9" y="7" width="2" height="1" /><rect x="14" y="7" width="4" height="1" /><rect x="19" y="7" width="4" height="1" /><rect x="24" y="7" width="1" height="1" /><rect x="8" y="8" width="1" height="1" /><rect x="12" y="8" width="2" height="1" /><rect x="18" y="8" width="4" height="1" /><rect x="23" y="8" width="2" height="1" /><rect x="7" y="9" width="1" height="1" /><rect x="10" y="9" width="2" height="1" /><rect x="18" y="9" width="3" height="1" /><rect x="22" y="9" width="2" height="1" /><rect x="25" y="9" width="1" height="1" /><rect x="7" y="10" width="1" height="1" /><rect x="9" y="10" width="1" height="1" /><rect x="13" y="10" width="1" height="1" /><rect x="17" y="10" width="3" height="1" /><rect x="21" y="10" width="2" height="1" /><rect x="24" y="10" width="2" height="1" /><rect x="6" y="11" width="1" height="1" /><rect x="9" y="11" width="1" height="1" /><rect x="12" y="11" width="3" height="1" /><rect x="17" y="11" width="2" height="1" /><rect x="20" y="11" width="2" height="1" /><rect x="23" y="11" width="2" height="1" /><rect x="6" y="12" width="1" height="1" /><rect x="8" y="12" width="1" height="1" /><rect x="11" y="12" width="4" height="1" /><rect x="16" y="12" width="2" height="1" /><rect x="19" y="12" width="2" height="1" /><rect x="22" y="12" width="2" height="1" /><rect x="25" y="12" width="1" height="1" /><rect x="5" y="13" width="1" height="1" /><rect x="8" y="13" width="1" height="1" /><rect x="10" y="13" width="10" height="1" /><rect x="21" y="13" width="2" height="1" /><rect x="24" y="13" width="2" height="1" /><rect x="5" y="14" width="1" height="1" /><rect x="7" y="14" width="1" height="1" /><rect x="13" y="14" width="6" height="1" /><rect x="20" y="14" width="2" height="1" /><rect x="23" y="14" width="2" height="1" /><rect x="26" y="14" width="1" height="1" /><rect x="5" y="15" width="1" height="1" /><rect x="7" y="15" width="1" height="1" /><rect x="13" y="15" width="3" height="1" /><rect x="17" y="15" width="4" height="1" /><rect x="22" y="15" width="3" height="1" /><rect x="26" y="15" width="1" height="1" /><rect x="5" y="16" width="1" height="1" /><rect x="7" y="16" width="1" height="1" /><rect x="14" y="16" width="3" height="1" /><rect x="18" y="16" width="2" height="1" /><rect x="21" y="16" width="4" height="1" /><rect x="26" y="16" width="1" height="1" /><rect x="5" y="17" width="1" height="1" /><rect x="7" y="17" width="1" height="1" /><rect x="14" y="17" width="4" height="1" /><rect x="19" y="17" width="4" height="1" /><rect x="24" y="17" width="1" height="1" /><rect x="26" y="17" width="1" height="1" /><rect x="5" y="18" width="1" height="1" /><rect x="8" y="18" width="1" height="1" /><rect x="14" y="18" width="5" height="1" /><rect x="20" y="18" width="2" height="1" /><rect x="23" y="18" width="1" height="1" /><rect x="26" y="18" width="1" height="1" /><rect x="6" y="19" width="1" height="1" /><rect x="8" y="19" width="1" height="1" /><rect x="14" y="19" width="1" height="1" /><rect x="16" y="19" width="4" height="1" /><rect x="23" y="19" width="1" height="1" /><rect x="25" y="19" width="1" height="1" /><rect x="6" y="20" width="1" height="1" /><rect x="9" y="20" width="1" height="1" /><rect x="12" y="20" width="2" height="1" /><rect x="16" y="20" width="1" height="1" /><rect x="19" y="20" width="2" height="1" /><rect x="22" y="20" width="1" height="1" /><rect x="25" y="20" width="1" height="1" /><rect x="7" y="21" width="1" height="1" /><rect x="9" y="21" width="1" height="1" /><rect x="13" y="21" width="1" height="1" /><rect x="15" y="21" width="3" height="1" /><rect x="22" y="21" width="1" height="1" /><rect x="24" y="21" width="1" height="1" /><rect x="7" y="22" width="1" height="1" /><rect x="10" y="22" width="1" height="1" /><rect x="15" y="22" width="1" height="1" /><rect x="17" y="22" width="1" height="1" /><rect x="21" y="22" width="1" height="1" /><rect x="24" y="22" width="1" height="1" /><rect x="3" y="23" width="6" height="1" /><rect x="10" y="23" width="1" height="1" /><rect x="15" y="23" width="3" height="1" /><rect x="21" y="23" width="1" height="1" /><rect x="23" y="23" width="6" height="1" /><rect x="3" y="25" width="1" height="1" /><rect x="7" y="25" width="1" height="1" /><rect x="9" y="25" width="3" height="1" /><rect x="13" y="25" width="1" height="1" /><rect x="17" y="25" width="1" height="1" /><rect x="19" y="25" width="1" height="1" /><rect x="21" y="25" width="3" height="1" /><rect x="25" y="25" width="4" height="1" /><rect x="3" y="26" width="2" height="1" /><rect x="6" y="26" width="2" height="1" /><rect x="9" y="26" width="1" height="1" /><rect x="14" y="26" width="1" height="1" /><rect x="16" y="26" width="1" height="1" /><rect x="19" y="26" width="1" height="1" /><rect x="21" y="26" width="1" height="1" /><rect x="25" y="26" width="1" height="1" /><rect x="28" y="26" width="1" height="1" /><rect x="3" y="27" width="1" height="1" /><rect x="5" y="27" width="1" height="1" /><rect x="7" y="27" width="1" height="1" /><rect x="9" y="27" width="3" height="1" /><rect x="15" y="27" width="1" height="1" /><rect x="19" y="27" width="1" height="1" /><rect x="21" y="27" width="1" height="1" /><rect x="25" y="27" width="1" height="1" /><rect x="28" y="27" width="1" height="1" /><rect x="3" y="28" width="1" height="1" /><rect x="7" y="28" width="1" height="1" /><rect x="9" y="28" width="1" height="1" /><rect x="14" y="28" width="1" height="1" /><rect x="16" y="28" width="1" height="1" /><rect x="19" y="28" width="1" height="1" /><rect x="21" y="28" width="1" height="1" /><rect x="25" y="28" width="1" height="1" /><rect x="28" y="28" width="1" height="1" /><rect x="3" y="29" width="1" height="1" /><rect x="7" y="29" width="1" height="1" /><rect x="9" y="29" width="3" height="1" /><rect x="13" y="29" width="1" height="1" /><rect x="17" y="29" width="1" height="1" /><rect x="19" y="29" width="1" height="1" /><rect x="21" y="29" width="3" height="1" /><rect x="25" y="29" width="4" height="1" /></svg></g></svg>