<svg xmlns="http://www.w3.org/2000/svg" viewBox="0 0 45 45" width="45" height="45" shape-rendering="crispEdges"><g transform="translate(2.0 2.0) scale(1.28125)"><svg xmlns="http://www.w3.org/2000/svg" viewBox="0 0 32 32" shape-rendering="crispEdges" fill="#FFFFFF"><rect x="6" y="2" width="20" height="1" /><rect x="4" y="3" width="5" height="1" /><rect x="11" y="3" width="10" height="1" /><rect x="23" y="3" width="5" height="1" /><rect x="4" y="4" width="1" height="1" /><rect x="6" y="4" width="2" height="1" /><rect x="10" y="4" width="1" height="1" /><rect x="12" y="4" width="3" height="1" /><rect x="17" y="4" width="3" height="1" /><rect x="21" y="4" width="1" height="1" /><rect x="24" y="4" width="2" height="1" /><rect x="27" y="4" width="1" height="1" /><rect x="4" y="5" width="2" height="1" /><rect x="7" y="5" width="1" height="1" /><rect x="11" y="5" width="3" height="1" /><rect x="15" y="5" width="2" height="1" /><rect x="18" y="5" width="3" height="1" /><rect x="24" y="5" width="1" height="1" /><rect x="26" y="5" width="2" height="1" /><rect x="4" y="6" width="1" height="1" /><rect x="6" y="6" width="2" height="1" /><rect x="13" y="6" width="1" height="1" /><rect x="15" y="6" width="2" height="1" /><rect x="18" y="6" width="1" height="1" /><rect x="24" y="6" width="2" height="1" /><rect x="27" y="6" width="1" height="1" /><rect x="4" y="7" width="1" height="1" /><rect x="11" y="7" width="4" height="1" /><rect x="17" y="7" width="4" height="1" /><rect x="27" y="7" width="1" height="1" /><rect x="4" y="9" width="10" height="1" /><rect x="15" y="9" width="2" height="1" /><rect x="18" y="9" width="10" height="1" /><rect x="4" y="10" width="10" height="1" /><rect x="15" y="10" width="2" height="1" /><rect x="18" y="10" width="10" height="1" /><rect x="4" y="11" width="10" height="1" /><rect x="15" y="11" width="2" height="1" /><rect x="18" y="11" width="10" height="1" /><rect x="4" y="12" width="10" height="1" /><rect x="15" y="12" width="2" height="1" /><rect x="18" y="12" width="10" height="1" /><rect x="4" y="13" width="10" height="1" /><rect x="15" y="13" width="2" height="1" /><rect x="18" y="13" width="10" height="1" /><rect x="15" y="14" width="2" height="1" /><rect x="4" y="15" width="24" height="1" /><rect x="4" y="16" width="24" height="1" /><rect x="15" y="17" width="2" height="1" /><rect x="4" y="18" width="10" height="1" /><rect x="15" y="18" width="2" height="1" /><rect x="18" y="18" width="10" height="1" /><rect x="4" y="19" width="10" height="1" /><rect x="15" y="19" width="2" height="1" /><rect x="18" y="19" width="10" height="1" /><rect x="4" y="20" width="10" height="1" /><rect x="15" y="20" width="2" height="1" /><rect x="18" y="20" width="10" height="1" /><rect x="4" y="21" width="10" height="1" /><rect x="15" y="21" width="2" height="1" /><rect x="18" y="21" width="10" height="1" /><rect x="4" y="22" width="10" height="1" /><rect x="15" y="22" width="2" height="1" /><rect x="18" y="22" width="10" height="1" /><rect x="5" y="23" width="9" height="1" /><rect x="15" y="23" width="2" height="1" /><rect x="18" y="23" width="9" height="1" /><rect x="5" y="24" width="9" height="1" /><rect x="15" y="24" width="2" height="1" /><rect x="18" y="24" width="9" height="1" /><rect x="7" y="25" width="7" height="1" /><rect x="15" y="25" width="2" height="1" /><rect x="18" y="25" width="7" height="1" /><rect x="7" y="26" width="7" height="1" /><rect x="15" y="26" width="2" height="1" /><rect x="18" y="26" width="7" height="1" /><rect x="9" y="27" width="5" height="1" /><rect x="15" y="27" width="2" height="1" /><rect x="18" y="27" width="5" height="1" /><rect x="12" y="28" width="8" height="1" /><rect x="15" y="29" width="2" height="1" /></svg></g></svg>