<svg xmlns="http://www.w3.org/2000/svg" viewBox="0 0 45 45" width="45" height="45" shape-rendering="crispEdges"><g transform="translate(2.0 2.0) scale(1.28125)"><svg xmlns="http://www.w3.org/2000/svg" viewBox="0 0 32 32" shape-rendering="crispEdges" fill="#FFFFFF"><rect x="24" y="3" width="2" height="1" /><rect x="23" y="4" width="1" height="1" /><rect x="26" y="4" width="1" height="1" /><rect x="22" y="5" width="1" height="1" /><rect x="27" y="5" width="1" height="1" /><rect x="16" y="6" width="6" height="1" /><rect x="26" y="6" width="1" height="1" /><rect x="15" y="7" width="1" height="1" /><rect x="24" y="7" width="2" height="1" /><rect x="5" y="8" width="6" height="1" /><rect x="14" y="8" width="7" height="1" /><rect x="26" y="8" width="1" height="1" /><rect x="4" y="9" width="1" height="1" /><rect x="7" y="9" width="1" height="1" /><rect x="20" y="9" width="1" height="1" /><rect x="27" y="9" width="1" height="1" /><rect x="3" y="10" width="1" height="1" /><rect x="7" y="10" width="1" height="1" /><rect x="9" y="10" width="7" height="1" /><rect x="20" y="10" width="1" height="1" /><rect x="28" y="10" width="1" height="1" /><rect x="2" y="11" width="1" height="1" /><rect x="7" y="11" width="1" height="1" /><rect x="11" y="11" width="1" height="1" /><rect x="19" y="11" width="1" height="1" /><rect x="25" y="11" width="1" height="1" /><rect x="29" y="11" width="1" height="1" /><rect x="2" y="12" width="1" height="1" /><rect x="4" y="12" width="2" height="1" /><rect x="7" y="12" width="3" height="1" /><rect x="11" y="12" width="1" height="1" /><rect x="13" y="12" width="2" height="1" /><rect x="18" y="12" width="1" height="1" /><rect x="24" y="12" width="1" height="1" /><rect x="27" y="12" width="1" height="1" /><rect x="29" y="12" width="1" height="1" /><rect x="2" y="13" width="1" height="1" /><rect x="4" y="13" width="1" height="1" /><rect x="7" y="13" width="1" height="1" /><rect x="11" y="13" width="1" height="1" /><rect x="17" y="13" width="1" height="1" /><rect x="23" y="13" width="1" height="1" /><rect x="28" y="13" width="1" height="1" /><rect x="2" y="14" width="3" height="1" /><rect x="6" y="14" width="2" height="1" /><rect x="9" y="14" width="3" height="1" /><rect x="13" y="14" width="1" height="1" /><rect x="16" y="14" width="1" height="1" /><rect x="20" y="14" width="1" height="1" /><rect x="22" y="14" width="1" height="1" /><rect x="11" y="15" width="1" height="1" /><rect x="13" y="15" width="1" height="1" /><rect x="16" y="15" width="1" height="1" /><rect x="21" y="15" width="1" height="1" /><rect x="11" y="16" width="1" height="1" /><rect x="13" y="16" width="1" height="1" /><rect x="17" y="16" width="1" height="1" /><rect x="21" y="16" width="1" height="1" /><rect x="18" y="17" width="1" height="1" /><rect x="22" y="17" width="1" height="1" /><rect x="5" y="18" width="2" height="1" /><rect x="9" y="18" width="5" height="1" /><rect x="15" y="18" width="1" height="1" /><rect x="17" y="18" width="1" height="1" /><rect x="19" y="18" width="1" height="1" /><rect x="22" y="18" width="1" height="1" /><rect x="4" y="19" width="1" height="1" /><rect x="9" y="19" width="1" height="1" /><rect x="15" y="19" width="3" height="1" /><rect x="20" y="19" width="1" height="1" /><rect x="23" y="19" width="1" height="1" /><rect x="4" y="20" width="1" height="1" /><rect x="6" y="20" width="4" height="1" /><rect x="11" y="20" width="3" height="1" /><rect x="15" y="20" width="1" height="1" /><rect x="17" y="20" width="1" height="1" /><rect x="19" y="20" width="1" height="1" /><rect x="21" y="20" width="1" height="1" /><rect x="24" y="20" width="1" height="1" /><rect x="4" y="21" width="1" height="1" /><rect x="9" y="21" width="1" height="1" /><rect x="15" y="21" width="1" height="1" /><rect x="17" y="21" width="2" height="1" /><rect x="22" y="21" width="1" height="1" /><rect x="25" y="21" width="1" height="1" /><rect x="5" y="22" width="3" height="1" /><rect x="9" y="22" width="1" height="1" /><rect x="11" y="22" width="2" height="1" /><rect x="17" y="22" width="1" height="1" /><rect x="23" y="22" width="1" height="1" /><rect x="25" y="22" width="1" height="1" /><rect x="9" y="23" width="1" height="1" /><rect x="11" y="23" width="1" height="1" /><rect x="16" y="23" width="1" height="1" /><rect x="24" y="23" width="1" height="1" /><rect x="27" y="23" width="2" height="1" /><rect x="7" y="24" width="2" height="1" /><rect x="11" y="24" width="1" height="1" /><rect x="14" y="24" width="2" height="1" /><rect x="25" y="24" width="1" height="1" /><rect x="29" y="24" width="1" height="1" /><rect x="26" y="25" width="1" height="1" /><rect x="29" y="25" width="1" height="1" /><rect x="27" y="26" width="2" height="1" /></svg></g></svg>